{
	"asset":{
		"generator":"Khronos glTF Blender I/O v5.0.21",
		"version":"2.0"
	},
	"extensionsUsed":[
		"KHR_materials_emissive_strength",
		"KHR_materials_specular"
	],
	"scene":0,
	"scenes":[
		{
			"name":"Scene",
			"nodes":[
				0,
				1,
				2,
				3,
				4,
				5,
				6,
				7,
				8,
				9,
				10,
				11,
				12,
				13,
				14,
				15,
				16,
				17,
				18,
				19,
				20,
				21,
				22,
				23,
				24,
				25,
				26,
				27,
				28,
				29,
				30,
				31,
				32,
				33,
				34,
				35,
				36,
				37,
				38,
				39,
				40,
				41,
				42,
				43,
				44
			]
		}
	],
	"nodes":[
		{
			"mesh":0,
			"name":"Cube.001",
			"rotation":[
				0,
				1,
				0,
				7.549790126404332e-08
			],
			"translation":[
				0,
				3.2201952934265137,
				6.762599945068359
			]
		},
		{
			"mesh":1,
			"name":"Cube.002",
			"rotation":[
				0,
				1,
				0,
				7.549790126404332e-08
			],
			"scale":[
				0.11726725101470947,
				0.11726725101470947,
				1
			],
			"translation":[
				-5.388829231262207,
				-0.03170711547136307,
				3.9287452697753906
			]
		},
		{
			"mesh":2,
			"name":"Cube.003",
			"rotation":[
				0.08050112426280975,
				0.99675452709198,
				0,
				7.518185896060459e-08
			],
			"translation":[
				-1.3618417978286743,
				0.6368749737739563,
				-1.7695618867874146
			]
		},
		{
			"mesh":3,
			"name":"Circle.002",
			"translation":[
				0,
				0.8054932355880737,
				-5.276751518249512
			]
		},
		{
			"mesh":4,
			"name":"Cube",
			"rotation":[
				0.010358328931033611,
				-0.36408790946006775,
				0.023931657895445824,
				0.9309994578361511
			],
			"translation":[
				-2.061497926712036,
				0.12735837697982788,
				0.11913302540779114
			]
		},
		{
			"mesh":5,
			"name":"Cube.006",
			"rotation":[
				0.010358328931033611,
				-0.36408790946006775,
				0.023931657895445824,
				0.9309994578361511
			],
			"translation":[
				2.0614986419677734,
				0.1273583620786667,
				0.11913275718688965
			]
		},
		{
			"mesh":6,
			"name":"Circle.001",
			"rotation":[
				0,
				-0.6895618438720703,
				0.7242268323898315,
				5.2060475042026155e-08
			],
			"translation":[
				0,
				0.8054932355880737,
				-5.276751518249512
			]
		},
		{
			"mesh":7,
			"name":"Circle.004",
			"rotation":[
				0,
				-0.6895618438720703,
				0.7242268323898315,
				5.2060475042026155e-08
			],
			"translation":[
				0,
				0.8054932355880737,
				-5.276751518249512
			]
		},
		{
			"mesh":8,
			"name":"Circle.005",
			"rotation":[
				0,
				-0.6895618438720703,
				0.7242268323898315,
				5.2060475042026155e-08
			],
			"translation":[
				0,
				0.8054932355880737,
				-5.276751518249512
			]
		},
		{
			"mesh":9,
			"name":"Cylinder",
			"rotation":[
				0.6918041706085205,
				0.146310955286026,
				0.14631101489067078,
				0.6918042898178101
			],
			"scale":[
				0.6000000238418579,
				0.6000000238418579,
				0.6000000238418579
			],
			"translation":[
				-0.5061746835708618,
				1.0237044095993042,
				-5.694494724273682
			]
		},
		{
			"mesh":10,
			"name":"Icosphere.002",
			"translation":[
				0.15197612345218658,
				0.6810293197631836,
				-5.786899566650391
			]
		},
		{
			"mesh":11,
			"name":"Cube.007",
			"rotation":[
				0.3293498158454895,
				0,
				0,
				0.9442079663276672
			],
			"scale":[
				0.05133405700325966,
				0.20690441131591797,
				0.08818119764328003
			],
			"translation":[
				0,
				1.3780150413513184,
				-0.02116262912750244
			]
		},
		{
			"mesh":12,
			"name":"Circle",
			"rotation":[
				0.6408565044403076,
				-0.29883620142936707,
				-0.6408563256263733,
				0.298836350440979
			],
			"translation":[
				0,
				1.1358124017715454,
				-4.13663387298584
			]
		},
		{
			"mesh":13,
			"name":"Circle.006",
			"rotation":[
				0.6408565044403076,
				-0.29883620142936707,
				-0.6408563256263733,
				0.298836350440979
			],
			"translation":[
				0,
				1.1358124017715454,
				-4.13663387298584
			]
		},
		{
			"mesh":14,
			"name":"CanopyGlass",
			"rotation":[
				0,
				-0.6895618438720703,
				0.7242268323898315,
				5.2060475042026155e-08
			],
			"translation":[
				0,
				0.8054932355880737,
				-5.276751518249512
			]
		},
		{
			"mesh":15,
			"name":"Cube.009",
			"scale":[
				0.056000009179115295,
				0.07600001245737076,
				0.020000003278255463
			],
			"translation":[
				0.1648646742105484,
				0.9842151403427124,
				-3.9442672729492188
			]
		},
		{
			"mesh":16,
			"name":"Cube.010",
			"scale":[
				0.056000009179115295,
				0.07600001245737076,
				0.020000003278255463
			],
			"translation":[
				0.33160072565078735,
				0.8642939329147339,
				-3.9411628246307373
			]
		},
		{
			"mesh":17,
			"name":"Cube.011",
			"rotation":[
				0.0428839810192585,
				0,
				0,
				0.9990800619125366
			],
			"translation":[
				0,
				1.1048468351364136,
				0.8079683184623718
			]
		},
		{
			"mesh":18,
			"name":"Cube.005",
			"rotation":[
				0.1830126792192459,
				0.6830127239227295,
				-0.1830127090215683,
				0.6830126643180847
			],
			"scale":[
				0.5,
				0.5,
				0.5
			],
			"translation":[
				-0.3706184923648834,
				0.6567460298538208,
				-3.572901964187622
			]
		},
		{
			"mesh":19,
			"name":"Cube.012",
			"rotation":[
				0.2588190734386444,
				0,
				0,
				0.965925931930542
			],
			"scale":[
				0.5,
				0.5,
				0.5
			],
			"translation":[
				-0.3176184892654419,
				0.6567460298538208,
				-3.572901964187622
			]
		},
		{
			"mesh":20,
			"name":"Cylinder.001",
			"rotation":[
				-0.6755901575088501,
				0,
				0,
				0.7372773885726929
			],
			"translation":[
				0.15197612345218658,
				0.671775221824646,
				-5.681124687194824
			]
		},
		{
			"mesh":21,
			"name":"Circle.003",
			"translation":[
				0.15197612345218658,
				0.6456528306007385,
				-5.786899566650391
			]
		},
		{
			"mesh":22,
			"name":"Cube.013",
			"scale":[
				0.10000002384185791,
				0.10000002384185791,
				0.10000002384185791
			],
			"translation":[
				-0.14837734401226044,
				0.7621163129806519,
				-5.786899566650391
			]
		},
		{
			"mesh":23,
			"name":"Cube.014",
			"rotation":[
				0.08050112426280975,
				0.99675452709198,
				0,
				7.518185896060459e-08
			],
			"translation":[
				1.3618417978286743,
				0.6353610157966614,
				-1.7695622444152832
			]
		},
		{
			"mesh":24,
			"name":"Cube.015",
			"rotation":[
				0.03224817290902138,
				0,
				0,
				0.9994798898696899
			],
			"scale":[
				0.022516313940286636,
				0.0107518769800663,
				0.1808793991804123
			],
			"translation":[
				-1.1840379238128662,
				0.24984149634838104,
				5.3498640060424805
			]
		},
		{
			"mesh":25,
			"name":"Cube.016",
			"rotation":[
				0.025865400210022926,
				0,
				0,
				0.9996654391288757
			],
			"scale":[
				0.022516313940286636,
				0.010751876048743725,
				0.1808793991804123
			],
			"translation":[
				-1.1840379238128662,
				0.22400930523872375,
				5.833138465881348
			]
		},
		{
			"mesh":26,
			"name":"Cube.017",
			"scale":[
				0.14130377769470215,
				0.14130377769470215,
				1
			],
			"translation":[
				-4.149704933166504,
				-0.07611574232578278,
				3.5750575065612793
			]
		},
		{
			"mesh":27,
			"name":"Plane",
			"translation":[
				-0.5410588979721069,
				0.3603462874889374,
				6.060351371765137
			]
		},
		{
			"mesh":28,
			"name":"Circle.011",
			"rotation":[
				0,
				-0.6895618438720703,
				0.7242268323898315,
				5.2060475042026155e-08
			],
			"translation":[
				0,
				0.8054932355880737,
				-5.276751518249512
			]
		},
		{
			"mesh":29,
			"name":"Circle.012",
			"rotation":[
				0,
				0,
				0.03939220309257507,
				0.9992238283157349
			],
			"translation":[
				-4.290215492248535,
				0.021189965307712555,
				4.616461277008057
			]
		},
		{
			"mesh":30,
			"name":"Circle.013",
			"rotation":[
				0,
				0,
				0.03862925246357918,
				0.9992536306381226
			],
			"translation":[
				-2.440507650375366,
				0.16395239531993866,
				4.56104040145874
			]
		},
		{
			"mesh":31,
			"name":"Circle.014",
			"rotation":[
				0,
				0,
				-0.03939218074083328,
				0.9992238283157349
			],
			"translation":[
				4.290215492248535,
				0.021189995110034943,
				4.616461277008057
			]
		},
		{
			"mesh":32,
			"name":"Circle.015",
			"rotation":[
				0,
				0,
				-0.03862927854061127,
				0.9992536306381226
			],
			"translation":[
				2.440507650375366,
				0.16395236551761627,
				4.56104040145874
			]
		},
		{
			"mesh":33,
			"name":"Circle.016",
			"rotation":[
				0.2837464511394501,
				0,
				0,
				0.9588994383811951
			],
			"translation":[
				-0.026173755526542664,
				2.0634522438049316,
				6.543525695800781
			]
		},
		{
			"mesh":34,
			"name":"Cube.008",
			"rotation":[
				0.7372772693634033,
				0,
				0,
				0.6755902767181396
			],
			"translation":[
				0,
				-0.14758837223052979,
				-2.7949883937835693
			]
		},
		{
			"mesh":35,
			"name":"Plane.001",
			"rotation":[
				-0.13052618503570557,
				0,
				0,
				0.9914448857307434
			],
			"scale":[
				0.010000004433095455,
				1,
				0.10000002384185791
			],
			"translation":[
				0,
				0.49241167306900024,
				-6.334988594055176
			]
		},
		{
			"mesh":36,
			"name":"Plane.002",
			"rotation":[
				-0.14937107264995575,
				0.010796318762004375,
				0.5526800751686096,
				0.819827139377594
			],
			"scale":[
				0.010000004433095455,
				1,
				0.10000001639127731
			],
			"translation":[
				-0.2737293839454651,
				0.33779340982437134,
				-6.334234714508057
			]
		},
		{
			"mesh":37,
			"name":"Plane.003",
			"rotation":[
				-0.03851686045527458,
				-0.051169782876968384,
				0.9289343357086182,
				0.36466309428215027
			],
			"scale":[
				0.010000004433095455,
				1,
				0.10000002384185791
			],
			"translation":[
				-0.27182433009147644,
				0.02935309149324894,
				-6.32078742980957
			]
		},
		{
			"mesh":38,
			"name":"Plane.004",
			"rotation":[
				0,
				0.04361953213810921,
				-0.9990482330322266,
				7.485309794219575e-08
			],
			"scale":[
				0.010000004433095455,
				1,
				0.10000002384185791
			],
			"translation":[
				0,
				-0.1306937038898468,
				-6.311468124389648
			]
		},
		{
			"mesh":39,
			"name":"Cube.020",
			"rotation":[
				0.8121440410614014,
				-0.10692079365253448,
				-0.07486677169799805,
				0.5686694979667664
			],
			"translation":[
				-1.0942000150680542,
				-0.14698144793510437,
				1.84925377368927
			]
		},
		{
			"mesh":40,
			"name":"Circle.007",
			"rotation":[
				0,
				-0.6895618438720703,
				0.7242268323898315,
				2.0403501110877187e-08
			],
			"translation":[
				-0.2226845920085907,
				-0.2071274369955063,
				-2.785815477371216
			]
		},
		{
			"mesh":41,
			"name":"Circle.017",
			"rotation":[
				0,
				-0.6895618438720703,
				0.7242268323898315,
				1.1534029731308237e-08
			],
			"translation":[
				-0.2028776854276657,
				-0.19901731610298157,
				-3.6668455600738525
			]
		},
		{
			"mesh":42,
			"name":"Circle.019",
			"rotation":[
				0,
				-0.6895618438720703,
				0.7242268323898315,
				2.0403501110877187e-08
			],
			"translation":[
				0.22268378734588623,
				-0.2071274071931839,
				-2.785816192626953
			]
		},
		{
			"mesh":43,
			"name":"Circle.021",
			"rotation":[
				0,
				-0.6895618438720703,
				0.7242268323898315,
				1.1534029731308237e-08
			],
			"translation":[
				0.20287664234638214,
				-0.19901730120182037,
				-3.6668460369110107
			]
		},
		{
			"mesh":44,
			"name":"Cube.018",
			"rotation":[
				0.8121441006660461,
				0.10692079365253448,
				0.07486677914857864,
				0.5686694383621216
			],
			"translation":[
				1.0941988229751587,
				-0.1469813883304596,
				1.849253535270691
			]
		}
	],
	"materials":[
		{
			"doubleSided":true,
			"extras":{
				"not_shadow_caster":true
			},
			"name":"Main",
			"pbrMetallicRoughness":{
				"baseColorFactor":[
					0.10428871214389801,
					0.10428871214389801,
					0.10428871214389801,
					1
				],
				"metallicFactor":0,
				"roughnessFactor":0.4033149182796478
			}
		},
		{
			"doubleSided":true,
			"name":"Material.001",
			"pbrMetallicRoughness":{
				"baseColorFactor":[
					0.03511274233460426,
					0.03511274233460426,
					0.03511274233460426,
					1
				],
				"metallicFactor":0.6574585437774658,
				"roughnessFactor":0.3784530460834503
			}
		},
		{
			"doubleSided":true,
			"name":"Material.008",
			"pbrMetallicRoughness":{
				"baseColorFactor":[
					0.07641440629959106,
					0.07641440629959106,
					0.07641440629959106,
					1
				],
				"metallicFactor":0,
				"roughnessFactor":0.5
			}
		},
		{
			"doubleSided":true,
			"name":"Cockpit",
			"pbrMetallicRoughness":{
				"baseColorTexture":{
					"index":0
				},
				"metallicFactor":0,
				"roughnessFactor":0.5
			}
		},
		{
			"doubleSided":true,
			"name":"Screens",
			"pbrMetallicRoughness":{
				"baseColorFactor":[
					0,
					0,
					0,
					1
				],
				"metallicFactor":0,
				"roughnessFactor":0
			}
		},
		{
			"doubleSided":true,
			"name":"Material.003",
			"pbrMetallicRoughness":{
				"baseColorFactor":[
					0.011034179478883743,
					0.011034179478883743,
					0.011034179478883743,
					1
				],
				"metallicFactor":0,
				"roughnessFactor":0.8977900743484497
			}
		},
		{
			"doubleSided":true,
			"name":"Material",
			"pbrMetallicRoughness":{
				"baseColorFactor":[
					0.0004902472137473524,
					0.0004902472137473524,
					0.0004902472137473524,
					1
				],
				"metallicFactor":0,
				"roughnessFactor":0
			}
		},
		{
			"alphaMode":"BLEND",
			"doubleSided":true,
			"name":"Material.002",
			"pbrMetallicRoughness":{
				"baseColorFactor":[
					0.07641234993934631,
					0.018306337296962738,
					0.07611479610204697,
					0.3425414562225342
				],
				"metallicFactor":0,
				"roughnessFactor":0.5
			}
		},
		{
			"alphaMode":"BLEND",
			"doubleSided":true,
			"extensions":{
				"KHR_materials_specular":{
					"specularColorFactor":[
						2.0,
						2.0,
						2.0
					]
				}
			},
			"name":"Glass",
			"pbrMetallicRoughness":{
				"baseColorFactor":[
					0.01960567943751812,
					0.01960567943751812,
					0.01960567943751812,
					0.30000001192092896
				],
				"metallicFactor":0,
				"roughnessFactor":0
			}
		},
		{
			"doubleSided":true,
			"name":"Material.004",
			"pbrMetallicRoughness":{
				"baseColorFactor":[
					0.8000156879425049,
					0.4645295739173889,
					0.014731375500559807,
					1
				],
				"metallicFactor":0.9281768202781677,
				"roughnessFactor":0
			}
		},
		{
			"doubleSided":true,
			"name":"Countermeasures",
			"pbrMetallicRoughness":{
				"baseColorFactor":[
					0.04095960035920143,
					0.3882978558540344,
					0.14180836081504822,
					1
				],
				"metallicFactor":0,
				"roughnessFactor":0.5
			}
		},
		{
			"doubleSided":true,
			"name":"Material.005",
			"pbrMetallicRoughness":{
				"baseColorFactor":[
					0.2699420750141144,
					0.2699420750141144,
					0.2699420750141144,
					1
				],
				"metallicFactor":0.7237569093704224,
				"roughnessFactor":0.5
			}
		},
		{
			"doubleSided":true,
			"name":"Material.007",
			"pbrMetallicRoughness":{
				"baseColorFactor":[
					0.004530167672783136,
					0.004530167672783136,
					0.004530167672783136,
					1
				],
				"metallicFactor":0,
				"roughnessFactor":0.7928177118301392
			}
		},
		{
			"doubleSided":true,
			"emissiveFactor":[
				1,
				1,
				1
			],
			"extensions":{
				"KHR_materials_emissive_strength":{
					"emissiveStrength":50
				}
			},
			"name":"Material.006",
			"pbrMetallicRoughness":{
				"baseColorFactor":[
					0.800000011920929,
					0.800000011920929,
					0.800000011920929,
					1
				],
				"metallicFactor":0,
				"roughnessFactor":0.5
			}
		}
	],
	"meshes":[
		{
			"name":"Cube",
			"primitives":[
				{
					"attributes":{
						"POSITION":0,
						"NORMAL":1,
						"TEXCOORD_0":2
					},
					"indices":3,
					"material":0
				}
			]
		},
		{
			"name":"Cube.002",
			"primitives":[
				{
					"attributes":{
						"POSITION":4,
						"NORMAL":5,
						"TEXCOORD_0":6
					},
					"indices":7,
					"material":0
				}
			]
		},
		{
			"extras":{
				"control_surface":"CanardPort"
			},
			"name":"Mesh",
			"primitives":[
				{
					"attributes":{
						"POSITION":8,
						"NORMAL":9,
						"TEXCOORD_0":10
					},
					"indices":11,
					"material":0
				}
			]
		},
		{
			"extras":{
				"aircraft_fuselage":""
			},
			"name":"Circle.002",
			"primitives":[
				{
					"attributes":{
						"POSITION":12,
						"NORMAL":13,
						"TEXCOORD_0":14
					},
					"indices":15,
					"material":0
				},
				{
					"attributes":{
						"POSITION":16,
						"NORMAL":17,
						"TEXCOORD_0":18
					},
					"indices":19,
					"material":1
				},
				{
					"attributes":{
						"POSITION":20,
						"NORMAL":21,
						"TEXCOORD_0":22
					},
					"indices":23,
					"material":2
				}
			]
		},
		{
			"extras":{
				"light":"PositionPort"
			},
			"name":"Cube.001",
			"primitives":[
				{
					"attributes":{
						"POSITION":24,
						"NORMAL":25,
						"TEXCOORD_0":26
					},
					"indices":27
				}
			]
		},
		{
			"extras":{
				"light":"PositionStarboard"
			},
			"name":"Cube.006",
			"primitives":[
				{
					"attributes":{
						"POSITION":28,
						"NORMAL":29,
						"TEXCOORD_0":30
					},
					"indices":31
				}
			]
		},
		{
			"name":"Circle.001",
			"primitives":[
				{
					"attributes":{
						"POSITION":32,
						"NORMAL":33,
						"TEXCOORD_0":34
					},
					"indices":35,
					"material":3
				},
				{
					"attributes":{
						"POSITION":36,
						"NORMAL":37,
						"TEXCOORD_0":38
					},
					"indices":39,
					"material":4
				}
			]
		},
		{
			"name":"Circle.004",
			"primitives":[
				{
					"attributes":{
						"POSITION":40,
						"NORMAL":41,
						"TEXCOORD_0":42
					},
					"indices":43,
					"material":0
				},
				{
					"attributes":{
						"POSITION":44,
						"NORMAL":45,
						"TEXCOORD_0":46
					},
					"indices":47,
					"material":3
				}
			]
		},
		{
			"name":"Circle.005",
			"primitives":[
				{
					"attributes":{
						"POSITION":48,
						"NORMAL":49,
						"TEXCOORD_0":50
					},
					"indices":51,
					"material":0
				},
				{
					"attributes":{
						"POSITION":52,
						"NORMAL":53,
						"TEXCOORD_0":54
					},
					"indices":55,
					"material":3
				}
			]
		},
		{
			"name":"Cylinder.001",
			"primitives":[
				{
					"attributes":{
						"POSITION":56,
						"NORMAL":57,
						"TEXCOORD_0":58
					},
					"indices":59,
					"material":0
				},
				{
					"attributes":{
						"POSITION":60,
						"NORMAL":61,
						"TEXCOORD_0":62
					},
					"indices":63,
					"material":5
				}
			]
		},
		{
			"name":"Icosphere.002",
			"primitives":[
				{
					"attributes":{
						"POSITION":64,
						"NORMAL":65,
						"TEXCOORD_0":66
					},
					"indices":67,
					"material":6
				}
			]
		},
		{
			"name":"Cube.007",
			"primitives":[
				{
					"attributes":{
						"POSITION":68,
						"NORMAL":69,
						"TEXCOORD_0":70
					},
					"indices":71,
					"material":0
				}
			]
		},
		{
			"extras":{
				"not_shadow_caster":true
			},
			"name":"Circle",
			"primitives":[
				{
					"attributes":{
						"POSITION":72,
						"NORMAL":73,
						"TEXCOORD_0":74
					},
					"indices":75,
					"material":7
				}
			]
		},
		{
			"name":"Circle.007",
			"primitives":[
				{
					"attributes":{
						"POSITION":76,
						"NORMAL":77,
						"TEXCOORD_0":78
					},
					"indices":79,
					"material":3
				}
			]
		},
		{
			"extras":{
				"not_shadow_caster":true
			},
			"name":"Circle.008",
			"primitives":[
				{
					"attributes":{
						"POSITION":80,
						"NORMAL":81,
						"TEXCOORD_0":82
					},
					"indices":83,
					"material":8
				}
			]
		},
		{
			"name":"Cube.010",
			"primitives":[
				{
					"attributes":{
						"POSITION":84,
						"NORMAL":85,
						"TEXCOORD_0":86
					},
					"indices":87,
					"material":4
				},
				{
					"attributes":{
						"POSITION":88,
						"NORMAL":89,
						"TEXCOORD_0":90
					},
					"indices":91,
					"material":3
				}
			]
		},
		{
			"name":"Cube.011",
			"primitives":[
				{
					"attributes":{
						"POSITION":92,
						"NORMAL":93,
						"TEXCOORD_0":94
					},
					"indices":87,
					"material":4
				},
				{
					"attributes":{
						"POSITION":95,
						"NORMAL":96,
						"TEXCOORD_0":97
					},
					"indices":91,
					"material":3
				}
			]
		},
		{
			"extras":{
				"light":"Strobe"
			},
			"name":"Mesh",
			"primitives":[
				{
					"attributes":{
						"POSITION":98,
						"NORMAL":99,
						"TEXCOORD_0":100
					},
					"indices":101
				}
			]
		},
		{
			"extras":{
				"interface_type":"Switch",
				"operation":"StrobeLt"
			},
			"name":"Cube.013",
			"primitives":[
				{
					"attributes":{
						"POSITION":102,
						"NORMAL":103,
						"TEXCOORD_0":104
					},
					"indices":105,
					"material":3
				},
				{
					"attributes":{
						"POSITION":106,
						"NORMAL":107,
						"TEXCOORD_0":108
					},
					"indices":109
				}
			]
		},
		{
			"extras":{
				"interface_type":"Switch",
				"operation":"PositionLt"
			},
			"name":"Cube.005",
			"primitives":[
				{
					"attributes":{
						"POSITION":110,
						"NORMAL":111,
						"TEXCOORD_0":112
					},
					"indices":105,
					"material":3
				},
				{
					"attributes":{
						"POSITION":113,
						"NORMAL":114,
						"TEXCOORD_0":115
					},
					"indices":109
				}
			]
		},
		{
			"name":"Cylinder",
			"primitives":[
				{
					"attributes":{
						"POSITION":116,
						"NORMAL":117,
						"TEXCOORD_0":118
					},
					"indices":119,
					"material":0
				}
			]
		},
		{
			"name":"Circle.003",
			"primitives":[
				{
					"attributes":{
						"POSITION":120,
						"NORMAL":121,
						"TEXCOORD_0":122
					},
					"indices":123,
					"material":0
				}
			]
		},
		{
			"name":"Cube.012",
			"primitives":[
				{
					"attributes":{
						"POSITION":124,
						"NORMAL":125,
						"TEXCOORD_0":126
					},
					"indices":127,
					"material":0
				},
				{
					"attributes":{
						"POSITION":128,
						"NORMAL":129,
						"TEXCOORD_0":130
					},
					"indices":131,
					"material":9
				}
			]
		},
		{
			"extras":{
				"control_surface":"CanardStarboard"
			},
			"name":"Mesh",
			"primitives":[
				{
					"attributes":{
						"POSITION":132,
						"NORMAL":133,
						"TEXCOORD_0":134
					},
					"indices":135,
					"material":0
				}
			]
		},
		{
			"name":"Cube.015",
			"primitives":[
				{
					"attributes":{
						"POSITION":136,
						"NORMAL":137,
						"TEXCOORD_0":138
					},
					"indices":139,
					"material":10
				}
			]
		},
		{
			"name":"Cube.016",
			"primitives":[
				{
					"attributes":{
						"POSITION":140,
						"NORMAL":141,
						"TEXCOORD_0":142
					},
					"indices":139,
					"material":10
				}
			]
		},
		{
			"name":"Cube.017",
			"primitives":[
				{
					"attributes":{
						"POSITION":143,
						"NORMAL":144,
						"TEXCOORD_0":145
					},
					"indices":146,
					"material":0
				}
			]
		},
		{
			"name":"Plane",
			"primitives":[
				{
					"attributes":{
						"POSITION":147,
						"NORMAL":148,
						"TEXCOORD_0":149
					},
					"indices":150,
					"material":1
				}
			]
		},
		{
			"name":"Circle.011",
			"primitives":[
				{
					"attributes":{
						"POSITION":151,
						"NORMAL":152,
						"TEXCOORD_0":153
					},
					"indices":154,
					"material":1
				}
			]
		},
		{
			"extras":{
				"control_surface":"AileronPort"
			},
			"name":"Circle.012",
			"primitives":[
				{
					"attributes":{
						"POSITION":155,
						"NORMAL":156,
						"TEXCOORD_0":157
					},
					"indices":158,
					"material":0
				}
			]
		},
		{
			"extras":{
				"control_surface":"FlapPort"
			},
			"name":"Circle.013",
			"primitives":[
				{
					"attributes":{
						"POSITION":159,
						"NORMAL":160,
						"TEXCOORD_0":161
					},
					"indices":162,
					"material":0
				}
			]
		},
		{
			"extras":{
				"control_surface":"AileronStarboard"
			},
			"name":"Circle.014",
			"primitives":[
				{
					"attributes":{
						"POSITION":163,
						"NORMAL":164,
						"TEXCOORD_0":165
					},
					"indices":166,
					"material":0
				}
			]
		},
		{
			"extras":{
				"control_surface":"FlapStarboard"
			},
			"name":"Circle.015",
			"primitives":[
				{
					"attributes":{
						"POSITION":167,
						"NORMAL":168,
						"TEXCOORD_0":169
					},
					"indices":170,
					"material":0
				}
			]
		},
		{
			"extras":{
				"control_surface":"Rudder"
			},
			"name":"Circle.016",
			"primitives":[
				{
					"attributes":{
						"POSITION":171,
						"NORMAL":172,
						"TEXCOORD_0":173
					},
					"indices":174,
					"material":0
				}
			]
		},
		{
			"extras":{
				"ldg_gear_element":"FrontLdgGear"
			},
			"name":"Cube.009",
			"primitives":[
				{
					"attributes":{
						"POSITION":175,
						"NORMAL":176,
						"TEXCOORD_0":177
					},
					"indices":178,
					"material":11
				},
				{
					"attributes":{
						"POSITION":179,
						"NORMAL":180,
						"TEXCOORD_0":181
					},
					"indices":182,
					"material":12
				},
				{
					"attributes":{
						"POSITION":183,
						"NORMAL":184,
						"TEXCOORD_0":185
					},
					"indices":186,
					"material":13
				}
			]
		},
		{
			"name":"Plane.001",
			"primitives":[
				{
					"attributes":{
						"POSITION":187,
						"NORMAL":188,
						"TEXCOORD_0":189
					},
					"indices":190,
					"material":0
				}
			]
		},
		{
			"name":"Plane.002",
			"primitives":[
				{
					"attributes":{
						"POSITION":191,
						"NORMAL":192,
						"TEXCOORD_0":193
					},
					"indices":194,
					"material":0
				}
			]
		},
		{
			"name":"Plane.003",
			"primitives":[
				{
					"attributes":{
						"POSITION":195,
						"NORMAL":196,
						"TEXCOORD_0":197
					},
					"indices":198,
					"material":0
				}
			]
		},
		{
			"name":"Plane.004",
			"primitives":[
				{
					"attributes":{
						"POSITION":199,
						"NORMAL":200,
						"TEXCOORD_0":201
					},
					"indices":190,
					"material":0
				}
			]
		},
		{
			"extras":{
				"ldg_gear_element":"PortLdgGear"
			},
			"name":"Cube.018",
			"primitives":[
				{
					"attributes":{
						"POSITION":202,
						"NORMAL":203,
						"TEXCOORD_0":204
					},
					"indices":205,
					"material":11
				},
				{
					"attributes":{
						"POSITION":206,
						"NORMAL":207,
						"TEXCOORD_0":208
					},
					"indices":209,
					"material":12
				}
			]
		},
		{
			"extras":{
				"ldg_gear_element":"FrontLdgGearDoorAftLeft"
			},
			"name":"Circle.018",
			"primitives":[
				{
					"attributes":{
						"POSITION":210,
						"NORMAL":211,
						"TEXCOORD_0":212
					},
					"indices":213,
					"material":0
				}
			]
		},
		{
			"extras":{
				"ldg_gear_element":"FrontLdgGearDoorFrontLeft"
			},
			"name":"Circle.019",
			"primitives":[
				{
					"attributes":{
						"POSITION":214,
						"NORMAL":215,
						"TEXCOORD_0":216
					},
					"indices":217,
					"material":0
				}
			]
		},
		{
			"extras":{
				"ldg_gear_element":"FrontLdgGearDoorAftRight"
			},
			"name":"Circle.020",
			"primitives":[
				{
					"attributes":{
						"POSITION":218,
						"NORMAL":219,
						"TEXCOORD_0":220
					},
					"indices":221,
					"material":0
				}
			]
		},
		{
			"extras":{
				"ldg_gear_element":"FrontLdgGearDoorFrontRight"
			},
			"name":"Circle.022",
			"primitives":[
				{
					"attributes":{
						"POSITION":222,
						"NORMAL":223,
						"TEXCOORD_0":224
					},
					"indices":225,
					"material":0
				}
			]
		},
		{
			"extras":{
				"ldg_gear_element":"StarboardLdgGear"
			},
			"name":"Cube.021",
			"primitives":[
				{
					"attributes":{
						"POSITION":226,
						"NORMAL":227,
						"TEXCOORD_0":228
					},
					"indices":229,
					"material":11
				},
				{
					"attributes":{
						"POSITION":230,
						"NORMAL":231,
						"TEXCOORD_0":232
					},
					"indices":233,
					"material":12
				}
			]
		}
	],
	"textures":[
		{
			"sampler":0,
			"source":0
		}
	],
	"images":[
		{
			"mimeType":"image/png",
			"name":"cockpit_texture",
			"uri":"cockpit_texture.png"
		}
	],
	"accessors":[
		{
			"bufferView":0,
			"componentType":5126,
			"count":534,
			"max":[
				0.10566750168800354,
				0.13954181969165802,
				0.9460692405700684
			],
			"min":[
				-0.10566750168800354,
				-0.13954181969165802,
				-0.859311580657959
			],
			"type":"VEC3"
		},
		{
			"bufferView":1,
			"componentType":5126,
			"count":534,
			"type":"VEC3"
		},
		{
			"bufferView":2,
			"componentType":5126,
			"count":534,
			"type":"VEC2"
		},
		{
			"bufferView":3,
			"componentType":5123,
			"count":2916,
			"type":"SCALAR"
		},
		{
			"bufferView":4,
			"componentType":5126,
			"count":564,
			"max":[
				0.6502176523208618,
				0.47092923521995544,
				1.4467295408248901
			],
			"min":[
				-92.5570068359375,
				-0.470929354429245,
				-1.5595041513442993
			],
			"type":"VEC3"
		},
		{
			"bufferView":5,
			"componentType":5126,
			"count":564,
			"type":"VEC3"
		},
		{
			"bufferView":6,
			"componentType":5126,
			"count":564,
			"type":"VEC2"
		},
		{
			"bufferView":7,
			"componentType":5123,
			"count":2208,
			"type":"SCALAR"
		},
		{
			"bufferView":8,
			"componentType":5126,
			"count":269,
			"max":[
				1.2880609035491943,
				0.03126959875226021,
				0.620364785194397
			],
			"min":[
				-0.005034565459936857,
				-0.030965356156229973,
				-1.027670979499817
			],
			"type":"VEC3"
		},
		{
			"bufferView":9,
			"componentType":5126,
			"count":269,
			"type":"VEC3"
		},
		{
			"bufferView":10,
			"componentType":5126,
			"count":269,
			"type":"VEC2"
		},
		{
			"bufferView":11,
			"componentType":5123,
			"count":1344,
			"type":"SCALAR"
		},
		{
			"bufferView":12,
			"componentType":5126,
			"count":14806,
			"max":[
				5.214786529541016,
				2.908015727996826,
				12.855475425720215
			],
			"min":[
				-5.214786529541016,
				-1.2728086709976196,
				-0.7164434790611267
			],
			"type":"VEC3"
		},
		{
			"bufferView":13,
			"componentType":5126,
			"count":14806,
			"type":"VEC3"
		},
		{
			"bufferView":14,
			"componentType":5126,
			"count":14806,
			"type":"VEC2"
		},
		{
			"bufferView":15,
			"componentType":5123,
			"count":81168,
			"type":"SCALAR"
		},
		{
			"bufferView":16,
			"componentType":5126,
			"count":1440,
			"max":[
				1.0036194324493408,
				0.01797979697585106,
				11.29321002960205
			],
			"min":[
				-1.0036194324493408,
				-0.9123359322547913,
				6.746222019195557
			],
			"type":"VEC3"
		},
		{
			"bufferView":17,
			"componentType":5126,
			"count":1440,
			"type":"VEC3"
		},
		{
			"bufferView":18,
			"componentType":5126,
			"count":1440,
			"type":"VEC2"
		},
		{
			"bufferView":19,
			"componentType":5123,
			"count":6912,
			"type":"SCALAR"
		},
		{
			"bufferView":20,
			"componentType":5126,
			"count":1990,
			"max":[
				0.3941308259963989,
				-0.17824861407279968,
				-0.6678738594055176
			],
			"min":[
				-0.3941308557987213,
				-0.962314248085022,
				-2.412095785140991
			],
			"type":"VEC3"
		},
		{
			"bufferView":21,
			"componentType":5126,
			"count":1990,
			"type":"VEC3"
		},
		{
			"bufferView":22,
			"componentType":5126,
			"count":1990,
			"type":"VEC2"
		},
		{
			"bufferView":23,
			"componentType":5123,
			"count":10224,
			"type":"SCALAR"
		},
		{
			"bufferView":24,
			"componentType":5126,
			"count":24,
			"max":[
				0.025134751573204994,
				0.007080839481204748,
				0.09323787689208984
			],
			"min":[
				-0.015233329497277737,
				-0.0066493721678853035,
				-0.09326519072055817
			],
			"type":"VEC3"
		},
		{
			"bufferView":25,
			"componentType":5126,
			"count":24,
			"type":"VEC3"
		},
		{
			"bufferView":26,
			"componentType":5126,
			"count":24,
			"type":"VEC2"
		},
		{
			"bufferView":27,
			"componentType":5123,
			"count":36,
			"type":"SCALAR"
		},
		{
			"bufferView":28,
			"componentType":5126,
			"count":24,
			"max":[
				0.0939563736319542,
				0.014033966697752476,
				0.033116962760686874
			],
			"min":[
				-0.09509899467229843,
				-0.011273429729044437,
				-0.02289246767759323
			],
			"type":"VEC3"
		},
		{
			"bufferView":29,
			"componentType":5126,
			"count":24,
			"type":"VEC3"
		},
		{
			"bufferView":30,
			"componentType":5126,
			"count":24,
			"type":"VEC2"
		},
		{
			"bufferView":31,
			"componentType":5123,
			"count":36,
			"type":"SCALAR"
		},
		{
			"bufferView":32,
			"componentType":5126,
			"count":1978,
			"max":[
				0.47176593542099,
				0.007911221124231815,
				0.579876184463501
			],
			"min":[
				-0.47176593542099,
				-4.090123653411865,
				-0.45539140701293945
			],
			"type":"VEC3"
		},
		{
			"bufferView":33,
			"componentType":5126,
			"count":1978,
			"type":"VEC3"
		},
		{
			"bufferView":34,
			"componentType":5126,
			"count":1978,
			"type":"VEC2"
		},
		{
			"bufferView":35,
			"componentType":5123,
			"count":8496,
			"type":"SCALAR"
		},
		{
			"bufferView":36,
			"componentType":5126,
			"count":20,
			"max":[
				0.057618677616119385,
				-1.4121558666229248,
				-0.055244080722332
			],
			"min":[
				-0.057618677616119385,
				-1.417676568031311,
				-0.1677551418542862
			],
			"type":"VEC3"
		},
		{
			"bufferView":37,
			"componentType":5126,
			"count":20,
			"type":"VEC3"
		},
		{
			"bufferView":38,
			"componentType":5126,
			"count":20,
			"type":"VEC2"
		},
		{
			"bufferView":39,
			"componentType":5123,
			"count":48,
			"type":"SCALAR"
		},
		{
			"bufferView":40,
			"componentType":5126,
			"count":696,
			"max":[
				0.43533873558044434,
				-0.009611322544515133,
				0.07837552577257156
			],
			"min":[
				-0.43533605337142944,
				-1.3397051095962524,
				-0.535491943359375
			],
			"type":"VEC3"
		},
		{
			"bufferView":41,
			"componentType":5126,
			"count":696,
			"type":"VEC3"
		},
		{
			"bufferView":42,
			"componentType":5126,
			"count":696,
			"type":"VEC2"
		},
		{
			"bufferView":43,
			"componentType":5123,
			"count":1944,
			"type":"SCALAR"
		},
		{
			"bufferView":44,
			"componentType":5126,
			"count":285,
			"max":[
				0.4326675236225128,
				-0.009994983673095703,
				0.07885328680276871
			],
			"min":[
				-0.43266749382019043,
				-1.3397051095962524,
				-0.5335586667060852
			],
			"type":"VEC3"
		},
		{
			"bufferView":45,
			"componentType":5126,
			"count":285,
			"type":"VEC3"
		},
		{
			"bufferView":46,
			"componentType":5126,
			"count":285,
			"type":"VEC2"
		},
		{
			"bufferView":47,
			"componentType":5123,
			"count":804,
			"type":"SCALAR"
		},
		{
			"bufferView":48,
			"componentType":5126,
			"count":1106,
			"max":[
				0.4752509295940399,
				-1.1621657609939575,
				0.07815124094486237
			],
			"min":[
				-0.4752509295940399,
				-4.090668201446533,
				-0.6694432497024536
			],
			"type":"VEC3"
		},
		{
			"bufferView":49,
			"componentType":5126,
			"count":1106,
			"type":"VEC3"
		},
		{
			"bufferView":50,
			"componentType":5126,
			"count":1106,
			"type":"VEC2"
		},
		{
			"bufferView":51,
			"componentType":5123,
			"count":3246,
			"type":"SCALAR"
		},
		{
			"bufferView":52,
			"componentType":5126,
			"count":384,
			"max":[
				0.4716920852661133,
				-1.1630198955535889,
				0.07815124094486237
			],
			"min":[
				-0.47053664922714233,
				-4.0901265144348145,
				-0.6657530069351196
			],
			"type":"VEC3"
		},
		{
			"bufferView":53,
			"componentType":5126,
			"count":384,
			"type":"VEC3"
		},
		{
			"bufferView":54,
			"componentType":5126,
			"count":384,
			"type":"VEC2"
		},
		{
			"bufferView":55,
			"componentType":5123,
			"count":1110,
			"type":"SCALAR"
		},
		{
			"bufferView":56,
			"componentType":5126,
			"count":65,
			"max":[
				1.646430492401123,
				0.8672472238540649,
				0.9474576115608215
			],
			"min":[
				0.8500461578369141,
				-0.2912013530731201,
				0.2122192084789276
			],
			"type":"VEC3"
		},
		{
			"bufferView":57,
			"componentType":5126,
			"count":65,
			"type":"VEC3"
		},
		{
			"bufferView":58,
			"componentType":5126,
			"count":65,
			"type":"VEC2"
		},
		{
			"bufferView":59,
			"componentType":5123,
			"count":318,
			"type":"SCALAR"
		},
		{
			"bufferView":60,
			"componentType":5126,
			"count":77,
			"max":[
				1.646430492401123,
				-0.2912013530731201,
				0.35098063945770264
			],
			"min":[
				1.5076677799224854,
				-0.5123203992843628,
				0.2122192084789276
			],
			"type":"VEC3"
		},
		{
			"bufferView":61,
			"componentType":5126,
			"count":77,
			"type":"VEC3"
		},
		{
			"bufferView":62,
			"componentType":5126,
			"count":77,
			"type":"VEC2"
		},
		{
			"bufferView":63,
			"componentType":5123,
			"count":318,
			"type":"SCALAR"
		},
		{
			"bufferView":64,
			"componentType":5126,
			"count":63,
			"max":[
				0.06251576542854309,
				0.06573286652565002,
				0.06573286652565002
			],
			"min":[
				-0.06251576542854309,
				-0.06573286652565002,
				-0.06573286652565002
			],
			"type":"VEC3"
		},
		{
			"bufferView":65,
			"componentType":5126,
			"count":63,
			"type":"VEC3"
		},
		{
			"bufferView":66,
			"componentType":5126,
			"count":63,
			"type":"VEC2"
		},
		{
			"bufferView":67,
			"componentType":5123,
			"count":240,
			"type":"SCALAR"
		},
		{
			"bufferView":68,
			"componentType":5126,
			"count":32,
			"max":[
				0.4826570451259613,
				0.7901726961135864,
				0.9999998807907104
			],
			"min":[
				-0.4826570451259613,
				-2.083173990249634,
				-2.6945855617523193
			],
			"type":"VEC3"
		},
		{
			"bufferView":69,
			"componentType":5126,
			"count":32,
			"type":"VEC3"
		},
		{
			"bufferView":70,
			"componentType":5126,
			"count":32,
			"type":"VEC2"
		},
		{
			"bufferView":71,
			"componentType":5123,
			"count":60,
			"type":"SCALAR"
		},
		{
			"bufferView":72,
			"componentType":5126,
			"count":44,
			"max":[
				0.07959872484207153,
				0.004999835044145584,
				0.160050630569458
			],
			"min":[
				-0.21727560460567474,
				-1.7141728392289224e-07,
				-0.160050630569458
			],
			"type":"VEC3"
		},
		{
			"bufferView":73,
			"componentType":5126,
			"count":44,
			"type":"VEC3"
		},
		{
			"bufferView":74,
			"componentType":5126,
			"count":44,
			"type":"VEC2"
		},
		{
			"bufferView":75,
			"componentType":5123,
			"count":84,
			"type":"SCALAR"
		},
		{
			"bufferView":76,
			"componentType":5126,
			"count":48,
			"max":[
				0.09326807409524918,
				0.011993352323770523,
				0.15257181227207184
			],
			"min":[
				-0.0665367841720581,
				-0.001400289125740528,
				-0.15257181227207184
			],
			"type":"VEC3"
		},
		{
			"bufferView":77,
			"componentType":5126,
			"count":48,
			"type":"VEC3"
		},
		{
			"bufferView":78,
			"componentType":5126,
			"count":48,
			"type":"VEC2"
		},
		{
			"bufferView":79,
			"componentType":5123,
			"count":72,
			"type":"SCALAR"
		},
		{
			"bufferView":80,
			"componentType":5126,
			"count":357,
			"max":[
				0.47492972016334534,
				-0.01045149751007557,
				0.10605642944574356
			],
			"min":[
				-0.47492972016334534,
				-4.090123653411865,
				-0.6797463893890381
			],
			"type":"VEC3"
		},
		{
			"bufferView":81,
			"componentType":5126,
			"count":357,
			"type":"VEC3"
		},
		{
			"bufferView":82,
			"componentType":5126,
			"count":357,
			"type":"VEC2"
		},
		{
			"bufferView":83,
			"componentType":5123,
			"count":1920,
			"type":"SCALAR"
		},
		{
			"bufferView":84,
			"componentType":5126,
			"count":8,
			"max":[
				1.069437026977539,
				0.6261703968048096,
				0.911563515663147
			],
			"min":[
				-6.957481861114502,
				-0.9409315586090088,
				0.9115613698959351
			],
			"type":"VEC3"
		},
		{
			"bufferView":85,
			"componentType":5126,
			"count":8,
			"type":"VEC3"
		},
		{
			"bufferView":86,
			"componentType":5126,
			"count":8,
			"type":"VEC2"
		},
		{
			"bufferView":87,
			"componentType":5123,
			"count":12,
			"type":"SCALAR"
		},
		{
			"bufferView":88,
			"componentType":5126,
			"count":88,
			"max":[
				1.1285055875778198,
				0.6852389574050903,
				0.9999998807907104
			],
			"min":[
				-7.016550540924072,
				-1.0000001192092896,
				-1.0000020265579224
			],
			"type":"VEC3"
		},
		{
			"bufferView":89,
			"componentType":5126,
			"count":88,
			"type":"VEC3"
		},
		{
			"bufferView":90,
			"componentType":5126,
			"count":88,
			"type":"VEC2"
		},
		{
			"bufferView":91,
			"componentType":5123,
			"count":156,
			"type":"SCALAR"
		},
		{
			"bufferView":92,
			"componentType":5126,
			"count":8,
			"max":[
				0.4320129156112671,
				0.2411850094795227,
				0.43367719650268555
			],
			"min":[
				-12.27491569519043,
				-0.24118512868881226,
				0.433672696352005
			],
			"type":"VEC3"
		},
		{
			"bufferView":93,
			"componentType":5126,
			"count":8,
			"type":"VEC3"
		},
		{
			"bufferView":94,
			"componentType":5126,
			"count":8,
			"type":"VEC2"
		},
		{
			"bufferView":95,
			"componentType":5126,
			"count":88,
			"max":[
				0.49108147621154785,
				0.30025357007980347,
				0.5221136212348938
			],
			"min":[
				-12.333984375,
				-0.300253689289093,
				-1.4778906106948853
			],
			"type":"VEC3"
		},
		{
			"bufferView":96,
			"componentType":5126,
			"count":88,
			"type":"VEC3"
		},
		{
			"bufferView":97,
			"componentType":5126,
			"count":88,
			"type":"VEC2"
		},
		{
			"bufferView":98,
			"componentType":5126,
			"count":105,
			"max":[
				0.021820764988660812,
				0.02545897103846073,
				0.02342340163886547
			],
			"min":[
				-0.021820764988660812,
				-0.011117973364889622,
				-0.11631526052951813
			],
			"type":"VEC3"
		},
		{
			"bufferView":99,
			"componentType":5126,
			"count":105,
			"type":"VEC3"
		},
		{
			"bufferView":100,
			"componentType":5126,
			"count":105,
			"type":"VEC2"
		},
		{
			"bufferView":101,
			"componentType":5123,
			"count":480,
			"type":"SCALAR"
		},
		{
			"bufferView":102,
			"componentType":5126,
			"count":192,
			"max":[
				0.005344886798411608,
				0.043551623821258545,
				0.005344886798411608
			],
			"min":[
				-0.005344886798411608,
				0,
				-0.005344886798411608
			],
			"type":"VEC3"
		},
		{
			"bufferView":103,
			"componentType":5126,
			"count":192,
			"type":"VEC3"
		},
		{
			"bufferView":104,
			"componentType":5126,
			"count":192,
			"type":"VEC2"
		},
		{
			"bufferView":105,
			"componentType":5123,
			"count":858,
			"type":"SCALAR"
		},
		{
			"bufferView":106,
			"componentType":5126,
			"count":64,
			"max":[
				0.00296820979565382,
				0.043551623821258545,
				0.002968365792185068
			],
			"min":[
				-0.002968200948089361,
				0.04355160519480705,
				-0.002968044485896826
			],
			"type":"VEC3"
		},
		{
			"bufferView":107,
			"componentType":5126,
			"count":64,
			"type":"VEC3"
		},
		{
			"bufferView":108,
			"componentType":5126,
			"count":64,
			"type":"VEC2"
		},
		{
			"bufferView":109,
			"componentType":5123,
			"count":192,
			"type":"SCALAR"
		},
		{
			"bufferView":110,
			"componentType":5126,
			"count":192,
			"max":[
				0.005344886798411608,
				0.043551623821258545,
				0.005344886798411608
			],
			"min":[
				-0.005344886798411608,
				0,
				-0.005344886798411608
			],
			"type":"VEC3"
		},
		{
			"bufferView":111,
			"componentType":5126,
			"count":192,
			"type":"VEC3"
		},
		{
			"bufferView":112,
			"componentType":5126,
			"count":192,
			"type":"VEC2"
		},
		{
			"bufferView":113,
			"componentType":5126,
			"count":64,
			"max":[
				0.00296820979565382,
				0.043551623821258545,
				0.002968365792185068
			],
			"min":[
				-0.002968200948089361,
				0.04355160519480705,
				-0.002968044485896826
			],
			"type":"VEC3"
		},
		{
			"bufferView":114,
			"componentType":5126,
			"count":64,
			"type":"VEC3"
		},
		{
			"bufferView":115,
			"componentType":5126,
			"count":64,
			"type":"VEC2"
		},
		{
			"bufferView":116,
			"componentType":5126,
			"count":130,
			"max":[
				0.060286130756139755,
				0.10000000149011612,
				0.06028613820672035
			],
			"min":[
				-0.060286130756139755,
				-0.22256232798099518,
				-0.06028613820672035
			],
			"type":"VEC3"
		},
		{
			"bufferView":117,
			"componentType":5126,
			"count":130,
			"type":"VEC3"
		},
		{
			"bufferView":118,
			"componentType":5126,
			"count":130,
			"type":"VEC2"
		},
		{
			"bufferView":119,
			"componentType":5123,
			"count":372,
			"type":"SCALAR"
		},
		{
			"bufferView":120,
			"componentType":5126,
			"count":48,
			"max":[
				0.06958124786615372,
				0,
				0.06958124786615372
			],
			"min":[
				-0.06958124786615372,
				-0.04995817318558693,
				-0.06958124786615372
			],
			"type":"VEC3"
		},
		{
			"bufferView":121,
			"componentType":5126,
			"count":48,
			"type":"VEC3"
		},
		{
			"bufferView":122,
			"componentType":5126,
			"count":48,
			"type":"VEC2"
		},
		{
			"bufferView":123,
			"componentType":5123,
			"count":138,
			"type":"SCALAR"
		},
		{
			"bufferView":124,
			"componentType":5126,
			"count":156,
			"max":[
				0.5517264604568481,
				-0.2817784547805786,
				2.565756320953369
			],
			"min":[
				-0.5517264604568481,
				-1.7685928344726562,
				-1
			],
			"type":"VEC3"
		},
		{
			"bufferView":125,
			"componentType":5126,
			"count":156,
			"type":"VEC3"
		},
		{
			"bufferView":126,
			"componentType":5126,
			"count":156,
			"type":"VEC2"
		},
		{
			"bufferView":127,
			"componentType":5123,
			"count":264,
			"type":"SCALAR"
		},
		{
			"bufferView":128,
			"componentType":5126,
			"count":16,
			"max":[
				0.5181176066398621,
				-0.30541759729385376,
				1.1390825510025024
			],
			"min":[
				-0.5181176066398621,
				-1.3010810613632202,
				-0.962525486946106
			],
			"type":"VEC3"
		},
		{
			"bufferView":129,
			"componentType":5126,
			"count":16,
			"type":"VEC3"
		},
		{
			"bufferView":130,
			"componentType":5126,
			"count":16,
			"type":"VEC2"
		},
		{
			"bufferView":131,
			"componentType":5123,
			"count":24,
			"type":"SCALAR"
		},
		{
			"bufferView":132,
			"componentType":5126,
			"count":269,
			"max":[
				0.005327245220541954,
				0.41325390338897705,
				0.6203644275665283
			],
			"min":[
				-1.2223145961761475,
				-0.029471013695001602,
				-1.0276707410812378
			],
			"type":"VEC3"
		},
		{
			"bufferView":133,
			"componentType":5126,
			"count":269,
			"type":"VEC3"
		},
		{
			"bufferView":134,
			"componentType":5126,
			"count":269,
			"type":"VEC2"
		},
		{
			"bufferView":135,
			"componentType":5123,
			"count":1344,
			"type":"SCALAR"
		},
		{
			"bufferView":136,
			"componentType":5126,
			"count":48,
			"max":[
				106.17149353027344,
				0.9999999403953552,
				0.8073712587356567
			],
			"min":[
				-0.9999999403953552,
				-1.0000038146972656,
				-0.8073712587356567
			],
			"type":"VEC3"
		},
		{
			"bufferView":137,
			"componentType":5126,
			"count":48,
			"type":"VEC3"
		},
		{
			"bufferView":138,
			"componentType":5126,
			"count":48,
			"type":"VEC2"
		},
		{
			"bufferView":139,
			"componentType":5123,
			"count":72,
			"type":"SCALAR"
		},
		{
			"bufferView":140,
			"componentType":5126,
			"count":48,
			"max":[
				106.17147827148438,
				1.000003695487976,
				0.8073712587356567
			],
			"min":[
				-0.9999999403953552,
				-0.9999999403953552,
				-0.8073750138282776
			],
			"type":"VEC3"
		},
		{
			"bufferView":141,
			"componentType":5126,
			"count":48,
			"type":"VEC3"
		},
		{
			"bufferView":142,
			"componentType":5126,
			"count":48,
			"type":"VEC2"
		},
		{
			"bufferView":143,
			"componentType":5126,
			"count":98,
			"max":[
				59.29578399658203,
				1.0000001192092896,
				0.7726284265518188
			],
			"min":[
				-0.5612753033638,
				-0.5956198573112488,
				-1.3824700117111206
			],
			"type":"VEC3"
		},
		{
			"bufferView":144,
			"componentType":5126,
			"count":98,
			"type":"VEC3"
		},
		{
			"bufferView":145,
			"componentType":5126,
			"count":98,
			"type":"VEC2"
		},
		{
			"bufferView":146,
			"componentType":5123,
			"count":384,
			"type":"SCALAR"
		},
		{
			"bufferView":147,
			"componentType":5126,
			"count":6048,
			"max":[
				1.5493093729019165,
				0.4671931862831116,
				0.6005370020866394
			],
			"min":[
				-0.4671931564807892,
				-0.4671931862831116,
				-0.053528524935245514
			],
			"type":"VEC3"
		},
		{
			"bufferView":148,
			"componentType":5126,
			"count":6048,
			"type":"VEC3"
		},
		{
			"bufferView":149,
			"componentType":5126,
			"count":6048,
			"type":"VEC2"
		},
		{
			"bufferView":150,
			"componentType":5123,
			"count":10944,
			"type":"SCALAR"
		},
		{
			"bufferView":151,
			"componentType":5126,
			"count":310,
			"max":[
				0.7648533582687378,
				-10.973347663879395,
				1.2239421606063843
			],
			"min":[
				-0.7648533582687378,
				-11.071362495422363,
				0.7432904839515686
			],
			"type":"VEC3"
		},
		{
			"bufferView":152,
			"componentType":5126,
			"count":310,
			"type":"VEC3"
		},
		{
			"bufferView":153,
			"componentType":5126,
			"count":310,
			"type":"VEC2"
		},
		{
			"bufferView":154,
			"componentType":5123,
			"count":552,
			"type":"SCALAR"
		},
		{
			"bufferView":155,
			"componentType":5126,
			"count":24,
			"max":[
				0.9320648312568665,
				0.017043285071849823,
				0.5604764223098755
			],
			"min":[
				-0.9245902299880981,
				-0.02162141539156437,
				-0.02749079465866089
			],
			"type":"VEC3"
		},
		{
			"bufferView":156,
			"componentType":5126,
			"count":24,
			"type":"VEC3"
		},
		{
			"bufferView":157,
			"componentType":5126,
			"count":24,
			"type":"VEC2"
		},
		{
			"bufferView":158,
			"componentType":5123,
			"count":36,
			"type":"SCALAR"
		},
		{
			"bufferView":159,
			"componentType":5126,
			"count":24,
			"max":[
				0.9330357313156128,
				0.025071924552321434,
				0.7171313762664795
			],
			"min":[
				-0.9222819805145264,
				-0.025217022746801376,
				-0.027490898966789246
			],
			"type":"VEC3"
		},
		{
			"bufferView":160,
			"componentType":5126,
			"count":24,
			"type":"VEC3"
		},
		{
			"bufferView":161,
			"componentType":5126,
			"count":24,
			"type":"VEC2"
		},
		{
			"bufferView":162,
			"componentType":5123,
			"count":36,
			"type":"SCALAR"
		},
		{
			"bufferView":163,
			"componentType":5126,
			"count":24,
			"max":[
				0.9245902299880981,
				0.017043255269527435,
				0.5604764223098755
			],
			"min":[
				-0.9320648312568665,
				-0.021621445193886757,
				-0.02749079465866089
			],
			"type":"VEC3"
		},
		{
			"bufferView":164,
			"componentType":5126,
			"count":24,
			"type":"VEC3"
		},
		{
			"bufferView":165,
			"componentType":5126,
			"count":24,
			"type":"VEC2"
		},
		{
			"bufferView":166,
			"componentType":5123,
			"count":36,
			"type":"SCALAR"
		},
		{
			"bufferView":167,
			"componentType":5126,
			"count":24,
			"max":[
				0.9222819805145264,
				0.02507195435464382,
				0.7171313762664795
			],
			"min":[
				-0.9330357313156128,
				-0.02521699294447899,
				-0.027490898966789246
			],
			"type":"VEC3"
		},
		{
			"bufferView":168,
			"componentType":5126,
			"count":24,
			"type":"VEC3"
		},
		{
			"bufferView":169,
			"componentType":5126,
			"count":24,
			"type":"VEC2"
		},
		{
			"bufferView":170,
			"componentType":5123,
			"count":36,
			"type":"SCALAR"
		},
		{
			"bufferView":171,
			"componentType":5126,
			"count":8,
			"max":[
				0.05666879937052727,
				1.3572971820831299,
				0.3902912139892578
			],
			"min":[
				-0.004322868771851063,
				-1.2140470743179321,
				-7.915496826171875e-05
			],
			"type":"VEC3"
		},
		{
			"bufferView":172,
			"componentType":5126,
			"count":8,
			"type":"VEC3"
		},
		{
			"bufferView":173,
			"componentType":5126,
			"count":8,
			"type":"VEC2"
		},
		{
			"bufferView":174,
			"componentType":5123,
			"count":12,
			"type":"SCALAR"
		},
		{
			"bufferView":175,
			"componentType":5126,
			"count":820,
			"max":[
				0.18222850561141968,
				7.450580596923828e-09,
				0.1929674595594406
			],
			"min":[
				-0.18222850561141968,
				-1.334959626197815,
				-0.0881766676902771
			],
			"type":"VEC3"
		},
		{
			"bufferView":176,
			"componentType":5126,
			"count":820,
			"type":"VEC3"
		},
		{
			"bufferView":177,
			"componentType":5126,
			"count":820,
			"type":"VEC2"
		},
		{
			"bufferView":178,
			"componentType":5123,
			"count":2214,
			"type":"SCALAR"
		},
		{
			"bufferView":179,
			"componentType":5126,
			"count":1032,
			"max":[
				0.18206696212291718,
				-1.061362385749817,
				0.18542061746120453
			],
			"min":[
				-0.18206696212291718,
				-1.4434603452682495,
				-0.19667737185955048
			],
			"type":"VEC3"
		},
		{
			"bufferView":180,
			"componentType":5126,
			"count":1032,
			"type":"VEC3"
		},
		{
			"bufferView":181,
			"componentType":5126,
			"count":1032,
			"type":"VEC2"
		},
		{
			"bufferView":182,
			"componentType":5123,
			"count":3840,
			"type":"SCALAR"
		},
		{
			"bufferView":183,
			"componentType":5126,
			"count":8,
			"max":[
				0.15793588757514954,
				-0.5584549307823181,
				-0.011306613683700562
			],
			"min":[
				-0.15793588757514954,
				-0.7300416231155396,
				-0.06455135345458984
			],
			"type":"VEC3"
		},
		{
			"bufferView":184,
			"componentType":5126,
			"count":8,
			"type":"VEC3"
		},
		{
			"bufferView":185,
			"componentType":5126,
			"count":8,
			"type":"VEC2"
		},
		{
			"bufferView":186,
			"componentType":5123,
			"count":12,
			"type":"SCALAR"
		},
		{
			"bufferView":187,
			"componentType":5126,
			"count":24,
			"max":[
				1,
				0.022195860743522644,
				1.8168017864227295
			],
			"min":[
				-1,
				-1.862645149230957e-09,
				-1
			],
			"type":"VEC3"
		},
		{
			"bufferView":188,
			"componentType":5126,
			"count":24,
			"type":"VEC3"
		},
		{
			"bufferView":189,
			"componentType":5126,
			"count":24,
			"type":"VEC2"
		},
		{
			"bufferView":190,
			"componentType":5123,
			"count":36,
			"type":"SCALAR"
		},
		{
			"bufferView":191,
			"componentType":5126,
			"count":48,
			"max":[
				24.922103881835938,
				0.022195860743522644,
				1.8168017864227295
			],
			"min":[
				-1,
				-0.5550128817558289,
				-1.7749934196472168
			],
			"type":"VEC3"
		},
		{
			"bufferView":192,
			"componentType":5126,
			"count":48,
			"type":"VEC3"
		},
		{
			"bufferView":193,
			"componentType":5126,
			"count":48,
			"type":"VEC2"
		},
		{
			"bufferView":194,
			"componentType":5123,
			"count":72,
			"type":"SCALAR"
		},
		{
			"bufferView":195,
			"componentType":5126,
			"count":48,
			"max":[
				1,
				0.022195860743522644,
				1.8168017864227295
			],
			"min":[
				-44.246578216552734,
				-0.4026715159416199,
				-1.5841267108917236
			],
			"type":"VEC3"
		},
		{
			"bufferView":196,
			"componentType":5126,
			"count":48,
			"type":"VEC3"
		},
		{
			"bufferView":197,
			"componentType":5126,
			"count":48,
			"type":"VEC2"
		},
		{
			"bufferView":198,
			"componentType":5123,
			"count":72,
			"type":"SCALAR"
		},
		{
			"bufferView":199,
			"componentType":5126,
			"count":24,
			"max":[
				1,
				0.022195860743522644,
				1.8168017864227295
			],
			"min":[
				-1,
				-1.862645149230957e-09,
				-1
			],
			"type":"VEC3"
		},
		{
			"bufferView":200,
			"componentType":5126,
			"count":24,
			"type":"VEC3"
		},
		{
			"bufferView":201,
			"componentType":5126,
			"count":24,
			"type":"VEC2"
		},
		{
			"bufferView":202,
			"componentType":5126,
			"count":400,
			"max":[
				0.0707465410232544,
				0.00595734640955925,
				0.25681644678115845
			],
			"min":[
				-0.3029972016811371,
				-1.2960971593856812,
				-0.07337655872106552
			],
			"type":"VEC3"
		},
		{
			"bufferView":203,
			"componentType":5126,
			"count":400,
			"type":"VEC3"
		},
		{
			"bufferView":204,
			"componentType":5126,
			"count":400,
			"type":"VEC2"
		},
		{
			"bufferView":205,
			"componentType":5123,
			"count":1752,
			"type":"SCALAR"
		},
		{
			"bufferView":206,
			"componentType":5126,
			"count":420,
			"max":[
				0.05473720282316208,
				-0.7431532144546509,
				0.4738180637359619
			],
			"min":[
				-0.3583243191242218,
				-1.4952067136764526,
				-0.29037800431251526
			],
			"type":"VEC3"
		},
		{
			"bufferView":207,
			"componentType":5126,
			"count":420,
			"type":"VEC3"
		},
		{
			"bufferView":208,
			"componentType":5126,
			"count":420,
			"type":"VEC2"
		},
		{
			"bufferView":209,
			"componentType":5123,
			"count":1920,
			"type":"SCALAR"
		},
		{
			"bufferView":210,
			"componentType":5126,
			"count":42,
			"max":[
				0.0017052888870239258,
				0.17822003364562988,
				0.101177878677845
			],
			"min":[
				-0.22207748889923096,
				-0.34126389026641846,
				-0.008801665157079697
			],
			"type":"VEC3"
		},
		{
			"bufferView":211,
			"componentType":5126,
			"count":42,
			"type":"VEC3"
		},
		{
			"bufferView":212,
			"componentType":5126,
			"count":42,
			"type":"VEC2"
		},
		{
			"bufferView":213,
			"componentType":5123,
			"count":180,
			"type":"SCALAR"
		},
		{
			"bufferView":214,
			"componentType":5126,
			"count":35,
			"max":[
				0.016955092549324036,
				0.732424259185791,
				0.1294039487838745
			],
			"min":[
				-0.2023206353187561,
				-0.7324233055114746,
				-0.04247457906603813
			],
			"type":"VEC3"
		},
		{
			"bufferView":215,
			"componentType":5126,
			"count":35,
			"type":"VEC3"
		},
		{
			"bufferView":216,
			"componentType":5126,
			"count":35,
			"type":"VEC2"
		},
		{
			"bufferView":217,
			"componentType":5123,
			"count":144,
			"type":"SCALAR"
		},
		{
			"bufferView":218,
			"componentType":5126,
			"count":42,
			"max":[
				0.22207753360271454,
				0.17821934819221497,
				0.1011778712272644
			],
			"min":[
				-0.001705259084701538,
				-0.3412645757198334,
				-0.008801636286079884
			],
			"type":"VEC3"
		},
		{
			"bufferView":219,
			"componentType":5126,
			"count":42,
			"type":"VEC3"
		},
		{
			"bufferView":220,
			"componentType":5126,
			"count":42,
			"type":"VEC2"
		},
		{
			"bufferView":221,
			"componentType":5123,
			"count":180,
			"type":"SCALAR"
		},
		{
			"bufferView":222,
			"componentType":5126,
			"count":36,
			"max":[
				0.20232072472572327,
				0.7324237823486328,
				0.12940388917922974
			],
			"min":[
				-0.016955018043518066,
				-0.7324237823486328,
				-0.04247459024190903
			],
			"type":"VEC3"
		},
		{
			"bufferView":223,
			"componentType":5126,
			"count":36,
			"type":"VEC3"
		},
		{
			"bufferView":224,
			"componentType":5126,
			"count":36,
			"type":"VEC2"
		},
		{
			"bufferView":225,
			"componentType":5123,
			"count":144,
			"type":"SCALAR"
		},
		{
			"bufferView":226,
			"componentType":5126,
			"count":400,
			"max":[
				0.3029983639717102,
				0.00595736363902688,
				0.25681713223457336
			],
			"min":[
				-0.07074674218893051,
				-1.2960975170135498,
				-0.0733758881688118
			],
			"type":"VEC3"
		},
		{
			"bufferView":227,
			"componentType":5126,
			"count":400,
			"type":"VEC3"
		},
		{
			"bufferView":228,
			"componentType":5126,
			"count":400,
			"type":"VEC2"
		},
		{
			"bufferView":229,
			"componentType":5123,
			"count":1752,
			"type":"SCALAR"
		},
		{
			"bufferView":230,
			"componentType":5126,
			"count":420,
			"max":[
				0.3583255410194397,
				-0.74315345287323,
				0.47381874918937683
			],
			"min":[
				-0.054736196994781494,
				-1.4952069520950317,
				-0.29037734866142273
			],
			"type":"VEC3"
		},
		{
			"bufferView":231,
			"componentType":5126,
			"count":420,
			"type":"VEC3"
		},
		{
			"bufferView":232,
			"componentType":5126,
			"count":420,
			"type":"VEC2"
		},
		{
			"bufferView":233,
			"componentType":5123,
			"count":1920,
			"type":"SCALAR"
		}
	],
	"bufferViews":[
		{
			"buffer":0,
			"byteLength":6408,
			"byteOffset":0,
			"target":34962
		},
		{
			"buffer":0,
			"byteLength":6408,
			"byteOffset":6408,
			"target":34962
		},
		{
			"buffer":0,
			"byteLength":4272,
			"byteOffset":12816,
			"target":34962
		},
		{
			"buffer":0,
			"byteLength":5832,
			"byteOffset":17088,
			"target":34963
		},
		{
			"buffer":0,
			"byteLength":6768,
			"byteOffset":22920,
			"target":34962
		},
		{
			"buffer":0,
			"byteLength":6768,
			"byteOffset":29688,
			"target":34962
		},
		{
			"buffer":0,
			"byteLength":4512,
			"byteOffset":36456,
			"target":34962
		},
		{
			"buffer":0,
			"byteLength":4416,
			"byteOffset":40968,
			"target":34963
		},
		{
			"buffer":0,
			"byteLength":3228,
			"byteOffset":45384,
			"target":34962
		},
		{
			"buffer":0,
			"byteLength":3228,
			"byteOffset":48612,
			"target":34962
		},
		{
			"buffer":0,
			"byteLength":2152,
			"byteOffset":51840,
			"target":34962
		},
		{
			"buffer":0,
			"byteLength":2688,
			"byteOffset":53992,
			"target":34963
		},
		{
			"buffer":0,
			"byteLength":177672,
			"byteOffset":56680,
			"target":34962
		},
		{
			"buffer":0,
			"byteLength":177672,
			"byteOffset":234352,
			"target":34962
		},
		{
			"buffer":0,
			"byteLength":118448,
			"byteOffset":412024,
			"target":34962
		},
		{
			"buffer":0,
			"byteLength":162336,
			"byteOffset":530472,
			"target":34963
		},
		{
			"buffer":0,
			"byteLength":17280,
			"byteOffset":692808,
			"target":34962
		},
		{
			"buffer":0,
			"byteLength":17280,
			"byteOffset":710088,
			"target":34962
		},
		{
			"buffer":0,
			"byteLength":11520,
			"byteOffset":727368,
			"target":34962
		},
		{
			"buffer":0,
			"byteLength":13824,
			"byteOffset":738888,
			"target":34963
		},
		{
			"buffer":0,
			"byteLength":23880,
			"byteOffset":752712,
			"target":34962
		},
		{
			"buffer":0,
			"byteLength":23880,
			"byteOffset":776592,
			"target":34962
		},
		{
			"buffer":0,
			"byteLength":15920,
			"byteOffset":800472,
			"target":34962
		},
		{
			"buffer":0,
			"byteLength":20448,
			"byteOffset":816392,
			"target":34963
		},
		{
			"buffer":0,
			"byteLength":288,
			"byteOffset":836840,
			"target":34962
		},
		{
			"buffer":0,
			"byteLength":288,
			"byteOffset":837128,
			"target":34962
		},
		{
			"buffer":0,
			"byteLength":192,
			"byteOffset":837416,
			"target":34962
		},
		{
			"buffer":0,
			"byteLength":72,
			"byteOffset":837608,
			"target":34963
		},
		{
			"buffer":0,
			"byteLength":288,
			"byteOffset":837680,
			"target":34962
		},
		{
			"buffer":0,
			"byteLength":288,
			"byteOffset":837968,
			"target":34962
		},
		{
			"buffer":0,
			"byteLength":192,
			"byteOffset":838256,
			"target":34962
		},
		{
			"buffer":0,
			"byteLength":72,
			"byteOffset":838448,
			"target":34963
		},
		{
			"buffer":0,
			"byteLength":23736,
			"byteOffset":838520,
			"target":34962
		},
		{
			"buffer":0,
			"byteLength":23736,
			"byteOffset":862256,
			"target":34962
		},
		{
			"buffer":0,
			"byteLength":15824,
			"byteOffset":885992,
			"target":34962
		},
		{
			"buffer":0,
			"byteLength":16992,
			"byteOffset":901816,
			"target":34963
		},
		{
			"buffer":0,
			"byteLength":240,
			"byteOffset":918808,
			"target":34962
		},
		{
			"buffer":0,
			"byteLength":240,
			"byteOffset":919048,
			"target":34962
		},
		{
			"buffer":0,
			"byteLength":160,
			"byteOffset":919288,
			"target":34962
		},
		{
			"buffer":0,
			"byteLength":96,
			"byteOffset":919448,
			"target":34963
		},
		{
			"buffer":0,
			"byteLength":8352,
			"byteOffset":919544,
			"target":34962
		},
		{
			"buffer":0,
			"byteLength":8352,
			"byteOffset":927896,
			"target":34962
		},
		{
			"buffer":0,
			"byteLength":5568,
			"byteOffset":936248,
			"target":34962
		},
		{
			"buffer":0,
			"byteLength":3888,
			"byteOffset":941816,
			"target":34963
		},
		{
			"buffer":0,
			"byteLength":3420,
			"byteOffset":945704,
			"target":34962
		},
		{
			"buffer":0,
			"byteLength":3420,
			"byteOffset":949124,
			"target":34962
		},
		{
			"buffer":0,
			"byteLength":2280,
			"byteOffset":952544,
			"target":34962
		},
		{
			"buffer":0,
			"byteLength":1608,
			"byteOffset":954824,
			"target":34963
		},
		{
			"buffer":0,
			"byteLength":13272,
			"byteOffset":956432,
			"target":34962
		},
		{
			"buffer":0,
			"byteLength":13272,
			"byteOffset":969704,
			"target":34962
		},
		{
			"buffer":0,
			"byteLength":8848,
			"byteOffset":982976,
			"target":34962
		},
		{
			"buffer":0,
			"byteLength":6492,
			"byteOffset":991824,
			"target":34963
		},
		{
			"buffer":0,
			"byteLength":4608,
			"byteOffset":998316,
			"target":34962
		},
		{
			"buffer":0,
			"byteLength":4608,
			"byteOffset":1002924,
			"target":34962
		},
		{
			"buffer":0,
			"byteLength":3072,
			"byteOffset":1007532,
			"target":34962
		},
		{
			"buffer":0,
			"byteLength":2220,
			"byteOffset":1010604,
			"target":34963
		},
		{
			"buffer":0,
			"byteLength":780,
			"byteOffset":1012824,
			"target":34962
		},
		{
			"buffer":0,
			"byteLength":780,
			"byteOffset":1013604,
			"target":34962
		},
		{
			"buffer":0,
			"byteLength":520,
			"byteOffset":1014384,
			"target":34962
		},
		{
			"buffer":0,
			"byteLength":636,
			"byteOffset":1014904,
			"target":34963
		},
		{
			"buffer":0,
			"byteLength":924,
			"byteOffset":1015540,
			"target":34962
		},
		{
			"buffer":0,
			"byteLength":924,
			"byteOffset":1016464,
			"target":34962
		},
		{
			"buffer":0,
			"byteLength":616,
			"byteOffset":1017388,
			"target":34962
		},
		{
			"buffer":0,
			"byteLength":636,
			"byteOffset":1018004,
			"target":34963
		},
		{
			"buffer":0,
			"byteLength":756,
			"byteOffset":1018640,
			"target":34962
		},
		{
			"buffer":0,
			"byteLength":756,
			"byteOffset":1019396,
			"target":34962
		},
		{
			"buffer":0,
			"byteLength":504,
			"byteOffset":1020152,
			"target":34962
		},
		{
			"buffer":0,
			"byteLength":480,
			"byteOffset":1020656,
			"target":34963
		},
		{
			"buffer":0,
			"byteLength":384,
			"byteOffset":1021136,
			"target":34962
		},
		{
			"buffer":0,
			"byteLength":384,
			"byteOffset":1021520,
			"target":34962
		},
		{
			"buffer":0,
			"byteLength":256,
			"byteOffset":1021904,
			"target":34962
		},
		{
			"buffer":0,
			"byteLength":120,
			"byteOffset":1022160,
			"target":34963
		},
		{
			"buffer":0,
			"byteLength":528,
			"byteOffset":1022280,
			"target":34962
		},
		{
			"buffer":0,
			"byteLength":528,
			"byteOffset":1022808,
			"target":34962
		},
		{
			"buffer":0,
			"byteLength":352,
			"byteOffset":1023336,
			"target":34962
		},
		{
			"buffer":0,
			"byteLength":168,
			"byteOffset":1023688,
			"target":34963
		},
		{
			"buffer":0,
			"byteLength":576,
			"byteOffset":1023856,
			"target":34962
		},
		{
			"buffer":0,
			"byteLength":576,
			"byteOffset":1024432,
			"target":34962
		},
		{
			"buffer":0,
			"byteLength":384,
			"byteOffset":1025008,
			"target":34962
		},
		{
			"buffer":0,
			"byteLength":144,
			"byteOffset":1025392,
			"target":34963
		},
		{
			"buffer":0,
			"byteLength":4284,
			"byteOffset":1025536,
			"target":34962
		},
		{
			"buffer":0,
			"byteLength":4284,
			"byteOffset":1029820,
			"target":34962
		},
		{
			"buffer":0,
			"byteLength":2856,
			"byteOffset":1034104,
			"target":34962
		},
		{
			"buffer":0,
			"byteLength":3840,
			"byteOffset":1036960,
			"target":34963
		},
		{
			"buffer":0,
			"byteLength":96,
			"byteOffset":1040800,
			"target":34962
		},
		{
			"buffer":0,
			"byteLength":96,
			"byteOffset":1040896,
			"target":34962
		},
		{
			"buffer":0,
			"byteLength":64,
			"byteOffset":1040992,
			"target":34962
		},
		{
			"buffer":0,
			"byteLength":24,
			"byteOffset":1041056,
			"target":34963
		},
		{
			"buffer":0,
			"byteLength":1056,
			"byteOffset":1041080,
			"target":34962
		},
		{
			"buffer":0,
			"byteLength":1056,
			"byteOffset":1042136,
			"target":34962
		},
		{
			"buffer":0,
			"byteLength":704,
			"byteOffset":1043192,
			"target":34962
		},
		{
			"buffer":0,
			"byteLength":312,
			"byteOffset":1043896,
			"target":34963
		},
		{
			"buffer":0,
			"byteLength":96,
			"byteOffset":1044208,
			"target":34962
		},
		{
			"buffer":0,
			"byteLength":96,
			"byteOffset":1044304,
			"target":34962
		},
		{
			"buffer":0,
			"byteLength":64,
			"byteOffset":1044400,
			"target":34962
		},
		{
			"buffer":0,
			"byteLength":1056,
			"byteOffset":1044464,
			"target":34962
		},
		{
			"buffer":0,
			"byteLength":1056,
			"byteOffset":1045520,
			"target":34962
		},
		{
			"buffer":0,
			"byteLength":704,
			"byteOffset":1046576,
			"target":34962
		},
		{
			"buffer":0,
			"byteLength":1260,
			"byteOffset":1047280,
			"target":34962
		},
		{
			"buffer":0,
			"byteLength":1260,
			"byteOffset":1048540,
			"target":34962
		},
		{
			"buffer":0,
			"byteLength":840,
			"byteOffset":1049800,
			"target":34962
		},
		{
			"buffer":0,
			"byteLength":960,
			"byteOffset":1050640,
			"target":34963
		},
		{
			"buffer":0,
			"byteLength":2304,
			"byteOffset":1051600,
			"target":34962
		},
		{
			"buffer":0,
			"byteLength":2304,
			"byteOffset":1053904,
			"target":34962
		},
		{
			"buffer":0,
			"byteLength":1536,
			"byteOffset":1056208,
			"target":34962
		},
		{
			"buffer":0,
			"byteLength":1716,
			"byteOffset":1057744,
			"target":34963
		},
		{
			"buffer":0,
			"byteLength":768,
			"byteOffset":1059460,
			"target":34962
		},
		{
			"buffer":0,
			"byteLength":768,
			"byteOffset":1060228,
			"target":34962
		},
		{
			"buffer":0,
			"byteLength":512,
			"byteOffset":1060996,
			"target":34962
		},
		{
			"buffer":0,
			"byteLength":384,
			"byteOffset":1061508,
			"target":34963
		},
		{
			"buffer":0,
			"byteLength":2304,
			"byteOffset":1061892,
			"target":34962
		},
		{
			"buffer":0,
			"byteLength":2304,
			"byteOffset":1064196,
			"target":34962
		},
		{
			"buffer":0,
			"byteLength":1536,
			"byteOffset":1066500,
			"target":34962
		},
		{
			"buffer":0,
			"byteLength":768,
			"byteOffset":1068036,
			"target":34962
		},
		{
			"buffer":0,
			"byteLength":768,
			"byteOffset":1068804,
			"target":34962
		},
		{
			"buffer":0,
			"byteLength":512,
			"byteOffset":1069572,
			"target":34962
		},
		{
			"buffer":0,
			"byteLength":1560,
			"byteOffset":1070084,
			"target":34962
		},
		{
			"buffer":0,
			"byteLength":1560,
			"byteOffset":1071644,
			"target":34962
		},
		{
			"buffer":0,
			"byteLength":1040,
			"byteOffset":1073204,
			"target":34962
		},
		{
			"buffer":0,
			"byteLength":744,
			"byteOffset":1074244,
			"target":34963
		},
		{
			"buffer":0,
			"byteLength":576,
			"byteOffset":1074988,
			"target":34962
		},
		{
			"buffer":0,
			"byteLength":576,
			"byteOffset":1075564,
			"target":34962
		},
		{
			"buffer":0,
			"byteLength":384,
			"byteOffset":1076140,
			"target":34962
		},
		{
			"buffer":0,
			"byteLength":276,
			"byteOffset":1076524,
			"target":34963
		},
		{
			"buffer":0,
			"byteLength":1872,
			"byteOffset":1076800,
			"target":34962
		},
		{
			"buffer":0,
			"byteLength":1872,
			"byteOffset":1078672,
			"target":34962
		},
		{
			"buffer":0,
			"byteLength":1248,
			"byteOffset":1080544,
			"target":34962
		},
		{
			"buffer":0,
			"byteLength":528,
			"byteOffset":1081792,
			"target":34963
		},
		{
			"buffer":0,
			"byteLength":192,
			"byteOffset":1082320,
			"target":34962
		},
		{
			"buffer":0,
			"byteLength":192,
			"byteOffset":1082512,
			"target":34962
		},
		{
			"buffer":0,
			"byteLength":128,
			"byteOffset":1082704,
			"target":34962
		},
		{
			"buffer":0,
			"byteLength":48,
			"byteOffset":1082832,
			"target":34963
		},
		{
			"buffer":0,
			"byteLength":3228,
			"byteOffset":1082880,
			"target":34962
		},
		{
			"buffer":0,
			"byteLength":3228,
			"byteOffset":1086108,
			"target":34962
		},
		{
			"buffer":0,
			"byteLength":2152,
			"byteOffset":1089336,
			"target":34962
		},
		{
			"buffer":0,
			"byteLength":2688,
			"byteOffset":1091488,
			"target":34963
		},
		{
			"buffer":0,
			"byteLength":576,
			"byteOffset":1094176,
			"target":34962
		},
		{
			"buffer":0,
			"byteLength":576,
			"byteOffset":1094752,
			"target":34962
		},
		{
			"buffer":0,
			"byteLength":384,
			"byteOffset":1095328,
			"target":34962
		},
		{
			"buffer":0,
			"byteLength":144,
			"byteOffset":1095712,
			"target":34963
		},
		{
			"buffer":0,
			"byteLength":576,
			"byteOffset":1095856,
			"target":34962
		},
		{
			"buffer":0,
			"byteLength":576,
			"byteOffset":1096432,
			"target":34962
		},
		{
			"buffer":0,
			"byteLength":384,
			"byteOffset":1097008,
			"target":34962
		},
		{
			"buffer":0,
			"byteLength":1176,
			"byteOffset":1097392,
			"target":34962
		},
		{
			"buffer":0,
			"byteLength":1176,
			"byteOffset":1098568,
			"target":34962
		},
		{
			"buffer":0,
			"byteLength":784,
			"byteOffset":1099744,
			"target":34962
		},
		{
			"buffer":0,
			"byteLength":768,
			"byteOffset":1100528,
			"target":34963
		},
		{
			"buffer":0,
			"byteLength":72576,
			"byteOffset":1101296,
			"target":34962
		},
		{
			"buffer":0,
			"byteLength":72576,
			"byteOffset":1173872,
			"target":34962
		},
		{
			"buffer":0,
			"byteLength":48384,
			"byteOffset":1246448,
			"target":34962
		},
		{
			"buffer":0,
			"byteLength":21888,
			"byteOffset":1294832,
			"target":34963
		},
		{
			"buffer":0,
			"byteLength":3720,
			"byteOffset":1316720,
			"target":34962
		},
		{
			"buffer":0,
			"byteLength":3720,
			"byteOffset":1320440,
			"target":34962
		},
		{
			"buffer":0,
			"byteLength":2480,
			"byteOffset":1324160,
			"target":34962
		},
		{
			"buffer":0,
			"byteLength":1104,
			"byteOffset":1326640,
			"target":34963
		},
		{
			"buffer":0,
			"byteLength":288,
			"byteOffset":1327744,
			"target":34962
		},
		{
			"buffer":0,
			"byteLength":288,
			"byteOffset":1328032,
			"target":34962
		},
		{
			"buffer":0,
			"byteLength":192,
			"byteOffset":1328320,
			"target":34962
		},
		{
			"buffer":0,
			"byteLength":72,
			"byteOffset":1328512,
			"target":34963
		},
		{
			"buffer":0,
			"byteLength":288,
			"byteOffset":1328584,
			"target":34962
		},
		{
			"buffer":0,
			"byteLength":288,
			"byteOffset":1328872,
			"target":34962
		},
		{
			"buffer":0,
			"byteLength":192,
			"byteOffset":1329160,
			"target":34962
		},
		{
			"buffer":0,
			"byteLength":72,
			"byteOffset":1329352,
			"target":34963
		},
		{
			"buffer":0,
			"byteLength":288,
			"byteOffset":1329424,
			"target":34962
		},
		{
			"buffer":0,
			"byteLength":288,
			"byteOffset":1329712,
			"target":34962
		},
		{
			"buffer":0,
			"byteLength":192,
			"byteOffset":1330000,
			"target":34962
		},
		{
			"buffer":0,
			"byteLength":72,
			"byteOffset":1330192,
			"target":34963
		},
		{
			"buffer":0,
			"byteLength":288,
			"byteOffset":1330264,
			"target":34962
		},
		{
			"buffer":0,
			"byteLength":288,
			"byteOffset":1330552,
			"target":34962
		},
		{
			"buffer":0,
			"byteLength":192,
			"byteOffset":1330840,
			"target":34962
		},
		{
			"buffer":0,
			"byteLength":72,
			"byteOffset":1331032,
			"target":34963
		},
		{
			"buffer":0,
			"byteLength":96,
			"byteOffset":1331104,
			"target":34962
		},
		{
			"buffer":0,
			"byteLength":96,
			"byteOffset":1331200,
			"target":34962
		},
		{
			"buffer":0,
			"byteLength":64,
			"byteOffset":1331296,
			"target":34962
		},
		{
			"buffer":0,
			"byteLength":24,
			"byteOffset":1331360,
			"target":34963
		},
		{
			"buffer":0,
			"byteLength":9840,
			"byteOffset":1331384,
			"target":34962
		},
		{
			"buffer":0,
			"byteLength":9840,
			"byteOffset":1341224,
			"target":34962
		},
		{
			"buffer":0,
			"byteLength":6560,
			"byteOffset":1351064,
			"target":34962
		},
		{
			"buffer":0,
			"byteLength":4428,
			"byteOffset":1357624,
			"target":34963
		},
		{
			"buffer":0,
			"byteLength":12384,
			"byteOffset":1362052,
			"target":34962
		},
		{
			"buffer":0,
			"byteLength":12384,
			"byteOffset":1374436,
			"target":34962
		},
		{
			"buffer":0,
			"byteLength":8256,
			"byteOffset":1386820,
			"target":34962
		},
		{
			"buffer":0,
			"byteLength":7680,
			"byteOffset":1395076,
			"target":34963
		},
		{
			"buffer":0,
			"byteLength":96,
			"byteOffset":1402756,
			"target":34962
		},
		{
			"buffer":0,
			"byteLength":96,
			"byteOffset":1402852,
			"target":34962
		},
		{
			"buffer":0,
			"byteLength":64,
			"byteOffset":1402948,
			"target":34962
		},
		{
			"buffer":0,
			"byteLength":24,
			"byteOffset":1403012,
			"target":34963
		},
		{
			"buffer":0,
			"byteLength":288,
			"byteOffset":1403036,
			"target":34962
		},
		{
			"buffer":0,
			"byteLength":288,
			"byteOffset":1403324,
			"target":34962
		},
		{
			"buffer":0,
			"byteLength":192,
			"byteOffset":1403612,
			"target":34962
		},
		{
			"buffer":0,
			"byteLength":72,
			"byteOffset":1403804,
			"target":34963
		},
		{
			"buffer":0,
			"byteLength":576,
			"byteOffset":1403876,
			"target":34962
		},
		{
			"buffer":0,
			"byteLength":576,
			"byteOffset":1404452,
			"target":34962
		},
		{
			"buffer":0,
			"byteLength":384,
			"byteOffset":1405028,
			"target":34962
		},
		{
			"buffer":0,
			"byteLength":144,
			"byteOffset":1405412,
			"target":34963
		},
		{
			"buffer":0,
			"byteLength":576,
			"byteOffset":1405556,
			"target":34962
		},
		{
			"buffer":0,
			"byteLength":576,
			"byteOffset":1406132,
			"target":34962
		},
		{
			"buffer":0,
			"byteLength":384,
			"byteOffset":1406708,
			"target":34962
		},
		{
			"buffer":0,
			"byteLength":144,
			"byteOffset":1407092,
			"target":34963
		},
		{
			"buffer":0,
			"byteLength":288,
			"byteOffset":1407236,
			"target":34962
		},
		{
			"buffer":0,
			"byteLength":288,
			"byteOffset":1407524,
			"target":34962
		},
		{
			"buffer":0,
			"byteLength":192,
			"byteOffset":1407812,
			"target":34962
		},
		{
			"buffer":0,
			"byteLength":4800,
			"byteOffset":1408004,
			"target":34962
		},
		{
			"buffer":0,
			"byteLength":4800,
			"byteOffset":1412804,
			"target":34962
		},
		{
			"buffer":0,
			"byteLength":3200,
			"byteOffset":1417604,
			"target":34962
		},
		{
			"buffer":0,
			"byteLength":3504,
			"byteOffset":1420804,
			"target":34963
		},
		{
			"buffer":0,
			"byteLength":5040,
			"byteOffset":1424308,
			"target":34962
		},
		{
			"buffer":0,
			"byteLength":5040,
			"byteOffset":1429348,
			"target":34962
		},
		{
			"buffer":0,
			"byteLength":3360,
			"byteOffset":1434388,
			"target":34962
		},
		{
			"buffer":0,
			"byteLength":3840,
			"byteOffset":1437748,
			"target":34963
		},
		{
			"buffer":0,
			"byteLength":504,
			"byteOffset":1441588,
			"target":34962
		},
		{
			"buffer":0,
			"byteLength":504,
			"byteOffset":1442092,
			"target":34962
		},
		{
			"buffer":0,
			"byteLength":336,
			"byteOffset":1442596,
			"target":34962
		},
		{
			"buffer":0,
			"byteLength":360,
			"byteOffset":1442932,
			"target":34963
		},
		{
			"buffer":0,
			"byteLength":420,
			"byteOffset":1443292,
			"target":34962
		},
		{
			"buffer":0,
			"byteLength":420,
			"byteOffset":1443712,
			"target":34962
		},
		{
			"buffer":0,
			"byteLength":280,
			"byteOffset":1444132,
			"target":34962
		},
		{
			"buffer":0,
			"byteLength":288,
			"byteOffset":1444412,
			"target":34963
		},
		{
			"buffer":0,
			"byteLength":504,
			"byteOffset":1444700,
			"target":34962
		},
		{
			"buffer":0,
			"byteLength":504,
			"byteOffset":1445204,
			"target":34962
		},
		{
			"buffer":0,
			"byteLength":336,
			"byteOffset":1445708,
			"target":34962
		},
		{
			"buffer":0,
			"byteLength":360,
			"byteOffset":1446044,
			"target":34963
		},
		{
			"buffer":0,
			"byteLength":432,
			"byteOffset":1446404,
			"target":34962
		},
		{
			"buffer":0,
			"byteLength":432,
			"byteOffset":1446836,
			"target":34962
		},
		{
			"buffer":0,
			"byteLength":288,
			"byteOffset":1447268,
			"target":34962
		},
		{
			"buffer":0,
			"byteLength":288,
			"byteOffset":1447556,
			"target":34963
		},
		{
			"buffer":0,
			"byteLength":4800,
			"byteOffset":1447844,
			"target":34962
		},
		{
			"buffer":0,
			"byteLength":4800,
			"byteOffset":1452644,
			"target":34962
		},
		{
			"buffer":0,
			"byteLength":3200,
			"byteOffset":1457444,
			"target":34962
		},
		{
			"buffer":0,
			"byteLength":3504,
			"byteOffset":1460644,
			"target":34963
		},
		{
			"buffer":0,
			"byteLength":5040,
			"byteOffset":1464148,
			"target":34962
		},
		{
			"buffer":0,
			"byteLength":5040,
			"byteOffset":1469188,
			"target":34962
		},
		{
			"buffer":0,
			"byteLength":3360,
			"byteOffset":1474228,
			"target":34962
		},
		{
			"buffer":0,
			"byteLength":3840,
			"byteOffset":1477588,
			"target":34963
		}
	],
	"samplers":[
		{
			"magFilter":9729,
			"minFilter":9987,
			"wrapS":33071,
			"wrapT":33071
		}
	],
	"buffers":[
		{
			"byteLength":1481428,
			"uri":"aeroplane.bin"
		}
	]
}
