{
	"asset":{
		"generator":"Khronos glTF Blender I/O v5.0.21",
		"version":"2.0"
	},
	"extensionsUsed":[
		"KHR_materials_emissive_strength"
	],
	"scene":0,
	"scenes":[
		{
			"name":"Scene",
			"nodes":[
				0,
				1,
				2,
				3,
				4,
				5,
				6
			]
		}
	],
	"nodes":[
		{
			"mesh":0,
			"name":"Cube",
			"translation":[
				0,
				83,
				0
			]
		},
		{
			"mesh":1,
			"name":"Cube.001",
			"scale":[
				0.11235353350639343,
				1,
				0.11235353350639343
			],
			"translation":[
				-20.041826248168945,
				94.9007568359375,
				15.256023406982422
			]
		},
		{
			"mesh":2,
			"name":"Cube.003",
			"rotation":[
				0.5,
				0.49999988079071045,
				0.5,
				0.5000001192092896
			],
			"scale":[
				0.19999998807907104,
				0.19999998807907104,
				0.19999998807907104
			],
			"translation":[
				-18.026954650878906,
				89.53472900390625,
				20.066497802734375
			]
		},
		{
			"mesh":3,
			"name":"Cube.002",
			"rotation":[
				0.70710688829422,
				0.7071066498756409,
				0,
				5.338507946817117e-08
			],
			"scale":[
				0.19999998807907104,
				0.19999998807907104,
				0.19999998807907104
			],
			"translation":[
				20.108091354370117,
				89.53472900390625,
				18.05009651184082
			]
		},
		{
			"mesh":4,
			"name":"Cube.004",
			"rotation":[
				-0.5000000596046448,
				-0.4999999403953552,
				0.4999999403953552,
				0.5000000596046448
			],
			"scale":[
				0.19999998807907104,
				0.19999998807907104,
				0.19999998807907104
			],
			"translation":[
				17.771533966064453,
				89.53472900390625,
				-20.011205673217773
			]
		},
		{
			"mesh":5,
			"name":"Cube.005",
			"rotation":[
				0,
				0,
				0.7071066498756409,
				0.70710688829422
			],
			"scale":[
				0.19999998807907104,
				0.19999998807907104,
				0.19999998807907104
			],
			"translation":[
				-20.04381561279297,
				89.53472900390625,
				-18.596973419189453
			]
		},
		{
			"mesh":6,
			"name":"Cube.006",
			"translation":[
				0,
				83,
				0
			]
		}
	],
	"materials":[
		{
			"doubleSided":true,
			"name":"Material",
			"pbrMetallicRoughness":{
				"baseColorFactor":[
					0.15123087167739868,
					0.02430359460413456,
					0.011886556632816792,
					1
				],
				"metallicFactor":0
			}
		},
		{
			"doubleSided":true,
			"name":"Material.001",
			"pbrMetallicRoughness":{
				"baseColorFactor":[
					0.011034179478883743,
					0.011034179478883743,
					0.011034179478883743,
					1
				],
				"metallicFactor":0,
				"roughnessFactor":0
			}
		},
		{
			"doubleSided":true,
			"name":"Material.002",
			"pbrMetallicRoughness":{
				"baseColorFactor":[
					0.45705586671829224,
					0.45705586671829224,
					0.45705586671829224,
					1
				],
				"roughnessFactor":0.11325967311859131
			}
		},
		{
			"doubleSided":true,
			"emissiveFactor":[
				1,
				0,
				0
			],
			"extensions":{
				"KHR_materials_emissive_strength":{
					"emissiveStrength":19.299999237060547
				}
			},
			"name":"Material.003",
			"pbrMetallicRoughness":{
				"baseColorFactor":[
					0.800000011920929,
					0.800000011920929,
					0.800000011920929,
					1
				],
				"metallicFactor":0,
				"roughnessFactor":0.5
			}
		}
	],
	"meshes":[
		{
			"name":"Cube",
			"primitives":[
				{
					"attributes":{
						"POSITION":0,
						"NORMAL":1,
						"TEXCOORD_0":2
					},
					"indices":3,
					"material":0
				},
				{
					"attributes":{
						"POSITION":4,
						"NORMAL":5,
						"TEXCOORD_0":6
					},
					"indices":7
				},
				{
					"attributes":{
						"POSITION":8,
						"NORMAL":9,
						"TEXCOORD_0":10
					},
					"indices":11,
					"material":1
				}
			]
		},
		{
			"name":"Cube.001",
			"primitives":[
				{
					"attributes":{
						"POSITION":12,
						"NORMAL":13,
						"TEXCOORD_0":14
					},
					"indices":15,
					"material":2
				},
				{
					"attributes":{
						"POSITION":16,
						"NORMAL":17,
						"TEXCOORD_0":18
					},
					"indices":19,
					"material":3
				}
			]
		},
		{
			"name":"Cube.003",
			"primitives":[
				{
					"attributes":{
						"POSITION":20,
						"NORMAL":21,
						"TEXCOORD_0":22
					},
					"indices":23,
					"material":0
				}
			]
		},
		{
			"name":"Cube.004",
			"primitives":[
				{
					"attributes":{
						"POSITION":24,
						"NORMAL":25,
						"TEXCOORD_0":26
					},
					"indices":23,
					"material":0
				}
			]
		},
		{
			"name":"Cube.005",
			"primitives":[
				{
					"attributes":{
						"POSITION":27,
						"NORMAL":28,
						"TEXCOORD_0":29
					},
					"indices":23,
					"material":0
				}
			]
		},
		{
			"name":"Cube.006",
			"primitives":[
				{
					"attributes":{
						"POSITION":30,
						"NORMAL":31,
						"TEXCOORD_0":32
					},
					"indices":23,
					"material":0
				}
			]
		},
		{
			"name":"Cube.002",
			"primitives":[
				{
					"attributes":{
						"POSITION":33,
						"NORMAL":34,
						"TEXCOORD_0":35
					},
					"indices":36
				},
				{
					"attributes":{
						"POSITION":37,
						"NORMAL":38,
						"TEXCOORD_0":39
					},
					"indices":40,
					"material":1
				}
			]
		}
	],
	"accessors":[
		{
			"bufferView":0,
			"componentType":5126,
			"count":340,
			"max":[
				21.3873233795166,
				11.03555965423584,
				21.3873233795166
			],
			"min":[
				-21.3873233795166,
				8,
				-21.3873233795166
			],
			"type":"VEC3"
		},
		{
			"bufferView":1,
			"componentType":5126,
			"count":340,
			"type":"VEC3"
		},
		{
			"bufferView":2,
			"componentType":5126,
			"count":340,
			"type":"VEC2"
		},
		{
			"bufferView":3,
			"componentType":5123,
			"count":1302,
			"type":"SCALAR"
		},
		{
			"bufferView":4,
			"componentType":5126,
			"count":720,
			"max":[
				20,
				11.900740623474121,
				20
			],
			"min":[
				-20,
				-0.5468025207519531,
				-20
			],
			"type":"VEC3"
		},
		{
			"bufferView":5,
			"componentType":5126,
			"count":720,
			"type":"VEC3"
		},
		{
			"bufferView":6,
			"componentType":5126,
			"count":720,
			"type":"VEC2"
		},
		{
			"bufferView":7,
			"componentType":5123,
			"count":1578,
			"type":"SCALAR"
		},
		{
			"bufferView":8,
			"componentType":5126,
			"count":124,
			"max":[
				19.779863357543945,
				5.863300323486328,
				20
			],
			"min":[
				-19.615564346313477,
				-0.5468025207519531,
				-19.656475067138672
			],
			"type":"VEC3"
		},
		{
			"bufferView":9,
			"componentType":5126,
			"count":124,
			"type":"VEC3"
		},
		{
			"bufferView":10,
			"componentType":5126,
			"count":124,
			"type":"VEC2"
		},
		{
			"bufferView":11,
			"componentType":5123,
			"count":216,
			"type":"SCALAR"
		},
		{
			"bufferView":12,
			"componentType":5126,
			"count":46,
			"max":[
				0.5116927623748779,
				0.999083399772644,
				0.5117144584655762
			],
			"min":[
				-0.5117361545562744,
				-1,
				-0.5117144584655762
			],
			"type":"VEC3"
		},
		{
			"bufferView":13,
			"componentType":5126,
			"count":46,
			"type":"VEC3"
		},
		{
			"bufferView":14,
			"componentType":5126,
			"count":46,
			"type":"VEC2"
		},
		{
			"bufferView":15,
			"componentType":5123,
			"count":78,
			"type":"SCALAR"
		},
		{
			"bufferView":16,
			"componentType":5126,
			"count":20,
			"max":[
				0.5116927623748779,
				1.2005876302719116,
				0.5117144584655762
			],
			"min":[
				-0.5117361545562744,
				0.999083399772644,
				-0.5117144584655762
			],
			"type":"VEC3"
		},
		{
			"bufferView":17,
			"componentType":5126,
			"count":20,
			"type":"VEC3"
		},
		{
			"bufferView":18,
			"componentType":5126,
			"count":20,
			"type":"VEC2"
		},
		{
			"bufferView":19,
			"componentType":5123,
			"count":30,
			"type":"SCALAR"
		},
		{
			"bufferView":20,
			"componentType":5126,
			"count":78,
			"max":[
				3,
				1,
				3
			],
			"min":[
				-3,
				-1,
				-3
			],
			"type":"VEC3"
		},
		{
			"bufferView":21,
			"componentType":5126,
			"count":78,
			"type":"VEC3"
		},
		{
			"bufferView":22,
			"componentType":5126,
			"count":78,
			"type":"VEC2"
		},
		{
			"bufferView":23,
			"componentType":5123,
			"count":132,
			"type":"SCALAR"
		},
		{
			"bufferView":24,
			"componentType":5126,
			"count":78,
			"max":[
				3,
				1,
				3
			],
			"min":[
				-3,
				-1,
				-3
			],
			"type":"VEC3"
		},
		{
			"bufferView":25,
			"componentType":5126,
			"count":78,
			"type":"VEC3"
		},
		{
			"bufferView":26,
			"componentType":5126,
			"count":78,
			"type":"VEC2"
		},
		{
			"bufferView":27,
			"componentType":5126,
			"count":78,
			"max":[
				3,
				1,
				3
			],
			"min":[
				-3,
				-1,
				-3
			],
			"type":"VEC3"
		},
		{
			"bufferView":28,
			"componentType":5126,
			"count":78,
			"type":"VEC3"
		},
		{
			"bufferView":29,
			"componentType":5126,
			"count":78,
			"type":"VEC2"
		},
		{
			"bufferView":30,
			"componentType":5126,
			"count":78,
			"max":[
				3,
				1,
				3
			],
			"min":[
				-3,
				-1,
				-3
			],
			"type":"VEC3"
		},
		{
			"bufferView":31,
			"componentType":5126,
			"count":78,
			"type":"VEC3"
		},
		{
			"bufferView":32,
			"componentType":5126,
			"count":78,
			"type":"VEC2"
		},
		{
			"bufferView":33,
			"componentType":5126,
			"count":7600,
			"max":[
				20,
				-0.5468025207519531,
				20
			],
			"min":[
				-20,
				-83.04374694824219,
				-20
			],
			"type":"VEC3"
		},
		{
			"bufferView":34,
			"componentType":5126,
			"count":7600,
			"type":"VEC3"
		},
		{
			"bufferView":35,
			"componentType":5126,
			"count":7600,
			"type":"VEC2"
		},
		{
			"bufferView":36,
			"componentType":5123,
			"count":16440,
			"type":"SCALAR"
		},
		{
			"bufferView":37,
			"componentType":5126,
			"count":1240,
			"max":[
				19.779863357543945,
				-2.386394500732422,
				20
			],
			"min":[
				-19.615564346313477,
				-83.04374694824219,
				-19.656475067138672
			],
			"type":"VEC3"
		},
		{
			"bufferView":38,
			"componentType":5126,
			"count":1240,
			"type":"VEC3"
		},
		{
			"bufferView":39,
			"componentType":5126,
			"count":1240,
			"type":"VEC2"
		},
		{
			"bufferView":40,
			"componentType":5123,
			"count":2160,
			"type":"SCALAR"
		}
	],
	"bufferViews":[
		{
			"buffer":0,
			"byteLength":4080,
			"byteOffset":0,
			"target":34962
		},
		{
			"buffer":0,
			"byteLength":4080,
			"byteOffset":4080,
			"target":34962
		},
		{
			"buffer":0,
			"byteLength":2720,
			"byteOffset":8160,
			"target":34962
		},
		{
			"buffer":0,
			"byteLength":2604,
			"byteOffset":10880,
			"target":34963
		},
		{
			"buffer":0,
			"byteLength":8640,
			"byteOffset":13484,
			"target":34962
		},
		{
			"buffer":0,
			"byteLength":8640,
			"byteOffset":22124,
			"target":34962
		},
		{
			"buffer":0,
			"byteLength":5760,
			"byteOffset":30764,
			"target":34962
		},
		{
			"buffer":0,
			"byteLength":3156,
			"byteOffset":36524,
			"target":34963
		},
		{
			"buffer":0,
			"byteLength":1488,
			"byteOffset":39680,
			"target":34962
		},
		{
			"buffer":0,
			"byteLength":1488,
			"byteOffset":41168,
			"target":34962
		},
		{
			"buffer":0,
			"byteLength":992,
			"byteOffset":42656,
			"target":34962
		},
		{
			"buffer":0,
			"byteLength":432,
			"byteOffset":43648,
			"target":34963
		},
		{
			"buffer":0,
			"byteLength":552,
			"byteOffset":44080,
			"target":34962
		},
		{
			"buffer":0,
			"byteLength":552,
			"byteOffset":44632,
			"target":34962
		},
		{
			"buffer":0,
			"byteLength":368,
			"byteOffset":45184,
			"target":34962
		},
		{
			"buffer":0,
			"byteLength":156,
			"byteOffset":45552,
			"target":34963
		},
		{
			"buffer":0,
			"byteLength":240,
			"byteOffset":45708,
			"target":34962
		},
		{
			"buffer":0,
			"byteLength":240,
			"byteOffset":45948,
			"target":34962
		},
		{
			"buffer":0,
			"byteLength":160,
			"byteOffset":46188,
			"target":34962
		},
		{
			"buffer":0,
			"byteLength":60,
			"byteOffset":46348,
			"target":34963
		},
		{
			"buffer":0,
			"byteLength":936,
			"byteOffset":46408,
			"target":34962
		},
		{
			"buffer":0,
			"byteLength":936,
			"byteOffset":47344,
			"target":34962
		},
		{
			"buffer":0,
			"byteLength":624,
			"byteOffset":48280,
			"target":34962
		},
		{
			"buffer":0,
			"byteLength":264,
			"byteOffset":48904,
			"target":34963
		},
		{
			"buffer":0,
			"byteLength":936,
			"byteOffset":49168,
			"target":34962
		},
		{
			"buffer":0,
			"byteLength":936,
			"byteOffset":50104,
			"target":34962
		},
		{
			"buffer":0,
			"byteLength":624,
			"byteOffset":51040,
			"target":34962
		},
		{
			"buffer":0,
			"byteLength":936,
			"byteOffset":51664,
			"target":34962
		},
		{
			"buffer":0,
			"byteLength":936,
			"byteOffset":52600,
			"target":34962
		},
		{
			"buffer":0,
			"byteLength":624,
			"byteOffset":53536,
			"target":34962
		},
		{
			"buffer":0,
			"byteLength":936,
			"byteOffset":54160,
			"target":34962
		},
		{
			"buffer":0,
			"byteLength":936,
			"byteOffset":55096,
			"target":34962
		},
		{
			"buffer":0,
			"byteLength":624,
			"byteOffset":56032,
			"target":34962
		},
		{
			"buffer":0,
			"byteLength":91200,
			"byteOffset":56656,
			"target":34962
		},
		{
			"buffer":0,
			"byteLength":91200,
			"byteOffset":147856,
			"target":34962
		},
		{
			"buffer":0,
			"byteLength":60800,
			"byteOffset":239056,
			"target":34962
		},
		{
			"buffer":0,
			"byteLength":32880,
			"byteOffset":299856,
			"target":34963
		},
		{
			"buffer":0,
			"byteLength":14880,
			"byteOffset":332736,
			"target":34962
		},
		{
			"buffer":0,
			"byteLength":14880,
			"byteOffset":347616,
			"target":34962
		},
		{
			"buffer":0,
			"byteLength":9920,
			"byteOffset":362496,
			"target":34962
		},
		{
			"buffer":0,
			"byteLength":4320,
			"byteOffset":372416,
			"target":34963
		}
	],
	"buffers":[
		{
			"byteLength":376736,
			"uri":"hospital.bin"
		}
	]
}
