{
	"asset":{
		"generator":"Khronos glTF Blender I/O v5.1.20",
		"version":"2.0"
	},
	"extensionsUsed":[
		"KHR_lights_punctual",
		"KHR_materials_transmission"
	],
	"extensionsRequired":[
		"KHR_lights_punctual"
	],
	"extensions":{
		"KHR_lights_punctual":{
			"lights":[
				{
					"color":[
						1,
						1,
						1
					],
					"intensity":5435.141306588225,
					"type":"point",
					"name":"Point.002",
					"extras":{
						"light":"PositionStarboard"
					}
				},
				{
					"color":[
						1,
						1,
						1
					],
					"intensity":5435.141306588225,
					"type":"point",
					"name":"Point.003",
					"extras":{
						"light":"PositionRear"
					}
				},
				{
					"color":[
						1,
						1,
						1
					],
					"intensity":5435.141306588225,
					"type":"point",
					"name":"Point.004",
					"extras":{
						"light":"PositionPort"
					}
				},
				{
					"color":[
						1,
						1,
						1
					],
					"intensity":5435.141306588225,
					"type":"point",
					"name":"Point.005",
					"extras":{
						"light":"AntiCol"
					}
				},
				{
					"color":[
						1,
						1,
						1
					],
					"intensity":5435.141306588225,
					"type":"point",
					"name":"Point.006",
					"extras":{
						"light":"AntiCol"
					}
				},
				{
					"color":[
						1,
						1,
						1
					],
					"intensity":5435.141306588225,
					"type":"point",
					"name":"Point.007",
					"extras":{
						"light":"Strobe"
					}
				}
			]
		}
	},
	"scene":0,
	"scenes":[
		{
			"name":"Scene",
			"nodes":[
				0,
				1,
				2,
				3,
				4,
				5,
				8,
				9,
				10,
				11,
				12,
				13,
				14,
				15,
				16,
				17,
				18,
				19,
				20,
				21,
				22,
				23,
				24,
				25,
				26,
				27,
				28,
				29,
				30,
				31,
				32,
				33,
				34,
				35,
				36,
				37,
				38,
				39,
				40,
				41,
				42,
				43,
				44,
				45,
				46,
				47,
				48,
				49,
				50,
				51,
				52,
				53,
				54,
				55,
				56,
				57,
				58
			]
		}
	],
	"nodes":[
		{
			"extensions":{
				"KHR_lights_punctual":{
					"light":0
				}
			},
			"name":"PositionStarboard",
			"rotation":[
				-0.7071068286895752,
				0,
				0,
				0.7071068286895752
			],
			"scale":[
				1.039281964302063,
				1,
				1
			],
			"translation":[
				1.4195350408554077,
				1.1999993324279785,
				5.324246883392334
			]
		},
		{
			"extensions":{
				"KHR_lights_punctual":{
					"light":1
				}
			},
			"name":"PositionPort",
			"rotation":[
				-0.7071068286895752,
				0,
				0,
				0.7071068286895752
			],
			"translation":[
				0,
				1.1983869075775146,
				9.334733009338379
			]
		},
		{
			"extensions":{
				"KHR_lights_punctual":{
					"light":2
				}
			},
			"name":"PositionRear",
			"rotation":[
				-0.7071068286895752,
				0,
				0,
				0.7071068286895752
			],
			"scale":[
				1.039281964302063,
				1,
				1
			],
			"translation":[
				-1.4195300340652466,
				1.1999993324279785,
				5.32424783706665
			]
		},
		{
			"extensions":{
				"KHR_lights_punctual":{
					"light":3
				}
			},
			"name":"PositionRear.001",
			"rotation":[
				-0.7071068286895752,
				0,
				0,
				0.7071068286895752
			],
			"translation":[
				0,
				-0.6776677966117859,
				-0.5999999046325684
			]
		},
		{
			"extensions":{
				"KHR_lights_punctual":{
					"light":4
				}
			},
			"name":"PositionRear.002",
			"rotation":[
				-0.7071068286895752,
				0,
				0,
				0.7071068286895752
			],
			"translation":[
				0,
				3.4631738662719727,
				8.179998397827148
			]
		},
		{
			"extensions":{
				"KHR_lights_punctual":{
					"light":5
				}
			},
			"name":"PositionRear.003",
			"rotation":[
				-0.7071068286895752,
				0,
				0,
				0.7071068286895752
			],
			"translation":[
				0,
				3.4274990558624268,
				8.179998397827148
			]
		},
		{
			"extras":{
				"ant_landscape":{}
			},
			"mesh":0,
			"name":"Cylinder.004",
			"translation":[
				0,
				-0.40000057220458984,
				0
			]
		},
		{
			"children":[
				6
			],
			"extras":{
				"ant_landscape":{}
			},
			"mesh":1,
			"name":"Cube.007",
			"rotation":[
				0,
				-0.5877853035926819,
				0,
				0.80901700258255
			],
			"translation":[
				0,
				3.694514036178589,
				0
			]
		},
		{
			"children":[
				7
			],
			"extras":{
				"ant_landscape":{}
			},
			"mesh":2,
			"name":"Cube",
			"translation":[
				0,
				-1.2000000476837158,
				0
			]
		},
		{
			"extras":{
				"ant_landscape":{}
			},
			"mesh":3,
			"name":"Cube.001",
			"rotation":[
				0,
				-0.7071066498756409,
				0,
				0.70710688829422
			],
			"translation":[
				0,
				1.499999761581421,
				-2.3499999046325684
			]
		},
		{
			"extras":{
				"ant_landscape":{}
			},
			"mesh":4,
			"name":"Cube.002",
			"rotation":[
				0,
				-0.7071066498756409,
				0,
				0.70710688829422
			],
			"translation":[
				0,
				-1.7000000476837158,
				7
			]
		},
		{
			"extras":{
				"ant_landscape":{}
			},
			"mesh":5,
			"name":"Cube.004",
			"rotation":[
				0.5000000596046448,
				-0.49999988079071045,
				-0.4999999403953552,
				0.5000001192092896
			],
			"translation":[
				-0.13646431267261505,
				1.2999999523162842,
				7.649999618530273
			]
		},
		{
			"extras":{
				"ant_landscape":{}
			},
			"mesh":6,
			"name":"Cylinder",
			"rotation":[
				0.5,
				-0.5,
				0.4999999403953552,
				0.5000000596046448
			],
			"translation":[
				0,
				1.2793607711791992,
				7.989136695861816
			]
		},
		{
			"extras":{
				"ant_landscape":{}
			},
			"mesh":7,
			"name":"Cube.005",
			"rotation":[
				0,
				-0.7071067094802856,
				0,
				0.7071068286895752
			],
			"translation":[
				0,
				1.2999999523162842,
				8
			]
		},
		{
			"extras":{
				"ant_landscape":{}
			},
			"mesh":8,
			"name":"Cube.006",
			"rotation":[
				0,
				-0.7071066498756409,
				0,
				0.70710688829422
			],
			"translation":[
				0,
				-1.7000000476837158,
				7
			]
		},
		{
			"extras":{
				"ant_landscape":{}
			},
			"mesh":9,
			"name":"Cylinder.001",
			"translation":[
				0,
				2.0999996662139893,
				0
			]
		},
		{
			"extras":{
				"ant_landscape":{}
			},
			"mesh":10,
			"name":"Cylinder.005",
			"translation":[
				0,
				3.3899998664855957,
				8.179999351501465
			]
		},
		{
			"extras":{
				"ant_landscape":{}
			},
			"mesh":11,
			"name":"Cylinder.007",
			"translation":[
				0,
				-0.6000000834465027,
				-0.6000000238418579
			]
		},
		{
			"extras":{
				"ant_landscape":{}
			},
			"mesh":12,
			"name":"Cube.008",
			"translation":[
				-1,
				-1.2000000476837158,
				0
			]
		},
		{
			"extras":{
				"ant_landscape":{}
			},
			"mesh":13,
			"name":"Cube.009",
			"rotation":[
				-0.4226182997226715,
				0,
				0,
				0.9063078165054321
			],
			"translation":[
				0,
				1.600000023841858,
				-2.5
			]
		},
		{
			"extras":{
				"ant_landscape":{}
			},
			"mesh":14,
			"name":"drawing",
			"rotation":[
				0.5,
				-0.4999999403953552,
				0.4999999403953552,
				0.5000001192092896
			],
			"translation":[
				-0.181906059384346,
				1.2484081983566284,
				4
			]
		},
		{
			"extras":{
				"ant_landscape":{}
			},
			"mesh":15,
			"name":"FerrisACRegistration",
			"rotation":[
				0.515034019947052,
				-0.4844997823238373,
				0.4844997227191925,
				0.5150340795516968
			],
			"translation":[
				-0.14072094857692719,
				2.5,
				8.180203437805176
			]
		},
		{
			"extras":{
				"ant_landscape":{}
			},
			"mesh":16,
			"name":"FerrisACRegistration.001",
			"rotation":[
				0.5158846974372864,
				0.48359376192092896,
				-0.48359376192092896,
				0.5158848166465759
			],
			"translation":[
				0.14072099328041077,
				2.5,
				8.180203437805176
			]
		},
		{
			"extras":{
				"ant_landscape":{}
			},
			"mesh":17,
			"name":"Cube.010",
			"rotation":[
				-0.04361938312649727,
				0,
				0,
				0.9990482330322266
			],
			"translation":[
				0,
				0.4000000059604645,
				-3.9000000953674316
			]
		},
		{
			"extras":{
				"ant_landscape":{}
			},
			"mesh":18,
			"name":"Cube.011",
			"translation":[
				0,
				1.2000000476837158,
				5.5
			]
		},
		{
			"extras":{
				"ant_landscape":{}
			},
			"mesh":19,
			"name":"Icosphere.001",
			"translation":[
				-1.3658757209777832,
				1.1999993324279785,
				5.399460792541504
			]
		},
		{
			"extras":{
				"ant_landscape":{}
			},
			"mesh":20,
			"name":"Icosphere.002",
			"translation":[
				1.3658807277679443,
				1.1999993324279785,
				5.3994598388671875
			]
		},
		{
			"extras":{
				"ant_landscape":{}
			},
			"mesh":21,
			"name":"Cube.016",
			"translation":[
				0,
				-1.2000000476837158,
				0
			]
		},
		{
			"extras":{
				"ant_landscape":{}
			},
			"mesh":22,
			"name":"Cube.021",
			"translation":[
				0.4303238093852997,
				0.2799205780029297,
				-2.806697130203247
			]
		},
		{
			"extras":{
				"ant_landscape":{}
			},
			"mesh":23,
			"name":"Cube.022",
			"rotation":[
				-0.6087615489959717,
				0,
				0,
				0.7933533787727356
			],
			"translation":[
				0.4303238093852997,
				0.7459474205970764,
				-2.4032063484191895
			]
		},
		{
			"extras":{
				"ant_landscape":{}
			},
			"mesh":24,
			"name":"Cube.023",
			"rotation":[
				-0.7047557234764099,
				0,
				0,
				0.7094501256942749
			],
			"translation":[
				0.43032383918762207,
				1.0056864023208618,
				-2.4307665824890137
			]
		},
		{
			"extras":{
				"ant_landscape":{}
			},
			"mesh":25,
			"name":"Plane",
			"translation":[
				0,
				-0.25960975885391235,
				-0.9730532169342041
			]
		},
		{
			"extras":{
				"ant_landscape":{}
			},
			"mesh":26,
			"name":"Cube.013",
			"rotation":[
				-0.08715573698282242,
				0,
				0,
				0.9961947798728943
			],
			"translation":[
				0,
				0.4437136650085449,
				-3.682326555252075
			]
		},
		{
			"extras":{
				"ant_landscape":{}
			},
			"mesh":27,
			"name":"Cube.015",
			"translation":[
				0.01877312920987606,
				0.019712477922439575,
				-3.5851409435272217
			]
		},
		{
			"extras":{
				"ant_landscape":{}
			},
			"mesh":28,
			"name":"Plane.001",
			"translation":[
				0,
				1.276442527770996,
				-1.9372003078460693
			]
		},
		{
			"extras":{
				"ant_landscape":{}
			},
			"mesh":29,
			"name":"Cube.017",
			"rotation":[
				-0.3826834261417389,
				0,
				0,
				0.9238795638084412
			],
			"translation":[
				0.12963779270648956,
				1.3637633323669434,
				-2.6947925090789795
			]
		},
		{
			"extras":{
				"ant_landscape":{}
			},
			"mesh":30,
			"name":"Text",
			"rotation":[
				0.9961947202682495,
				0,
				0,
				0.08715568482875824
			],
			"scale":[
				1,
				5.960464477539063e-08,
				1
			],
			"translation":[
				0.12963779270648956,
				1.3579044342041016,
				-2.7104172706604004
			]
		},
		{
			"extras":{
				"ant_landscape":{}
			},
			"mesh":31,
			"name":"Cube.020",
			"rotation":[
				0.7933533787727356,
				0,
				0,
				0.6087615489959717
			],
			"translation":[
				0,
				0.35686132311820984,
				-3.608217477798462
			]
		},
		{
			"extras":{
				"ant_landscape":{}
			},
			"mesh":32,
			"name":"Text.001",
			"rotation":[
				0.6427876353263855,
				0,
				0,
				0.7660444974899292
			],
			"translation":[
				0,
				0.33390435576438904,
				-3.6013870239257812
			]
		},
		{
			"extras":{
				"ant_landscape":{}
			},
			"mesh":33,
			"name":"Text.002",
			"rotation":[
				0.642787516117096,
				0,
				0,
				0.7660444974899292
			],
			"scale":[
				0.800000011920929,
				0.8000001311302185,
				0.8000001311302185
			],
			"translation":[
				0.15353122353553772,
				0.7113154530525208,
				-3.667302370071411
			]
		},
		{
			"extras":{
				"ant_landscape":{}
			},
			"mesh":34,
			"name":"Cube.024",
			"rotation":[
				-0.08715573698282242,
				0,
				0,
				0.9961947798728943
			],
			"translation":[
				0.1535312384366989,
				0.7113155722618103,
				-3.669358015060425
			]
		},
		{
			"extras":{
				"ant_landscape":{}
			},
			"mesh":35,
			"name":"Cube.025",
			"rotation":[
				-0.3826834261417389,
				0,
				0,
				0.9238795638084412
			],
			"translation":[
				0.09737060964107513,
				1.3637633323669434,
				-2.6947925090789795
			]
		},
		{
			"extras":{
				"ant_landscape":{}
			},
			"mesh":36,
			"name":"Text.003",
			"rotation":[
				0.9961947202682495,
				0,
				0,
				0.08715568482875824
			],
			"scale":[
				1,
				5.960464477539063e-08,
				1
			],
			"translation":[
				0.09737060964107513,
				1.3579044342041016,
				-2.7104172706604004
			]
		},
		{
			"extras":{
				"ant_landscape":{}
			},
			"mesh":37,
			"name":"Icosphere.003",
			"translation":[
				0,
				1.1983869075775146,
				9.271199226379395
			]
		},
		{
			"extras":{
				"ant_landscape":{}
			},
			"mesh":38,
			"name":"Text.004",
			"rotation":[
				0.6427876353263855,
				0,
				0,
				0.7660444974899292
			],
			"translation":[
				0.011341597884893417,
				0.3570603132247925,
				-3.6054561138153076
			]
		},
		{
			"extras":{
				"ant_landscape":{}
			},
			"mesh":39,
			"name":"Text.005",
			"rotation":[
				0.6427876353263855,
				0,
				0,
				0.7660444974899292
			],
			"translation":[
				0,
				0.34576836228370667,
				-3.603498697280884
			]
		},
		{
			"extras":{
				"ant_landscape":{}
			},
			"mesh":40,
			"name":"Text.006",
			"rotation":[
				0.9961947202682495,
				0,
				0,
				0.08715568482875824
			],
			"scale":[
				0.6079999804496765,
				3.6239619305433735e-08,
				0.6079999208450317
			],
			"translation":[
				0.13023217022418976,
				1.3627866506576538,
				-2.6827290058135986
			]
		},
		{
			"extras":{
				"ant_landscape":{}
			},
			"mesh":41,
			"name":"Text.007",
			"rotation":[
				0.9961947202682495,
				0,
				0,
				0.08715568482875824
			],
			"scale":[
				0.6079999804496765,
				3.6239619305433735e-08,
				0.6079999208450317
			],
			"translation":[
				0.09796498715877533,
				1.3627866506576538,
				-2.6827290058135986
			]
		},
		{
			"extras":{
				"ant_landscape":{}
			},
			"mesh":42,
			"name":"Text.008",
			"rotation":[
				0.9961947202682495,
				0,
				0,
				0.08715567737817764
			],
			"scale":[
				0.6079999804496765,
				3.623962996357477e-08,
				0.6080000996589661
			],
			"translation":[
				0.13023217022418976,
				1.3592013120651245,
				-2.703062057495117
			]
		},
		{
			"extras":{
				"ant_landscape":{}
			},
			"mesh":43,
			"name":"Text.009",
			"rotation":[
				0.9961947202682495,
				0,
				0,
				0.08715567737817764
			],
			"scale":[
				0.6079999804496765,
				3.623962996357477e-08,
				0.6080000996589661
			],
			"translation":[
				0.09796498715877533,
				1.3592013120651245,
				-2.703062057495117
			]
		},
		{
			"extras":{
				"ant_landscape":{}
			},
			"mesh":44,
			"name":"Plane.003",
			"rotation":[
				-0.08715575933456421,
				0,
				0,
				0.9961947202682495
			],
			"scale":[
				0.10000002384185791,
				0.10000002384185791,
				0.10000002384185791
			],
			"translation":[
				0,
				1.3582346439361572,
				-2.709251642227173
			]
		},
		{
			"extras":{
				"ant_landscape":{}
			},
			"mesh":45,
			"name":"Cube.026",
			"rotation":[
				-0.3826834261417389,
				0,
				0,
				0.9238795638084412
			],
			"translation":[
				0.06617191433906555,
				1.3637633323669434,
				-2.6947925090789795
			]
		},
		{
			"extras":{
				"ant_landscape":{}
			},
			"mesh":46,
			"name":"Text.010",
			"rotation":[
				0.9961947202682495,
				0,
				0,
				0.08715568482875824
			],
			"scale":[
				1,
				5.960464477539063e-08,
				1
			],
			"translation":[
				0.06617191433906555,
				1.3579044342041016,
				-2.7104172706604004
			]
		},
		{
			"extras":{
				"ant_landscape":{}
			},
			"mesh":47,
			"name":"Text.011",
			"rotation":[
				0.9961947202682495,
				0,
				0,
				0.08715568482875824
			],
			"scale":[
				0.6079999804496765,
				3.6239619305433735e-08,
				0.6079999208450317
			],
			"translation":[
				0.06676629185676575,
				1.3627866506576538,
				-2.6827290058135986
			]
		},
		{
			"extras":{
				"ant_landscape":{}
			},
			"mesh":48,
			"name":"Text.012",
			"rotation":[
				0.9961947202682495,
				0,
				0,
				0.08715567737817764
			],
			"scale":[
				0.6079999804496765,
				3.623962996357477e-08,
				0.6080000996589661
			],
			"translation":[
				0.06676629185676575,
				1.3592013120651245,
				-2.703062057495117
			]
		},
		{
			"extras":{
				"ant_landscape":{}
			},
			"mesh":49,
			"name":"Cylinder.008",
			"translation":[
				0,
				3.3532488346099854,
				8.179999351501465
			]
		},
		{
			"extras":{
				"ant_landscape":{}
			},
			"mesh":50,
			"name":"Plane.004",
			"rotation":[
				0.6427876353263855,
				0,
				0,
				0.7660444378852844
			],
			"scale":[
				0.10000002384185791,
				0.10000002384185791,
				0.025000005960464478
			],
			"translation":[
				0,
				0.35053861141204834,
				-3.6044600009918213
			]
		},
		{
			"extras":{
				"ant_landscape":{}
			},
			"mesh":51,
			"name":"Text.013",
			"rotation":[
				0.6427876353263855,
				0,
				0,
				0.7660444974899292
			],
			"translation":[
				0,
				0.3666030168533325,
				-3.6071386337280273
			]
		},
		{
			"extras":{
				"ant_landscape":{}
			},
			"mesh":52,
			"name":"drawing.001",
			"rotation":[
				-0.4999999403953552,
				0.5000001192092896,
				0.5,
				0.4999999403953552
			],
			"scale":[
				-1,
				-1,
				-1
			],
			"translation":[
				0.181906059384346,
				1.2484081983566284,
				4
			]
		}
	],
	"materials":[
		{
			"doubleSided":true,
			"name":"Material",
			"pbrMetallicRoughness":{
				"baseColorFactor":[
					0.07323738932609558,
					0.07323738932609558,
					0.07323738932609558,
					1
				],
				"roughnessFactor":0.12813369929790497
			}
		},
		{
			"doubleSided":true,
			"name":"Material.010",
			"pbrMetallicRoughness":{
				"baseColorFactor":[
					0.03511274233460426,
					0.03511274233460426,
					0.03511274233460426,
					1
				],
				"metallicFactor":0,
				"roughnessFactor":0.1906077265739441
			}
		},
		{
			"doubleSided":true,
			"name":"Material.003",
			"pbrMetallicRoughness":{
				"baseColorFactor":[
					1,
					0.060887984931468964,
					0,
					1
				],
				"metallicFactor":0,
				"roughnessFactor":0.5
			}
		},
		{
			"doubleSided":true,
			"name":"Material.001",
			"pbrMetallicRoughness":{
				"baseColorFactor":[
					0.7874184846878052,
					0.7874184846878052,
					0.7874184846878052,
					1
				],
				"metallicFactor":0,
				"roughnessFactor":0.059646934270858765
			}
		},
		{
			"doubleSided":true,
			"name":"Interior",
			"pbrMetallicRoughness":{
				"baseColorFactor":[
					0.07323344796895981,
					0.07323344796895981,
					0.07323344796895981,
					1
				],
				"metallicFactor":0,
				"roughnessFactor":0.8189414739608765
			}
		},
		{
			"doubleSided":true,
			"name":"Material.009",
			"pbrMetallicRoughness":{
				"baseColorFactor":[
					0.05087566375732422,
					0.05087566375732422,
					0.05087566375732422,
					1
				],
				"metallicFactor":0,
				"roughnessFactor":0.6353591084480286
			}
		},
		{
			"doubleSided":true,
			"extensions":{
				"KHR_materials_transmission":{
					"transmissionFactor":1
				}
			},
			"name":"LightOff",
			"pbrMetallicRoughness":{
				"baseColorFactor":[
					0.603805661201477,
					0.603805661201477,
					0.603805661201477,
					1
				],
				"metallicFactor":0,
				"roughnessFactor":0.22625696659088135
			}
		},
		{
			"doubleSided":true,
			"name":"Material.008",
			"pbrMetallicRoughness":{
				"baseColorFactor":[
					0,
					0,
					0,
					1
				],
				"metallicFactor":0,
				"roughnessFactor":0.6408840417861938
			}
		},
		{
			"alphaMode":"BLEND",
			"doubleSided":true,
			"name":"drawing",
			"pbrMetallicRoughness":{
				"baseColorTexture":{
					"index":0
				},
				"metallicFactor":0,
				"roughnessFactor":0.11602210253477097
			}
		},
		{
			"alphaMode":"BLEND",
			"doubleSided":true,
			"name":"FerrisACRegistration",
			"pbrMetallicRoughness":{
				"baseColorTexture":{
					"index":1
				},
				"metallicFactor":0,
				"roughnessFactor":0.12237566709518433
			}
		},
		{
			"alphaMode":"BLEND",
			"doubleSided":true,
			"name":"Material.011",
			"pbrMetallicRoughness":{
				"baseColorFactor":[
					0.0508730411529541,
					0.0508730411529541,
					0.0508730411529541,
					0.18453039228916168
				],
				"metallicFactor":0,
				"roughnessFactor":0.02833336777985096
			}
		},
		{
			"doubleSided":true,
			"name":"Seat",
			"pbrMetallicRoughness":{
				"baseColorFactor":[
					0.13382801413536072,
					0.17171329259872437,
					0.2699585556983948,
					1
				],
				"metallicFactor":0
			}
		},
		{
			"doubleSided":true,
			"name":"Material.014",
			"pbrMetallicRoughness":{
				"baseColorFactor":[
					0.800000011920929,
					0.800000011920929,
					0.800000011920929,
					1
				],
				"metallicFactor":0.994413435459137,
				"roughnessFactor":0
			}
		},
		{
			"doubleSided":true,
			"name":"Cockpit",
			"pbrMetallicRoughness":{
				"baseColorFactor":[
					0.033101052045822144,
					0.033101052045822144,
					0.033101052045822144,
					1
				],
				"metallicFactor":0,
				"roughnessFactor":0.617824137210846
			}
		},
		{
			"doubleSided":true,
			"name":"Material.002",
			"pbrMetallicRoughness":{
				"baseColorFactor":[
					0.26994550228118896,
					0.21904271841049194,
					0.15356144309043884,
					1
				],
				"metallicFactor":0.796657383441925,
				"roughnessFactor":0.3328690826892853
			}
		}
	],
	"meshes":[
		{
			"name":"Cylinder.002",
			"primitives":[
				{
					"attributes":{
						"POSITION":0,
						"NORMAL":1,
						"TEXCOORD_0":2
					},
					"indices":3,
					"material":0
				}
			]
		},
		{
			"extras":{
				"rotor":"Main"
			},
			"name":"Cube.008",
			"primitives":[
				{
					"attributes":{
						"POSITION":4,
						"NORMAL":5,
						"TEXCOORD_0":6
					},
					"indices":7,
					"material":1
				},
				{
					"attributes":{
						"POSITION":8,
						"NORMAL":9,
						"TEXCOORD_0":10
					},
					"indices":11,
					"material":2
				}
			]
		},
		{
			"name":"Cube.001",
			"primitives":[
				{
					"attributes":{
						"POSITION":12,
						"NORMAL":13,
						"TEXCOORD_0":14
					},
					"indices":15,
					"material":3
				},
				{
					"attributes":{
						"POSITION":16,
						"NORMAL":17,
						"TEXCOORD_0":18
					},
					"indices":19,
					"material":4
				}
			]
		},
		{
			"name":"Cube.002",
			"primitives":[
				{
					"attributes":{
						"POSITION":20,
						"NORMAL":21,
						"TEXCOORD_0":22
					},
					"indices":23,
					"material":3
				},
				{
					"attributes":{
						"POSITION":24,
						"NORMAL":25,
						"TEXCOORD_0":26
					},
					"indices":27,
					"material":5
				},
				{
					"attributes":{
						"POSITION":28,
						"NORMAL":29,
						"TEXCOORD_0":30
					},
					"indices":31,
					"material":4
				}
			]
		},
		{
			"name":"Mesh",
			"primitives":[
				{
					"attributes":{
						"POSITION":32,
						"NORMAL":33,
						"TEXCOORD_0":34
					},
					"indices":35,
					"material":3
				},
				{
					"attributes":{
						"POSITION":36,
						"NORMAL":37,
						"TEXCOORD_0":38
					},
					"indices":39,
					"material":0
				}
			]
		},
		{
			"name":"Mesh",
			"primitives":[
				{
					"attributes":{
						"POSITION":40,
						"NORMAL":41,
						"TEXCOORD_0":42
					},
					"indices":43,
					"material":0
				}
			]
		},
		{
			"name":"Cylinder",
			"primitives":[
				{
					"attributes":{
						"POSITION":44,
						"NORMAL":45,
						"TEXCOORD_0":46
					},
					"indices":47,
					"material":0
				}
			]
		},
		{
			"extras":{
				"rotor":"Rear"
			},
			"name":"Cube.006",
			"primitives":[
				{
					"attributes":{
						"POSITION":48,
						"NORMAL":49,
						"TEXCOORD_0":50
					},
					"indices":51,
					"material":0
				}
			]
		},
		{
			"name":"Mesh",
			"primitives":[
				{
					"attributes":{
						"POSITION":52,
						"NORMAL":53,
						"TEXCOORD_0":54
					},
					"indices":55,
					"material":3
				}
			]
		},
		{
			"name":"Cylinder.001",
			"primitives":[
				{
					"attributes":{
						"POSITION":56,
						"NORMAL":57,
						"TEXCOORD_0":58
					},
					"indices":59,
					"material":0
				}
			]
		},
		{
			"extras":{
				"light":"AntiCol"
			},
			"name":"Cylinder.003",
			"primitives":[
				{
					"attributes":{
						"POSITION":60,
						"NORMAL":61,
						"TEXCOORD_0":62
					},
					"indices":63,
					"material":6
				}
			]
		},
		{
			"extras":{
				"light":"AntiCol"
			},
			"name":"Cylinder.004",
			"primitives":[
				{
					"attributes":{
						"POSITION":64,
						"NORMAL":65,
						"TEXCOORD_0":66
					},
					"indices":67,
					"material":6
				}
			]
		},
		{
			"name":"Cube.009",
			"primitives":[
				{
					"attributes":{
						"POSITION":68,
						"NORMAL":69,
						"TEXCOORD_0":70
					},
					"indices":71,
					"material":7
				}
			]
		},
		{
			"name":"Cube",
			"primitives":[
				{
					"attributes":{
						"POSITION":72,
						"NORMAL":73,
						"TEXCOORD_0":74
					},
					"indices":75,
					"material":7
				}
			]
		},
		{
			"name":"drawing",
			"primitives":[
				{
					"attributes":{
						"POSITION":76,
						"NORMAL":77,
						"TEXCOORD_0":78
					},
					"indices":79,
					"material":8
				}
			]
		},
		{
			"name":"FerrisACRegistration",
			"primitives":[
				{
					"attributes":{
						"POSITION":80,
						"NORMAL":81,
						"TEXCOORD_0":82
					},
					"indices":83,
					"material":9
				}
			]
		},
		{
			"name":"FerrisACRegistration.001",
			"primitives":[
				{
					"attributes":{
						"POSITION":84,
						"NORMAL":85,
						"TEXCOORD_0":86
					},
					"indices":83,
					"material":9
				}
			]
		},
		{
			"name":"Mesh",
			"primitives":[
				{
					"attributes":{
						"POSITION":87,
						"NORMAL":88,
						"TEXCOORD_0":89
					},
					"indices":90,
					"material":3
				}
			]
		},
		{
			"name":"Mesh",
			"primitives":[
				{
					"attributes":{
						"POSITION":91,
						"NORMAL":92,
						"TEXCOORD_0":93
					},
					"indices":94
				}
			]
		},
		{
			"extras":{
				"light":"PositionPort"
			},
			"name":"Icosphere.001",
			"primitives":[
				{
					"attributes":{
						"POSITION":95,
						"NORMAL":96,
						"TEXCOORD_0":97
					},
					"indices":98,
					"material":6
				}
			]
		},
		{
			"extras":{
				"light":"PositionStarboard"
			},
			"name":"Icosphere.002",
			"primitives":[
				{
					"attributes":{
						"POSITION":99,
						"NORMAL":100,
						"TEXCOORD_0":101
					},
					"indices":102,
					"material":6
				}
			]
		},
		{
			"name":"Cube.016",
			"primitives":[
				{
					"attributes":{
						"POSITION":103,
						"NORMAL":104,
						"TEXCOORD_0":105
					},
					"indices":106,
					"material":10
				}
			]
		},
		{
			"name":"Cube.015",
			"primitives":[
				{
					"attributes":{
						"POSITION":107,
						"NORMAL":108,
						"TEXCOORD_0":109
					},
					"indices":110,
					"material":11
				}
			]
		},
		{
			"name":"Cube.017",
			"primitives":[
				{
					"attributes":{
						"POSITION":111,
						"NORMAL":112,
						"TEXCOORD_0":113
					},
					"indices":114,
					"material":11
				}
			]
		},
		{
			"name":"Cube.024",
			"primitives":[
				{
					"attributes":{
						"POSITION":115,
						"NORMAL":116,
						"TEXCOORD_0":117
					},
					"indices":118,
					"material":11
				},
				{
					"attributes":{
						"POSITION":119,
						"NORMAL":120,
						"TEXCOORD_0":121
					},
					"indices":122,
					"material":12
				}
			]
		},
		{
			"name":"Plane",
			"primitives":[
				{
					"attributes":{
						"POSITION":123,
						"NORMAL":124,
						"TEXCOORD_0":125
					},
					"indices":126,
					"material":4
				}
			]
		},
		{
			"name":"Cube.020",
			"primitives":[
				{
					"attributes":{
						"POSITION":127,
						"NORMAL":128,
						"TEXCOORD_0":129
					},
					"indices":130,
					"material":13
				}
			]
		},
		{
			"name":"Cube.021",
			"primitives":[
				{
					"attributes":{
						"POSITION":131,
						"NORMAL":132,
						"TEXCOORD_0":133
					},
					"indices":134,
					"material":13
				}
			]
		},
		{
			"name":"Plane.001",
			"primitives":[
				{
					"attributes":{
						"POSITION":135,
						"NORMAL":136,
						"TEXCOORD_0":137
					},
					"indices":138,
					"material":4
				}
			]
		},
		{
			"extras":{
				"operation":"AntiColLt",
				"interface_type":"Switch"
			},
			"name":"Cube.022",
			"primitives":[
				{
					"attributes":{
						"POSITION":139,
						"NORMAL":140,
						"TEXCOORD_0":141
					},
					"indices":142,
					"material":14
				}
			]
		},
		{
			"name":"Text",
			"primitives":[
				{
					"attributes":{
						"POSITION":143,
						"NORMAL":144,
						"TEXCOORD_0":145
					},
					"indices":146
				}
			]
		},
		{
			"extras":{
				"inverse":true,
				"operation":"Engine",
				"interface_type":"Switch"
			},
			"name":"Cube.023",
			"primitives":[
				{
					"attributes":{
						"POSITION":147,
						"NORMAL":148,
						"TEXCOORD_0":149
					},
					"indices":150,
					"material":14
				}
			]
		},
		{
			"name":"Text.001",
			"primitives":[
				{
					"attributes":{
						"POSITION":151,
						"NORMAL":152,
						"TEXCOORD_0":153
					},
					"indices":154
				}
			]
		},
		{
			"name":"Text.002",
			"primitives":[
				{
					"attributes":{
						"POSITION":155,
						"NORMAL":156,
						"TEXCOORD_0":157
					},
					"indices":158
				}
			]
		},
		{
			"name":"Cube.025",
			"primitives":[
				{
					"attributes":{
						"POSITION":159,
						"NORMAL":160,
						"TEXCOORD_0":161
					},
					"indices":162,
					"material":13
				}
			]
		},
		{
			"extras":{
				"operation":"PositionLt",
				"interface_type":"Switch"
			},
			"name":"Cube.026",
			"primitives":[
				{
					"attributes":{
						"POSITION":163,
						"NORMAL":164,
						"TEXCOORD_0":165
					},
					"indices":166,
					"material":14
				}
			]
		},
		{
			"name":"Text.003",
			"primitives":[
				{
					"attributes":{
						"POSITION":167,
						"NORMAL":168,
						"TEXCOORD_0":169
					},
					"indices":170
				}
			]
		},
		{
			"extras":{
				"light":"PositionRear"
			},
			"name":"Icosphere.003",
			"primitives":[
				{
					"attributes":{
						"POSITION":171,
						"NORMAL":172,
						"TEXCOORD_0":173
					},
					"indices":98,
					"material":6
				}
			]
		},
		{
			"name":"Text.005",
			"primitives":[
				{
					"attributes":{
						"POSITION":174,
						"NORMAL":175,
						"TEXCOORD_0":176
					},
					"indices":177
				}
			]
		},
		{
			"name":"Text.006",
			"primitives":[
				{
					"attributes":{
						"POSITION":178,
						"NORMAL":179,
						"TEXCOORD_0":180
					},
					"indices":181
				}
			]
		},
		{
			"name":"Text.004",
			"primitives":[
				{
					"attributes":{
						"POSITION":182,
						"NORMAL":183,
						"TEXCOORD_0":184
					},
					"indices":185
				}
			]
		},
		{
			"name":"Text.007",
			"primitives":[
				{
					"attributes":{
						"POSITION":186,
						"NORMAL":187,
						"TEXCOORD_0":188
					},
					"indices":185
				}
			]
		},
		{
			"name":"Text.008",
			"primitives":[
				{
					"attributes":{
						"POSITION":189,
						"NORMAL":190,
						"TEXCOORD_0":191
					},
					"indices":192
				}
			]
		},
		{
			"name":"Text.009",
			"primitives":[
				{
					"attributes":{
						"POSITION":193,
						"NORMAL":194,
						"TEXCOORD_0":195
					},
					"indices":192
				}
			]
		},
		{
			"name":"Plane.003",
			"primitives":[
				{
					"attributes":{
						"POSITION":196,
						"NORMAL":197,
						"TEXCOORD_0":198
					},
					"indices":199,
					"material":13
				}
			]
		},
		{
			"extras":{
				"interface_type":"Switch",
				"operation":"StrobeLt"
			},
			"name":"Cube.027",
			"primitives":[
				{
					"attributes":{
						"POSITION":200,
						"NORMAL":201,
						"TEXCOORD_0":202
					},
					"indices":166,
					"material":14
				}
			]
		},
		{
			"name":"Text.010",
			"primitives":[
				{
					"attributes":{
						"POSITION":203,
						"NORMAL":204,
						"TEXCOORD_0":205
					},
					"indices":206
				}
			]
		},
		{
			"name":"Text.011",
			"primitives":[
				{
					"attributes":{
						"POSITION":207,
						"NORMAL":208,
						"TEXCOORD_0":209
					},
					"indices":185
				}
			]
		},
		{
			"name":"Text.012",
			"primitives":[
				{
					"attributes":{
						"POSITION":210,
						"NORMAL":211,
						"TEXCOORD_0":212
					},
					"indices":192
				}
			]
		},
		{
			"extras":{
				"light":"Strobe"
			},
			"name":"Cylinder.008",
			"primitives":[
				{
					"attributes":{
						"POSITION":213,
						"NORMAL":214,
						"TEXCOORD_0":215
					},
					"indices":63,
					"material":6
				}
			]
		},
		{
			"name":"Plane.004",
			"primitives":[
				{
					"attributes":{
						"POSITION":216,
						"NORMAL":217,
						"TEXCOORD_0":218
					},
					"indices":219,
					"material":13
				}
			]
		},
		{
			"name":"Text.013",
			"primitives":[
				{
					"attributes":{
						"POSITION":220,
						"NORMAL":221,
						"TEXCOORD_0":222
					},
					"indices":223
				}
			]
		},
		{
			"name":"drawing.003",
			"primitives":[
				{
					"attributes":{
						"POSITION":224,
						"NORMAL":225,
						"TEXCOORD_0":226
					},
					"indices":79,
					"material":8
				}
			]
		}
	],
	"textures":[
		{
			"sampler":0,
			"source":0
		},
		{
			"sampler":0,
			"source":1
		}
	],
	"images":[
		{
			"mimeType":"image/png",
			"name":"logo",
			"uri":"logo.png"
		},
		{
			"mimeType":"image/png",
			"name":"FerrisACRegistration",
			"uri":"FerrisACRegistration.png"
		}
	],
	"accessors":[
		{
			"bufferView":0,
			"componentType":5126,
			"count":96,
			"max":[
				0.10523298382759094,
				0.3800278604030609,
				0.10312164574861526
			],
			"min":[
				-0.10523298382759094,
				-0.28894710540771484,
				-0.10312162339687347
			],
			"type":"VEC3"
		},
		{
			"bufferView":1,
			"componentType":5126,
			"count":96,
			"type":"VEC3"
		},
		{
			"bufferView":2,
			"componentType":5126,
			"count":96,
			"type":"VEC2"
		},
		{
			"bufferView":3,
			"componentType":5123,
			"count":288,
			"type":"SCALAR"
		},
		{
			"bufferView":4,
			"componentType":5126,
			"count":942,
			"max":[
				4.68952751159668,
				0.04415255784988403,
				5.327986717224121
			],
			"min":[
				-4.6895270347595215,
				-0.04415310546755791,
				-5.327986717224121
			],
			"type":"VEC3"
		},
		{
			"bufferView":5,
			"componentType":5126,
			"count":942,
			"type":"VEC3"
		},
		{
			"bufferView":6,
			"componentType":5126,
			"count":942,
			"type":"VEC2"
		},
		{
			"bufferView":7,
			"componentType":5123,
			"count":2880,
			"type":"SCALAR"
		},
		{
			"bufferView":8,
			"componentType":5126,
			"count":432,
			"max":[
				5.678900241851807,
				0.04038313403725624,
				6.533660888671875
			],
			"min":[
				-5.678899765014648,
				-0.04038362577557564,
				-6.533660888671875
			],
			"type":"VEC3"
		},
		{
			"bufferView":9,
			"componentType":5126,
			"count":432,
			"type":"VEC3"
		},
		{
			"bufferView":10,
			"componentType":5126,
			"count":432,
			"type":"VEC2"
		},
		{
			"bufferView":11,
			"componentType":5123,
			"count":1296,
			"type":"SCALAR"
		},
		{
			"bufferView":12,
			"componentType":5126,
			"count":8237,
			"max":[
				1.0070915222167969,
				2.727919340133667,
				3.039769172668457
			],
			"min":[
				-1.0070914030075073,
				0.6197370886802673,
				-4.071946620941162
			],
			"type":"VEC3"
		},
		{
			"bufferView":13,
			"componentType":5126,
			"count":8237,
			"type":"VEC3"
		},
		{
			"bufferView":14,
			"componentType":5126,
			"count":8237,
			"type":"VEC2"
		},
		{
			"bufferView":15,
			"componentType":5123,
			"count":16305,
			"type":"SCALAR"
		},
		{
			"bufferView":16,
			"componentType":5126,
			"count":1786,
			"max":[
				0.9970963001251221,
				2.71791934967041,
				3.030975580215454
			],
			"min":[
				-0.9970961809158325,
				0.6297281384468079,
				-4.061962604522705
			],
			"type":"VEC3"
		},
		{
			"bufferView":17,
			"componentType":5126,
			"count":1786,
			"type":"VEC3"
		},
		{
			"bufferView":18,
			"componentType":5126,
			"count":1786,
			"type":"VEC2"
		},
		{
			"bufferView":19,
			"componentType":5123,
			"count":5595,
			"type":"SCALAR"
		},
		{
			"bufferView":20,
			"componentType":5126,
			"count":2184,
			"max":[
				8.988325119018555,
				0.68721604347229,
				0.9009238481521606
			],
			"min":[
				-0.47023749351501465,
				-0.5957604050636292,
				-0.9009238481521606
			],
			"type":"VEC3"
		},
		{
			"bufferView":21,
			"componentType":5126,
			"count":2184,
			"type":"VEC3"
		},
		{
			"bufferView":22,
			"componentType":5126,
			"count":2184,
			"type":"VEC2"
		},
		{
			"bufferView":23,
			"componentType":5123,
			"count":9864,
			"type":"SCALAR"
		},
		{
			"bufferView":24,
			"componentType":5126,
			"count":525,
			"max":[
				4.948366641998291,
				0.5889226198196411,
				0.8725769519805908
			],
			"min":[
				1.5400336980819702,
				-0.2659829556941986,
				-0.8725769519805908
			],
			"type":"VEC3"
		},
		{
			"bufferView":25,
			"componentType":5126,
			"count":525,
			"type":"VEC3"
		},
		{
			"bufferView":26,
			"componentType":5126,
			"count":525,
			"type":"VEC2"
		},
		{
			"bufferView":27,
			"componentType":5123,
			"count":2316,
			"type":"SCALAR"
		},
		{
			"bufferView":28,
			"componentType":5126,
			"count":8,
			"max":[
				3.160662889480591,
				-0.1969359964132309,
				0.35120224952697754
			],
			"min":[
				3.0902936458587646,
				-0.21093152463436127,
				-0.35120221972465515
			],
			"type":"VEC3"
		},
		{
			"bufferView":29,
			"componentType":5126,
			"count":8,
			"type":"VEC3"
		},
		{
			"bufferView":30,
			"componentType":5126,
			"count":8,
			"type":"VEC2"
		},
		{
			"bufferView":31,
			"componentType":5123,
			"count":12,
			"type":"SCALAR"
		},
		{
			"bufferView":32,
			"componentType":5126,
			"count":684,
			"max":[
				2.2794477939605713,
				5.048186302185059,
				0.17730791866779327
			],
			"min":[
				-0.43075716495513916,
				2.0424015522003174,
				-0.17730790376663208
			],
			"type":"VEC3"
		},
		{
			"bufferView":33,
			"componentType":5126,
			"count":684,
			"type":"VEC3"
		},
		{
			"bufferView":34,
			"componentType":5126,
			"count":684,
			"type":"VEC2"
		},
		{
			"bufferView":35,
			"componentType":5123,
			"count":3024,
			"type":"SCALAR"
		},
		{
			"bufferView":36,
			"componentType":5126,
			"count":475,
			"max":[
				1.881508231163025,
				3.8464083671569824,
				0.172673761844635
			],
			"min":[
				0.07100453227758408,
				2.153129816055298,
				-0.1726737767457962
			],
			"type":"VEC3"
		},
		{
			"bufferView":37,
			"componentType":5126,
			"count":475,
			"type":"VEC3"
		},
		{
			"bufferView":38,
			"componentType":5126,
			"count":475,
			"type":"VEC2"
		},
		{
			"bufferView":39,
			"componentType":5123,
			"count":2160,
			"type":"SCALAR"
		},
		{
			"bufferView":40,
			"componentType":5126,
			"count":96,
			"max":[
				0.07078362256288528,
				0.22899246215820312,
				0.027679620310664177
			],
			"min":[
				-0.06643825769424438,
				-0.5197997093200684,
				-0.07106900960206985
			],
			"type":"VEC3"
		},
		{
			"bufferView":41,
			"componentType":5126,
			"count":96,
			"type":"VEC3"
		},
		{
			"bufferView":42,
			"componentType":5126,
			"count":96,
			"type":"VEC2"
		},
		{
			"bufferView":43,
			"componentType":5123,
			"count":384,
			"type":"SCALAR"
		},
		{
			"bufferView":44,
			"componentType":5126,
			"count":290,
			"max":[
				0.21676944196224213,
				0.1784103363752365,
				0.21676944196224213
			],
			"min":[
				-0.21676944196224213,
				-0.0956919714808464,
				-0.21676944196224213
			],
			"type":"VEC3"
		},
		{
			"bufferView":45,
			"componentType":5126,
			"count":290,
			"type":"VEC3"
		},
		{
			"bufferView":46,
			"componentType":5126,
			"count":290,
			"type":"VEC2"
		},
		{
			"bufferView":47,
			"componentType":5123,
			"count":948,
			"type":"SCALAR"
		},
		{
			"bufferView":48,
			"componentType":5126,
			"count":880,
			"max":[
				0.6583224534988403,
				0.654047429561615,
				0.032950613647699356
			],
			"min":[
				-0.6583224534988403,
				-0.6491960287094116,
				-0.032950595021247864
			],
			"type":"VEC3"
		},
		{
			"bufferView":49,
			"componentType":5126,
			"count":880,
			"type":"VEC3"
		},
		{
			"bufferView":50,
			"componentType":5126,
			"count":880,
			"type":"VEC2"
		},
		{
			"bufferView":51,
			"componentType":5123,
			"count":2244,
			"type":"SCALAR"
		},
		{
			"bufferView":52,
			"componentType":5126,
			"count":226,
			"max":[
				1.8392817974090576,
				2.397284984588623,
				0.10247725248336792
			],
			"min":[
				0.3130672574043274,
				1.7512238025665283,
				-0.10247725248336792
			],
			"type":"VEC3"
		},
		{
			"bufferView":53,
			"componentType":5126,
			"count":226,
			"type":"VEC3"
		},
		{
			"bufferView":54,
			"componentType":5126,
			"count":226,
			"type":"VEC2"
		},
		{
			"bufferView":55,
			"componentType":5123,
			"count":1008,
			"type":"SCALAR"
		},
		{
			"bufferView":56,
			"componentType":5126,
			"count":462,
			"max":[
				0.3470214009284973,
				0.6146475076675415,
				0.3470214009284973
			],
			"min":[
				-0.3470214009284973,
				-0.3499998152256012,
				-0.3470214009284973
			],
			"type":"VEC3"
		},
		{
			"bufferView":57,
			"componentType":5126,
			"count":462,
			"type":"VEC3"
		},
		{
			"bufferView":58,
			"componentType":5126,
			"count":462,
			"type":"VEC2"
		},
		{
			"bufferView":59,
			"componentType":5123,
			"count":1530,
			"type":"SCALAR"
		},
		{
			"bufferView":60,
			"componentType":5126,
			"count":64,
			"max":[
				0.024519875645637512,
				0.026125825941562653,
				0.024519875645637512
			],
			"min":[
				-0.024519875645637512,
				-0.020968148484826088,
				-0.024519875645637512
			],
			"type":"VEC3"
		},
		{
			"bufferView":61,
			"componentType":5126,
			"count":64,
			"type":"VEC3"
		},
		{
			"bufferView":62,
			"componentType":5126,
			"count":64,
			"type":"VEC2"
		},
		{
			"bufferView":63,
			"componentType":5123,
			"count":180,
			"type":"SCALAR"
		},
		{
			"bufferView":64,
			"componentType":5126,
			"count":130,
			"max":[
				0.025000248104333878,
				0.06999996304512024,
				0.025000248104333878
			],
			"min":[
				-0.025000248104333878,
				-0.06999998539686203,
				-0.025000248104333878
			],
			"type":"VEC3"
		},
		{
			"bufferView":65,
			"componentType":5126,
			"count":130,
			"type":"VEC3"
		},
		{
			"bufferView":66,
			"componentType":5126,
			"count":130,
			"type":"VEC2"
		},
		{
			"bufferView":67,
			"componentType":5123,
			"count":372,
			"type":"SCALAR"
		},
		{
			"bufferView":68,
			"componentType":5126,
			"count":540,
			"max":[
				2.2438974380493164,
				0.8841806054115295,
				3.20192813873291
			],
			"min":[
				-0.24389740824699402,
				0.01539553701877594,
				-4.1362833976745605
			],
			"type":"VEC3"
		},
		{
			"bufferView":69,
			"componentType":5126,
			"count":540,
			"type":"VEC3"
		},
		{
			"bufferView":70,
			"componentType":5126,
			"count":540,
			"type":"VEC2"
		},
		{
			"bufferView":71,
			"componentType":5123,
			"count":1056,
			"type":"SCALAR"
		},
		{
			"bufferView":72,
			"componentType":5126,
			"count":20,
			"max":[
				0.020000025629997253,
				0.20000001788139343,
				0.12060967087745667
			],
			"min":[
				-0.019999966025352478,
				-0.2248537540435791,
				-0.01584496721625328
			],
			"type":"VEC3"
		},
		{
			"bufferView":73,
			"componentType":5126,
			"count":20,
			"type":"VEC3"
		},
		{
			"bufferView":74,
			"componentType":5126,
			"count":20,
			"type":"VEC2"
		},
		{
			"bufferView":75,
			"componentType":5123,
			"count":60,
			"type":"SCALAR"
		},
		{
			"bufferView":76,
			"componentType":5126,
			"count":14,
			"max":[
				0.6222223043441772,
				-0.003835736308246851,
				0.23290753364562988
			],
			"min":[
				-0.6222222447395325,
				-0.3387886583805084,
				-0.3500000238418579
			],
			"type":"VEC3"
		},
		{
			"bufferView":77,
			"componentType":5126,
			"count":14,
			"type":"VEC3"
		},
		{
			"bufferView":78,
			"componentType":5126,
			"count":14,
			"type":"VEC2"
		},
		{
			"bufferView":79,
			"componentType":5123,
			"count":36,
			"type":"SCALAR"
		},
		{
			"bufferView":80,
			"componentType":5126,
			"count":4,
			"max":[
				0.6222222447395325,
				0,
				0.3499999940395355
			],
			"min":[
				-0.6222222447395325,
				0,
				-0.3499999940395355
			],
			"type":"VEC3"
		},
		{
			"bufferView":81,
			"componentType":5126,
			"count":4,
			"type":"VEC3"
		},
		{
			"bufferView":82,
			"componentType":5126,
			"count":4,
			"type":"VEC2"
		},
		{
			"bufferView":83,
			"componentType":5123,
			"count":6,
			"type":"SCALAR"
		},
		{
			"bufferView":84,
			"componentType":5126,
			"count":4,
			"max":[
				0.6222222447395325,
				0,
				0.3499999940395355
			],
			"min":[
				-0.6222222447395325,
				0,
				-0.3499999940395355
			],
			"type":"VEC3"
		},
		{
			"bufferView":85,
			"componentType":5126,
			"count":4,
			"type":"VEC3"
		},
		{
			"bufferView":86,
			"componentType":5126,
			"count":4,
			"type":"VEC2"
		},
		{
			"bufferView":87,
			"componentType":5126,
			"count":89,
			"max":[
				0.21642345190048218,
				0.2526082992553711,
				0.09142657369375229
			],
			"min":[
				-0.21642345190048218,
				-0.32237789034843445,
				-0.28578847646713257
			],
			"type":"VEC3"
		},
		{
			"bufferView":88,
			"componentType":5126,
			"count":89,
			"type":"VEC3"
		},
		{
			"bufferView":89,
			"componentType":5126,
			"count":89,
			"type":"VEC2"
		},
		{
			"bufferView":90,
			"componentType":5123,
			"count":336,
			"type":"SCALAR"
		},
		{
			"bufferView":91,
			"componentType":5126,
			"count":132,
			"max":[
				1.4286930561065674,
				0.06086580082774162,
				0.3391157388687134
			],
			"min":[
				-1.4286930561065674,
				-0.06033884361386299,
				-0.2900770604610443
			],
			"type":"VEC3"
		},
		{
			"bufferView":92,
			"componentType":5126,
			"count":132,
			"type":"VEC3"
		},
		{
			"bufferView":93,
			"componentType":5126,
			"count":132,
			"type":"VEC2"
		},
		{
			"bufferView":94,
			"componentType":5123,
			"count":432,
			"type":"SCALAR"
		},
		{
			"bufferView":95,
			"componentType":5126,
			"count":63,
			"max":[
				0.031722284853458405,
				0.033354733139276505,
				0.033354733139276505
			],
			"min":[
				-0.031722284853458405,
				-0.033354733139276505,
				-0.033354733139276505
			],
			"type":"VEC3"
		},
		{
			"bufferView":96,
			"componentType":5126,
			"count":63,
			"type":"VEC3"
		},
		{
			"bufferView":97,
			"componentType":5126,
			"count":63,
			"type":"VEC2"
		},
		{
			"bufferView":98,
			"componentType":5123,
			"count":240,
			"type":"SCALAR"
		},
		{
			"bufferView":99,
			"componentType":5126,
			"count":63,
			"max":[
				0.031721752136945724,
				0.033354733139276505,
				0.033354733139276505
			],
			"min":[
				-0.03172270581126213,
				-0.033354733139276505,
				-0.033354733139276505
			],
			"type":"VEC3"
		},
		{
			"bufferView":100,
			"componentType":5126,
			"count":63,
			"type":"VEC3"
		},
		{
			"bufferView":101,
			"componentType":5126,
			"count":63,
			"type":"VEC2"
		},
		{
			"bufferView":102,
			"componentType":5123,
			"count":240,
			"type":"SCALAR"
		},
		{
			"bufferView":103,
			"componentType":5126,
			"count":1560,
			"max":[
				1.00446355342865,
				2.6521944999694824,
				2.495744466781616
			],
			"min":[
				-1.00446355342865,
				1.133225440979004,
				-4.0121917724609375
			],
			"type":"VEC3"
		},
		{
			"bufferView":104,
			"componentType":5126,
			"count":1560,
			"type":"VEC3"
		},
		{
			"bufferView":105,
			"componentType":5126,
			"count":1560,
			"type":"VEC2"
		},
		{
			"bufferView":106,
			"componentType":5123,
			"count":4740,
			"type":"SCALAR"
		},
		{
			"bufferView":107,
			"componentType":5126,
			"count":644,
			"max":[
				0.25,
				0.06899011135101318,
				0.25
			],
			"min":[
				-1.1106476783752441,
				-0.3733272850513458,
				-0.25
			],
			"type":"VEC3"
		},
		{
			"bufferView":108,
			"componentType":5126,
			"count":644,
			"type":"VEC3"
		},
		{
			"bufferView":109,
			"componentType":5126,
			"count":644,
			"type":"VEC2"
		},
		{
			"bufferView":110,
			"componentType":5123,
			"count":3480,
			"type":"SCALAR"
		},
		{
			"bufferView":111,
			"componentType":5126,
			"count":351,
			"max":[
				0.25,
				0.07437319308519363,
				0.22411461174488068
			],
			"min":[
				-1.1106476783752441,
				-0.045042529702186584,
				-0.53175950050354
			],
			"type":"VEC3"
		},
		{
			"bufferView":112,
			"componentType":5126,
			"count":351,
			"type":"VEC3"
		},
		{
			"bufferView":113,
			"componentType":5126,
			"count":351,
			"type":"VEC2"
		},
		{
			"bufferView":114,
			"componentType":5123,
			"count":1752,
			"type":"SCALAR"
		},
		{
			"bufferView":115,
			"componentType":5126,
			"count":536,
			"max":[
				0.1309080421924591,
				-0.0038208449259400368,
				0.13779380917549133
			],
			"min":[
				-0.9915558099746704,
				-0.08115760236978531,
				-6.751703551799437e-08
			],
			"type":"VEC3"
		},
		{
			"bufferView":116,
			"componentType":5126,
			"count":536,
			"type":"VEC3"
		},
		{
			"bufferView":117,
			"componentType":5126,
			"count":536,
			"type":"VEC2"
		},
		{
			"bufferView":118,
			"componentType":5123,
			"count":2640,
			"type":"SCALAR"
		},
		{
			"bufferView":119,
			"componentType":5126,
			"count":80,
			"max":[
				0.04873817414045334,
				-0.04453924670815468,
				-2.9802322387695312e-08
			],
			"min":[
				-0.9093859195709229,
				-0.05848193168640137,
				-0.0646367222070694
			],
			"type":"VEC3"
		},
		{
			"bufferView":120,
			"componentType":5126,
			"count":80,
			"type":"VEC3"
		},
		{
			"bufferView":121,
			"componentType":5126,
			"count":80,
			"type":"VEC2"
		},
		{
			"bufferView":122,
			"componentType":5123,
			"count":120,
			"type":"SCALAR"
		},
		{
			"bufferView":123,
			"componentType":5126,
			"count":20,
			"max":[
				0.8878657817840576,
				0.19633740186691284,
				1.6178579330444336
			],
			"min":[
				-0.8878657817840576,
				-0.021716907620429993,
				-2.597978353500366
			],
			"type":"VEC3"
		},
		{
			"bufferView":124,
			"componentType":5126,
			"count":20,
			"type":"VEC3"
		},
		{
			"bufferView":125,
			"componentType":5126,
			"count":20,
			"type":"VEC2"
		},
		{
			"bufferView":126,
			"componentType":5123,
			"count":42,
			"type":"SCALAR"
		},
		{
			"bufferView":127,
			"componentType":5126,
			"count":164,
			"max":[
				0.39993661642074585,
				0.3284280598163605,
				0.14887221157550812
			],
			"min":[
				-0.39993661642074585,
				-0.19328919053077698,
				-0.30864855647087097
			],
			"type":"VEC3"
		},
		{
			"bufferView":128,
			"componentType":5126,
			"count":164,
			"type":"VEC3"
		},
		{
			"bufferView":129,
			"componentType":5126,
			"count":164,
			"type":"VEC2"
		},
		{
			"bufferView":130,
			"componentType":5123,
			"count":540,
			"type":"SCALAR"
		},
		{
			"bufferView":131,
			"componentType":5126,
			"count":75,
			"max":[
				0.15759320557117462,
				0.42291784286499023,
				1.1868358850479126
			],
			"min":[
				-0.15759320557117462,
				-0.2792447805404663,
				-0.2918158173561096
			],
			"type":"VEC3"
		},
		{
			"bufferView":132,
			"componentType":5126,
			"count":75,
			"type":"VEC3"
		},
		{
			"bufferView":133,
			"componentType":5126,
			"count":75,
			"type":"VEC2"
		},
		{
			"bufferView":134,
			"componentType":5123,
			"count":156,
			"type":"SCALAR"
		},
		{
			"bufferView":135,
			"componentType":5126,
			"count":151,
			"max":[
				0.32879477739334106,
				0.19801902770996094,
				-0.29505860805511475
			],
			"min":[
				-0.32879477739334106,
				0.05998283997178078,
				-0.8978685736656189
			],
			"type":"VEC3"
		},
		{
			"bufferView":136,
			"componentType":5126,
			"count":151,
			"type":"VEC3"
		},
		{
			"bufferView":137,
			"componentType":5126,
			"count":151,
			"type":"VEC2"
		},
		{
			"bufferView":138,
			"componentType":5123,
			"count":576,
			"type":"SCALAR"
		},
		{
			"bufferView":139,
			"componentType":5126,
			"count":68,
			"max":[
				0.0020000000949949026,
				-0.0020000115036964417,
				0.0020000000949949026
			],
			"min":[
				-0.0020000000949949026,
				-0.01936032623052597,
				-0.0020000000949949026
			],
			"type":"VEC3"
		},
		{
			"bufferView":140,
			"componentType":5126,
			"count":68,
			"type":"VEC3"
		},
		{
			"bufferView":141,
			"componentType":5126,
			"count":68,
			"type":"VEC2"
		},
		{
			"bufferView":142,
			"componentType":5123,
			"count":228,
			"type":"SCALAR"
		},
		{
			"bufferView":143,
			"componentType":5126,
			"count":895,
			"max":[
				0.01188814826309681,
				0,
				0.0035346767399460077
			],
			"min":[
				-0.012040272355079651,
				0,
				-0.003078300738707185
			],
			"type":"VEC3"
		},
		{
			"bufferView":144,
			"componentType":5126,
			"count":895,
			"type":"VEC3"
		},
		{
			"bufferView":145,
			"componentType":5126,
			"count":895,
			"type":"VEC2"
		},
		{
			"bufferView":146,
			"componentType":5123,
			"count":2673,
			"type":"SCALAR"
		},
		{
			"bufferView":147,
			"componentType":5126,
			"count":108,
			"max":[
				0.0037499999161809683,
				0.02352612465620041,
				0.003749936819076538
			],
			"min":[
				-0.0037499999161809683,
				-0.00012613553553819656,
				-0.003750056028366089
			],
			"type":"VEC3"
		},
		{
			"bufferView":148,
			"componentType":5126,
			"count":108,
			"type":"VEC3"
		},
		{
			"bufferView":149,
			"componentType":5126,
			"count":108,
			"type":"VEC2"
		},
		{
			"bufferView":150,
			"componentType":5123,
			"count":420,
			"type":"SCALAR"
		},
		{
			"bufferView":151,
			"componentType":5126,
			"count":568,
			"max":[
				0.01298319548368454,
				0,
				0.005241044797003269
			],
			"min":[
				-0.012691290117800236,
				0,
				-0.004637329373508692
			],
			"type":"VEC3"
		},
		{
			"bufferView":152,
			"componentType":5126,
			"count":568,
			"type":"VEC3"
		},
		{
			"bufferView":153,
			"componentType":5126,
			"count":568,
			"type":"VEC2"
		},
		{
			"bufferView":154,
			"componentType":5123,
			"count":1686,
			"type":"SCALAR"
		},
		{
			"bufferView":155,
			"componentType":5126,
			"count":1434,
			"max":[
				0.02807607688009739,
				0,
				0.005241044331341982
			],
			"min":[
				-0.027147283777594566,
				0,
				-0.004637329373508692
			],
			"type":"VEC3"
		},
		{
			"bufferView":156,
			"componentType":5126,
			"count":1434,
			"type":"VEC3"
		},
		{
			"bufferView":157,
			"componentType":5126,
			"count":1434,
			"type":"VEC2"
		},
		{
			"bufferView":158,
			"componentType":5123,
			"count":4278,
			"type":"SCALAR"
		},
		{
			"bufferView":159,
			"componentType":5126,
			"count":24,
			"max":[
				0.026981018483638763,
				0.00999999139457941,
				0.0019999989308416843
			],
			"min":[
				-0.026981018483638763,
				-0.00999999139457941,
				-0.0019999989308416843
			],
			"type":"VEC3"
		},
		{
			"bufferView":160,
			"componentType":5126,
			"count":24,
			"type":"VEC3"
		},
		{
			"bufferView":161,
			"componentType":5126,
			"count":24,
			"type":"VEC2"
		},
		{
			"bufferView":162,
			"componentType":5123,
			"count":36,
			"type":"SCALAR"
		},
		{
			"bufferView":163,
			"componentType":5126,
			"count":65,
			"max":[
				0.0020000000949949026,
				-0.00199995469301939,
				0.0020000000949949026
			],
			"min":[
				-0.0020000000949949026,
				-0.019360270351171494,
				-0.0020000000949949026
			],
			"type":"VEC3"
		},
		{
			"bufferView":164,
			"componentType":5126,
			"count":65,
			"type":"VEC3"
		},
		{
			"bufferView":165,
			"componentType":5126,
			"count":65,
			"type":"VEC2"
		},
		{
			"bufferView":166,
			"componentType":5123,
			"count":228,
			"type":"SCALAR"
		},
		{
			"bufferView":167,
			"componentType":5126,
			"count":1162,
			"max":[
				0.008505596779286861,
				0,
				0.0035346767399460077
			],
			"min":[
				-0.008080539293587208,
				0,
				-0.003078300738707185
			],
			"type":"VEC3"
		},
		{
			"bufferView":168,
			"componentType":5126,
			"count":1162,
			"type":"VEC3"
		},
		{
			"bufferView":169,
			"componentType":5126,
			"count":1162,
			"type":"VEC2"
		},
		{
			"bufferView":170,
			"componentType":5123,
			"count":3480,
			"type":"SCALAR"
		},
		{
			"bufferView":171,
			"componentType":5126,
			"count":63,
			"max":[
				0.031722284853458405,
				0.033354733139276505,
				0.033354733139276505
			],
			"min":[
				-0.031722284853458405,
				-0.033354733139276505,
				-0.033354733139276505
			],
			"type":"VEC3"
		},
		{
			"bufferView":172,
			"componentType":5126,
			"count":63,
			"type":"VEC3"
		},
		{
			"bufferView":173,
			"componentType":5126,
			"count":63,
			"type":"VEC2"
		},
		{
			"bufferView":174,
			"componentType":5126,
			"count":220,
			"max":[
				0.0069261761382222176,
				0,
				0.0025973159354180098
			],
			"min":[
				-0.006617451552301645,
				0,
				-0.002255034167319536
			],
			"type":"VEC3"
		},
		{
			"bufferView":175,
			"componentType":5126,
			"count":220,
			"type":"VEC3"
		},
		{
			"bufferView":176,
			"componentType":5126,
			"count":220,
			"type":"VEC2"
		},
		{
			"bufferView":177,
			"componentType":5123,
			"count":642,
			"type":"SCALAR"
		},
		{
			"bufferView":178,
			"componentType":5126,
			"count":404,
			"max":[
				0.0062332237139344215,
				0,
				0.0026510071475058794
			],
			"min":[
				-0.006226511672139168,
				0,
				-0.002308725379407406
			],
			"type":"VEC3"
		},
		{
			"bufferView":179,
			"componentType":5126,
			"count":404,
			"type":"VEC3"
		},
		{
			"bufferView":180,
			"componentType":5126,
			"count":404,
			"type":"VEC2"
		},
		{
			"bufferView":181,
			"componentType":5123,
			"count":1200,
			"type":"SCALAR"
		},
		{
			"bufferView":182,
			"componentType":5126,
			"count":404,
			"max":[
				0.008310966193675995,
				0,
				0.0035346767399460077
			],
			"min":[
				-0.008302017115056515,
				0,
				-0.003078300738707185
			],
			"type":"VEC3"
		},
		{
			"bufferView":183,
			"componentType":5126,
			"count":404,
			"type":"VEC3"
		},
		{
			"bufferView":184,
			"componentType":5126,
			"count":404,
			"type":"VEC2"
		},
		{
			"bufferView":185,
			"componentType":5123,
			"count":1200,
			"type":"SCALAR"
		},
		{
			"bufferView":186,
			"componentType":5126,
			"count":404,
			"max":[
				0.008310966193675995,
				0,
				0.0035346767399460077
			],
			"min":[
				-0.008302017115056515,
				0,
				-0.003078300738707185
			],
			"type":"VEC3"
		},
		{
			"bufferView":187,
			"componentType":5126,
			"count":404,
			"type":"VEC3"
		},
		{
			"bufferView":188,
			"componentType":5126,
			"count":404,
			"type":"VEC2"
		},
		{
			"bufferView":189,
			"componentType":5126,
			"count":514,
			"max":[
				0.006306489929556847,
				0,
				0.0035346767399460077
			],
			"min":[
				-0.006659957580268383,
				0,
				-0.003078300738707185
			],
			"type":"VEC3"
		},
		{
			"bufferView":190,
			"componentType":5126,
			"count":514,
			"type":"VEC3"
		},
		{
			"bufferView":191,
			"componentType":5126,
			"count":514,
			"type":"VEC2"
		},
		{
			"bufferView":192,
			"componentType":5123,
			"count":1536,
			"type":"SCALAR"
		},
		{
			"bufferView":193,
			"componentType":5126,
			"count":514,
			"max":[
				0.006306489929556847,
				0,
				0.0035346767399460077
			],
			"min":[
				-0.006659957580268383,
				0,
				-0.003078300738707185
			],
			"type":"VEC3"
		},
		{
			"bufferView":194,
			"componentType":5126,
			"count":514,
			"type":"VEC3"
		},
		{
			"bufferView":195,
			"componentType":5126,
			"count":514,
			"type":"VEC2"
		},
		{
			"bufferView":196,
			"componentType":5126,
			"count":1078,
			"max":[
				2.8832144737243652,
				0.019999999552965164,
				2.6194682121276855
			],
			"min":[
				-2.8832144737243652,
				-2.7236817458835863e-23,
				-0.6975116729736328
			],
			"type":"VEC3"
		},
		{
			"bufferView":197,
			"componentType":5126,
			"count":1078,
			"type":"VEC3"
		},
		{
			"bufferView":198,
			"componentType":5126,
			"count":1078,
			"type":"VEC2"
		},
		{
			"bufferView":199,
			"componentType":5123,
			"count":2184,
			"type":"SCALAR"
		},
		{
			"bufferView":200,
			"componentType":5126,
			"count":65,
			"max":[
				0.0020000000949949026,
				-0.00199995469301939,
				0.0020000000949949026
			],
			"min":[
				-0.0020000000949949026,
				-0.019360270351171494,
				-0.0020000000949949026
			],
			"type":"VEC3"
		},
		{
			"bufferView":201,
			"componentType":5126,
			"count":65,
			"type":"VEC3"
		},
		{
			"bufferView":202,
			"componentType":5126,
			"count":65,
			"type":"VEC2"
		},
		{
			"bufferView":203,
			"componentType":5126,
			"count":1530,
			"max":[
				0.016657724976539612,
				0,
				0.0035346767399460077
			],
			"min":[
				-0.01688591204583645,
				0,
				-0.003078300738707185
			],
			"type":"VEC3"
		},
		{
			"bufferView":204,
			"componentType":5126,
			"count":1530,
			"type":"VEC3"
		},
		{
			"bufferView":205,
			"componentType":5126,
			"count":1530,
			"type":"VEC2"
		},
		{
			"bufferView":206,
			"componentType":5123,
			"count":4578,
			"type":"SCALAR"
		},
		{
			"bufferView":207,
			"componentType":5126,
			"count":404,
			"max":[
				0.008310966193675995,
				0,
				0.0035346767399460077
			],
			"min":[
				-0.008302017115056515,
				0,
				-0.003078300738707185
			],
			"type":"VEC3"
		},
		{
			"bufferView":208,
			"componentType":5126,
			"count":404,
			"type":"VEC3"
		},
		{
			"bufferView":209,
			"componentType":5126,
			"count":404,
			"type":"VEC2"
		},
		{
			"bufferView":210,
			"componentType":5126,
			"count":514,
			"max":[
				0.006306489929556847,
				0,
				0.0035346767399460077
			],
			"min":[
				-0.006659957580268383,
				0,
				-0.003078300738707185
			],
			"type":"VEC3"
		},
		{
			"bufferView":211,
			"componentType":5126,
			"count":514,
			"type":"VEC3"
		},
		{
			"bufferView":212,
			"componentType":5126,
			"count":514,
			"type":"VEC2"
		},
		{
			"bufferView":213,
			"componentType":5126,
			"count":64,
			"max":[
				0.03376511484384537,
				0.015662427991628647,
				0.03376511484384537
			],
			"min":[
				-0.03376511484384537,
				-0.013685985468327999,
				-0.03376511484384537
			],
			"type":"VEC3"
		},
		{
			"bufferView":214,
			"componentType":5126,
			"count":64,
			"type":"VEC3"
		},
		{
			"bufferView":215,
			"componentType":5126,
			"count":64,
			"type":"VEC2"
		},
		{
			"bufferView":216,
			"componentType":5126,
			"count":216,
			"max":[
				1,
				0,
				1
			],
			"min":[
				-1,
				-0.019999999552965164,
				-1
			],
			"type":"VEC3"
		},
		{
			"bufferView":217,
			"componentType":5126,
			"count":216,
			"type":"VEC3"
		},
		{
			"bufferView":218,
			"componentType":5126,
			"count":216,
			"type":"VEC2"
		},
		{
			"bufferView":219,
			"componentType":5123,
			"count":432,
			"type":"SCALAR"
		},
		{
			"bufferView":220,
			"componentType":5126,
			"count":433,
			"max":[
				0.011548659764230251,
				0,
				0.0026510071475058794
			],
			"min":[
				-0.011142618954181671,
				0,
				-0.002308725379407406
			],
			"type":"VEC3"
		},
		{
			"bufferView":221,
			"componentType":5126,
			"count":433,
			"type":"VEC3"
		},
		{
			"bufferView":222,
			"componentType":5126,
			"count":433,
			"type":"VEC2"
		},
		{
			"bufferView":223,
			"componentType":5123,
			"count":1254,
			"type":"SCALAR"
		},
		{
			"bufferView":224,
			"componentType":5126,
			"count":14,
			"max":[
				0.6222223043441772,
				-0.003835736308246851,
				0.23290753364562988
			],
			"min":[
				-0.6222222447395325,
				-0.3387886583805084,
				-0.3500000238418579
			],
			"type":"VEC3"
		},
		{
			"bufferView":225,
			"componentType":5126,
			"count":14,
			"type":"VEC3"
		},
		{
			"bufferView":226,
			"componentType":5126,
			"count":14,
			"type":"VEC2"
		}
	],
	"bufferViews":[
		{
			"buffer":0,
			"byteLength":1152,
			"byteOffset":0,
			"target":34962
		},
		{
			"buffer":0,
			"byteLength":1152,
			"byteOffset":1152,
			"target":34962
		},
		{
			"buffer":0,
			"byteLength":768,
			"byteOffset":2304,
			"target":34962
		},
		{
			"buffer":0,
			"byteLength":576,
			"byteOffset":3072,
			"target":34963
		},
		{
			"buffer":0,
			"byteLength":11304,
			"byteOffset":3648,
			"target":34962
		},
		{
			"buffer":0,
			"byteLength":11304,
			"byteOffset":14952,
			"target":34962
		},
		{
			"buffer":0,
			"byteLength":7536,
			"byteOffset":26256,
			"target":34962
		},
		{
			"buffer":0,
			"byteLength":5760,
			"byteOffset":33792,
			"target":34963
		},
		{
			"buffer":0,
			"byteLength":5184,
			"byteOffset":39552,
			"target":34962
		},
		{
			"buffer":0,
			"byteLength":5184,
			"byteOffset":44736,
			"target":34962
		},
		{
			"buffer":0,
			"byteLength":3456,
			"byteOffset":49920,
			"target":34962
		},
		{
			"buffer":0,
			"byteLength":2592,
			"byteOffset":53376,
			"target":34963
		},
		{
			"buffer":0,
			"byteLength":98844,
			"byteOffset":55968,
			"target":34962
		},
		{
			"buffer":0,
			"byteLength":98844,
			"byteOffset":154812,
			"target":34962
		},
		{
			"buffer":0,
			"byteLength":65896,
			"byteOffset":253656,
			"target":34962
		},
		{
			"buffer":0,
			"byteLength":32610,
			"byteOffset":319552,
			"target":34963
		},
		{
			"buffer":0,
			"byteLength":21432,
			"byteOffset":352164,
			"target":34962
		},
		{
			"buffer":0,
			"byteLength":21432,
			"byteOffset":373596,
			"target":34962
		},
		{
			"buffer":0,
			"byteLength":14288,
			"byteOffset":395028,
			"target":34962
		},
		{
			"buffer":0,
			"byteLength":11190,
			"byteOffset":409316,
			"target":34963
		},
		{
			"buffer":0,
			"byteLength":26208,
			"byteOffset":420508,
			"target":34962
		},
		{
			"buffer":0,
			"byteLength":26208,
			"byteOffset":446716,
			"target":34962
		},
		{
			"buffer":0,
			"byteLength":17472,
			"byteOffset":472924,
			"target":34962
		},
		{
			"buffer":0,
			"byteLength":19728,
			"byteOffset":490396,
			"target":34963
		},
		{
			"buffer":0,
			"byteLength":6300,
			"byteOffset":510124,
			"target":34962
		},
		{
			"buffer":0,
			"byteLength":6300,
			"byteOffset":516424,
			"target":34962
		},
		{
			"buffer":0,
			"byteLength":4200,
			"byteOffset":522724,
			"target":34962
		},
		{
			"buffer":0,
			"byteLength":4632,
			"byteOffset":526924,
			"target":34963
		},
		{
			"buffer":0,
			"byteLength":96,
			"byteOffset":531556,
			"target":34962
		},
		{
			"buffer":0,
			"byteLength":96,
			"byteOffset":531652,
			"target":34962
		},
		{
			"buffer":0,
			"byteLength":64,
			"byteOffset":531748,
			"target":34962
		},
		{
			"buffer":0,
			"byteLength":24,
			"byteOffset":531812,
			"target":34963
		},
		{
			"buffer":0,
			"byteLength":8208,
			"byteOffset":531836,
			"target":34962
		},
		{
			"buffer":0,
			"byteLength":8208,
			"byteOffset":540044,
			"target":34962
		},
		{
			"buffer":0,
			"byteLength":5472,
			"byteOffset":548252,
			"target":34962
		},
		{
			"buffer":0,
			"byteLength":6048,
			"byteOffset":553724,
			"target":34963
		},
		{
			"buffer":0,
			"byteLength":5700,
			"byteOffset":559772,
			"target":34962
		},
		{
			"buffer":0,
			"byteLength":5700,
			"byteOffset":565472,
			"target":34962
		},
		{
			"buffer":0,
			"byteLength":3800,
			"byteOffset":571172,
			"target":34962
		},
		{
			"buffer":0,
			"byteLength":4320,
			"byteOffset":574972,
			"target":34963
		},
		{
			"buffer":0,
			"byteLength":1152,
			"byteOffset":579292,
			"target":34962
		},
		{
			"buffer":0,
			"byteLength":1152,
			"byteOffset":580444,
			"target":34962
		},
		{
			"buffer":0,
			"byteLength":768,
			"byteOffset":581596,
			"target":34962
		},
		{
			"buffer":0,
			"byteLength":768,
			"byteOffset":582364,
			"target":34963
		},
		{
			"buffer":0,
			"byteLength":3480,
			"byteOffset":583132,
			"target":34962
		},
		{
			"buffer":0,
			"byteLength":3480,
			"byteOffset":586612,
			"target":34962
		},
		{
			"buffer":0,
			"byteLength":2320,
			"byteOffset":590092,
			"target":34962
		},
		{
			"buffer":0,
			"byteLength":1896,
			"byteOffset":592412,
			"target":34963
		},
		{
			"buffer":0,
			"byteLength":10560,
			"byteOffset":594308,
			"target":34962
		},
		{
			"buffer":0,
			"byteLength":10560,
			"byteOffset":604868,
			"target":34962
		},
		{
			"buffer":0,
			"byteLength":7040,
			"byteOffset":615428,
			"target":34962
		},
		{
			"buffer":0,
			"byteLength":4488,
			"byteOffset":622468,
			"target":34963
		},
		{
			"buffer":0,
			"byteLength":2712,
			"byteOffset":626956,
			"target":34962
		},
		{
			"buffer":0,
			"byteLength":2712,
			"byteOffset":629668,
			"target":34962
		},
		{
			"buffer":0,
			"byteLength":1808,
			"byteOffset":632380,
			"target":34962
		},
		{
			"buffer":0,
			"byteLength":2016,
			"byteOffset":634188,
			"target":34963
		},
		{
			"buffer":0,
			"byteLength":5544,
			"byteOffset":636204,
			"target":34962
		},
		{
			"buffer":0,
			"byteLength":5544,
			"byteOffset":641748,
			"target":34962
		},
		{
			"buffer":0,
			"byteLength":3696,
			"byteOffset":647292,
			"target":34962
		},
		{
			"buffer":0,
			"byteLength":3060,
			"byteOffset":650988,
			"target":34963
		},
		{
			"buffer":0,
			"byteLength":768,
			"byteOffset":654048,
			"target":34962
		},
		{
			"buffer":0,
			"byteLength":768,
			"byteOffset":654816,
			"target":34962
		},
		{
			"buffer":0,
			"byteLength":512,
			"byteOffset":655584,
			"target":34962
		},
		{
			"buffer":0,
			"byteLength":360,
			"byteOffset":656096,
			"target":34963
		},
		{
			"buffer":0,
			"byteLength":1560,
			"byteOffset":656456,
			"target":34962
		},
		{
			"buffer":0,
			"byteLength":1560,
			"byteOffset":658016,
			"target":34962
		},
		{
			"buffer":0,
			"byteLength":1040,
			"byteOffset":659576,
			"target":34962
		},
		{
			"buffer":0,
			"byteLength":744,
			"byteOffset":660616,
			"target":34963
		},
		{
			"buffer":0,
			"byteLength":6480,
			"byteOffset":661360,
			"target":34962
		},
		{
			"buffer":0,
			"byteLength":6480,
			"byteOffset":667840,
			"target":34962
		},
		{
			"buffer":0,
			"byteLength":4320,
			"byteOffset":674320,
			"target":34962
		},
		{
			"buffer":0,
			"byteLength":2112,
			"byteOffset":678640,
			"target":34963
		},
		{
			"buffer":0,
			"byteLength":240,
			"byteOffset":680752,
			"target":34962
		},
		{
			"buffer":0,
			"byteLength":240,
			"byteOffset":680992,
			"target":34962
		},
		{
			"buffer":0,
			"byteLength":160,
			"byteOffset":681232,
			"target":34962
		},
		{
			"buffer":0,
			"byteLength":120,
			"byteOffset":681392,
			"target":34963
		},
		{
			"buffer":0,
			"byteLength":168,
			"byteOffset":681512,
			"target":34962
		},
		{
			"buffer":0,
			"byteLength":168,
			"byteOffset":681680,
			"target":34962
		},
		{
			"buffer":0,
			"byteLength":112,
			"byteOffset":681848,
			"target":34962
		},
		{
			"buffer":0,
			"byteLength":72,
			"byteOffset":681960,
			"target":34963
		},
		{
			"buffer":0,
			"byteLength":48,
			"byteOffset":682032,
			"target":34962
		},
		{
			"buffer":0,
			"byteLength":48,
			"byteOffset":682080,
			"target":34962
		},
		{
			"buffer":0,
			"byteLength":32,
			"byteOffset":682128,
			"target":34962
		},
		{
			"buffer":0,
			"byteLength":12,
			"byteOffset":682160,
			"target":34963
		},
		{
			"buffer":0,
			"byteLength":48,
			"byteOffset":682172,
			"target":34962
		},
		{
			"buffer":0,
			"byteLength":48,
			"byteOffset":682220,
			"target":34962
		},
		{
			"buffer":0,
			"byteLength":32,
			"byteOffset":682268,
			"target":34962
		},
		{
			"buffer":0,
			"byteLength":1068,
			"byteOffset":682300,
			"target":34962
		},
		{
			"buffer":0,
			"byteLength":1068,
			"byteOffset":683368,
			"target":34962
		},
		{
			"buffer":0,
			"byteLength":712,
			"byteOffset":684436,
			"target":34962
		},
		{
			"buffer":0,
			"byteLength":672,
			"byteOffset":685148,
			"target":34963
		},
		{
			"buffer":0,
			"byteLength":1584,
			"byteOffset":685820,
			"target":34962
		},
		{
			"buffer":0,
			"byteLength":1584,
			"byteOffset":687404,
			"target":34962
		},
		{
			"buffer":0,
			"byteLength":1056,
			"byteOffset":688988,
			"target":34962
		},
		{
			"buffer":0,
			"byteLength":864,
			"byteOffset":690044,
			"target":34963
		},
		{
			"buffer":0,
			"byteLength":756,
			"byteOffset":690908,
			"target":34962
		},
		{
			"buffer":0,
			"byteLength":756,
			"byteOffset":691664,
			"target":34962
		},
		{
			"buffer":0,
			"byteLength":504,
			"byteOffset":692420,
			"target":34962
		},
		{
			"buffer":0,
			"byteLength":480,
			"byteOffset":692924,
			"target":34963
		},
		{
			"buffer":0,
			"byteLength":756,
			"byteOffset":693404,
			"target":34962
		},
		{
			"buffer":0,
			"byteLength":756,
			"byteOffset":694160,
			"target":34962
		},
		{
			"buffer":0,
			"byteLength":504,
			"byteOffset":694916,
			"target":34962
		},
		{
			"buffer":0,
			"byteLength":480,
			"byteOffset":695420,
			"target":34963
		},
		{
			"buffer":0,
			"byteLength":18720,
			"byteOffset":695900,
			"target":34962
		},
		{
			"buffer":0,
			"byteLength":18720,
			"byteOffset":714620,
			"target":34962
		},
		{
			"buffer":0,
			"byteLength":12480,
			"byteOffset":733340,
			"target":34962
		},
		{
			"buffer":0,
			"byteLength":9480,
			"byteOffset":745820,
			"target":34963
		},
		{
			"buffer":0,
			"byteLength":7728,
			"byteOffset":755300,
			"target":34962
		},
		{
			"buffer":0,
			"byteLength":7728,
			"byteOffset":763028,
			"target":34962
		},
		{
			"buffer":0,
			"byteLength":5152,
			"byteOffset":770756,
			"target":34962
		},
		{
			"buffer":0,
			"byteLength":6960,
			"byteOffset":775908,
			"target":34963
		},
		{
			"buffer":0,
			"byteLength":4212,
			"byteOffset":782868,
			"target":34962
		},
		{
			"buffer":0,
			"byteLength":4212,
			"byteOffset":787080,
			"target":34962
		},
		{
			"buffer":0,
			"byteLength":2808,
			"byteOffset":791292,
			"target":34962
		},
		{
			"buffer":0,
			"byteLength":3504,
			"byteOffset":794100,
			"target":34963
		},
		{
			"buffer":0,
			"byteLength":6432,
			"byteOffset":797604,
			"target":34962
		},
		{
			"buffer":0,
			"byteLength":6432,
			"byteOffset":804036,
			"target":34962
		},
		{
			"buffer":0,
			"byteLength":4288,
			"byteOffset":810468,
			"target":34962
		},
		{
			"buffer":0,
			"byteLength":5280,
			"byteOffset":814756,
			"target":34963
		},
		{
			"buffer":0,
			"byteLength":960,
			"byteOffset":820036,
			"target":34962
		},
		{
			"buffer":0,
			"byteLength":960,
			"byteOffset":820996,
			"target":34962
		},
		{
			"buffer":0,
			"byteLength":640,
			"byteOffset":821956,
			"target":34962
		},
		{
			"buffer":0,
			"byteLength":240,
			"byteOffset":822596,
			"target":34963
		},
		{
			"buffer":0,
			"byteLength":240,
			"byteOffset":822836,
			"target":34962
		},
		{
			"buffer":0,
			"byteLength":240,
			"byteOffset":823076,
			"target":34962
		},
		{
			"buffer":0,
			"byteLength":160,
			"byteOffset":823316,
			"target":34962
		},
		{
			"buffer":0,
			"byteLength":84,
			"byteOffset":823476,
			"target":34963
		},
		{
			"buffer":0,
			"byteLength":1968,
			"byteOffset":823560,
			"target":34962
		},
		{
			"buffer":0,
			"byteLength":1968,
			"byteOffset":825528,
			"target":34962
		},
		{
			"buffer":0,
			"byteLength":1312,
			"byteOffset":827496,
			"target":34962
		},
		{
			"buffer":0,
			"byteLength":1080,
			"byteOffset":828808,
			"target":34963
		},
		{
			"buffer":0,
			"byteLength":900,
			"byteOffset":829888,
			"target":34962
		},
		{
			"buffer":0,
			"byteLength":900,
			"byteOffset":830788,
			"target":34962
		},
		{
			"buffer":0,
			"byteLength":600,
			"byteOffset":831688,
			"target":34962
		},
		{
			"buffer":0,
			"byteLength":312,
			"byteOffset":832288,
			"target":34963
		},
		{
			"buffer":0,
			"byteLength":1812,
			"byteOffset":832600,
			"target":34962
		},
		{
			"buffer":0,
			"byteLength":1812,
			"byteOffset":834412,
			"target":34962
		},
		{
			"buffer":0,
			"byteLength":1208,
			"byteOffset":836224,
			"target":34962
		},
		{
			"buffer":0,
			"byteLength":1152,
			"byteOffset":837432,
			"target":34963
		},
		{
			"buffer":0,
			"byteLength":816,
			"byteOffset":838584,
			"target":34962
		},
		{
			"buffer":0,
			"byteLength":816,
			"byteOffset":839400,
			"target":34962
		},
		{
			"buffer":0,
			"byteLength":544,
			"byteOffset":840216,
			"target":34962
		},
		{
			"buffer":0,
			"byteLength":456,
			"byteOffset":840760,
			"target":34963
		},
		{
			"buffer":0,
			"byteLength":10740,
			"byteOffset":841216,
			"target":34962
		},
		{
			"buffer":0,
			"byteLength":10740,
			"byteOffset":851956,
			"target":34962
		},
		{
			"buffer":0,
			"byteLength":7160,
			"byteOffset":862696,
			"target":34962
		},
		{
			"buffer":0,
			"byteLength":5346,
			"byteOffset":869856,
			"target":34963
		},
		{
			"buffer":0,
			"byteLength":1296,
			"byteOffset":875204,
			"target":34962
		},
		{
			"buffer":0,
			"byteLength":1296,
			"byteOffset":876500,
			"target":34962
		},
		{
			"buffer":0,
			"byteLength":864,
			"byteOffset":877796,
			"target":34962
		},
		{
			"buffer":0,
			"byteLength":840,
			"byteOffset":878660,
			"target":34963
		},
		{
			"buffer":0,
			"byteLength":6816,
			"byteOffset":879500,
			"target":34962
		},
		{
			"buffer":0,
			"byteLength":6816,
			"byteOffset":886316,
			"target":34962
		},
		{
			"buffer":0,
			"byteLength":4544,
			"byteOffset":893132,
			"target":34962
		},
		{
			"buffer":0,
			"byteLength":3372,
			"byteOffset":897676,
			"target":34963
		},
		{
			"buffer":0,
			"byteLength":17208,
			"byteOffset":901048,
			"target":34962
		},
		{
			"buffer":0,
			"byteLength":17208,
			"byteOffset":918256,
			"target":34962
		},
		{
			"buffer":0,
			"byteLength":11472,
			"byteOffset":935464,
			"target":34962
		},
		{
			"buffer":0,
			"byteLength":8556,
			"byteOffset":946936,
			"target":34963
		},
		{
			"buffer":0,
			"byteLength":288,
			"byteOffset":955492,
			"target":34962
		},
		{
			"buffer":0,
			"byteLength":288,
			"byteOffset":955780,
			"target":34962
		},
		{
			"buffer":0,
			"byteLength":192,
			"byteOffset":956068,
			"target":34962
		},
		{
			"buffer":0,
			"byteLength":72,
			"byteOffset":956260,
			"target":34963
		},
		{
			"buffer":0,
			"byteLength":780,
			"byteOffset":956332,
			"target":34962
		},
		{
			"buffer":0,
			"byteLength":780,
			"byteOffset":957112,
			"target":34962
		},
		{
			"buffer":0,
			"byteLength":520,
			"byteOffset":957892,
			"target":34962
		},
		{
			"buffer":0,
			"byteLength":456,
			"byteOffset":958412,
			"target":34963
		},
		{
			"buffer":0,
			"byteLength":13944,
			"byteOffset":958868,
			"target":34962
		},
		{
			"buffer":0,
			"byteLength":13944,
			"byteOffset":972812,
			"target":34962
		},
		{
			"buffer":0,
			"byteLength":9296,
			"byteOffset":986756,
			"target":34962
		},
		{
			"buffer":0,
			"byteLength":6960,
			"byteOffset":996052,
			"target":34963
		},
		{
			"buffer":0,
			"byteLength":756,
			"byteOffset":1003012,
			"target":34962
		},
		{
			"buffer":0,
			"byteLength":756,
			"byteOffset":1003768,
			"target":34962
		},
		{
			"buffer":0,
			"byteLength":504,
			"byteOffset":1004524,
			"target":34962
		},
		{
			"buffer":0,
			"byteLength":2640,
			"byteOffset":1005028,
			"target":34962
		},
		{
			"buffer":0,
			"byteLength":2640,
			"byteOffset":1007668,
			"target":34962
		},
		{
			"buffer":0,
			"byteLength":1760,
			"byteOffset":1010308,
			"target":34962
		},
		{
			"buffer":0,
			"byteLength":1284,
			"byteOffset":1012068,
			"target":34963
		},
		{
			"buffer":0,
			"byteLength":4848,
			"byteOffset":1013352,
			"target":34962
		},
		{
			"buffer":0,
			"byteLength":4848,
			"byteOffset":1018200,
			"target":34962
		},
		{
			"buffer":0,
			"byteLength":3232,
			"byteOffset":1023048,
			"target":34962
		},
		{
			"buffer":0,
			"byteLength":2400,
			"byteOffset":1026280,
			"target":34963
		},
		{
			"buffer":0,
			"byteLength":4848,
			"byteOffset":1028680,
			"target":34962
		},
		{
			"buffer":0,
			"byteLength":4848,
			"byteOffset":1033528,
			"target":34962
		},
		{
			"buffer":0,
			"byteLength":3232,
			"byteOffset":1038376,
			"target":34962
		},
		{
			"buffer":0,
			"byteLength":2400,
			"byteOffset":1041608,
			"target":34963
		},
		{
			"buffer":0,
			"byteLength":4848,
			"byteOffset":1044008,
			"target":34962
		},
		{
			"buffer":0,
			"byteLength":4848,
			"byteOffset":1048856,
			"target":34962
		},
		{
			"buffer":0,
			"byteLength":3232,
			"byteOffset":1053704,
			"target":34962
		},
		{
			"buffer":0,
			"byteLength":6168,
			"byteOffset":1056936,
			"target":34962
		},
		{
			"buffer":0,
			"byteLength":6168,
			"byteOffset":1063104,
			"target":34962
		},
		{
			"buffer":0,
			"byteLength":4112,
			"byteOffset":1069272,
			"target":34962
		},
		{
			"buffer":0,
			"byteLength":3072,
			"byteOffset":1073384,
			"target":34963
		},
		{
			"buffer":0,
			"byteLength":6168,
			"byteOffset":1076456,
			"target":34962
		},
		{
			"buffer":0,
			"byteLength":6168,
			"byteOffset":1082624,
			"target":34962
		},
		{
			"buffer":0,
			"byteLength":4112,
			"byteOffset":1088792,
			"target":34962
		},
		{
			"buffer":0,
			"byteLength":12936,
			"byteOffset":1092904,
			"target":34962
		},
		{
			"buffer":0,
			"byteLength":12936,
			"byteOffset":1105840,
			"target":34962
		},
		{
			"buffer":0,
			"byteLength":8624,
			"byteOffset":1118776,
			"target":34962
		},
		{
			"buffer":0,
			"byteLength":4368,
			"byteOffset":1127400,
			"target":34963
		},
		{
			"buffer":0,
			"byteLength":780,
			"byteOffset":1131768,
			"target":34962
		},
		{
			"buffer":0,
			"byteLength":780,
			"byteOffset":1132548,
			"target":34962
		},
		{
			"buffer":0,
			"byteLength":520,
			"byteOffset":1133328,
			"target":34962
		},
		{
			"buffer":0,
			"byteLength":18360,
			"byteOffset":1133848,
			"target":34962
		},
		{
			"buffer":0,
			"byteLength":18360,
			"byteOffset":1152208,
			"target":34962
		},
		{
			"buffer":0,
			"byteLength":12240,
			"byteOffset":1170568,
			"target":34962
		},
		{
			"buffer":0,
			"byteLength":9156,
			"byteOffset":1182808,
			"target":34963
		},
		{
			"buffer":0,
			"byteLength":4848,
			"byteOffset":1191964,
			"target":34962
		},
		{
			"buffer":0,
			"byteLength":4848,
			"byteOffset":1196812,
			"target":34962
		},
		{
			"buffer":0,
			"byteLength":3232,
			"byteOffset":1201660,
			"target":34962
		},
		{
			"buffer":0,
			"byteLength":6168,
			"byteOffset":1204892,
			"target":34962
		},
		{
			"buffer":0,
			"byteLength":6168,
			"byteOffset":1211060,
			"target":34962
		},
		{
			"buffer":0,
			"byteLength":4112,
			"byteOffset":1217228,
			"target":34962
		},
		{
			"buffer":0,
			"byteLength":768,
			"byteOffset":1221340,
			"target":34962
		},
		{
			"buffer":0,
			"byteLength":768,
			"byteOffset":1222108,
			"target":34962
		},
		{
			"buffer":0,
			"byteLength":512,
			"byteOffset":1222876,
			"target":34962
		},
		{
			"buffer":0,
			"byteLength":2592,
			"byteOffset":1223388,
			"target":34962
		},
		{
			"buffer":0,
			"byteLength":2592,
			"byteOffset":1225980,
			"target":34962
		},
		{
			"buffer":0,
			"byteLength":1728,
			"byteOffset":1228572,
			"target":34962
		},
		{
			"buffer":0,
			"byteLength":864,
			"byteOffset":1230300,
			"target":34963
		},
		{
			"buffer":0,
			"byteLength":5196,
			"byteOffset":1231164,
			"target":34962
		},
		{
			"buffer":0,
			"byteLength":5196,
			"byteOffset":1236360,
			"target":34962
		},
		{
			"buffer":0,
			"byteLength":3464,
			"byteOffset":1241556,
			"target":34962
		},
		{
			"buffer":0,
			"byteLength":2508,
			"byteOffset":1245020,
			"target":34963
		},
		{
			"buffer":0,
			"byteLength":168,
			"byteOffset":1247528,
			"target":34962
		},
		{
			"buffer":0,
			"byteLength":168,
			"byteOffset":1247696,
			"target":34962
		},
		{
			"buffer":0,
			"byteLength":112,
			"byteOffset":1247864,
			"target":34962
		}
	],
	"samplers":[
		{
			"magFilter":9729,
			"minFilter":9987,
			"wrapS":33071,
			"wrapT":33071
		}
	],
	"buffers":[
		{
			"byteLength":1247976,
			"uri":"helicopter.bin"
		}
	]
}
