{
	"asset":{
		"generator":"Khronos glTF Blender I/O v5.0.21",
		"version":"2.0"
	},
	"extensionsUsed":[
		"KHR_materials_emissive_strength"
	],
	"scene":0,
	"scenes":[
		{
			"name":"Scene",
			"nodes":[
				0,
				1,
				2
			]
		}
	],
	"nodes":[
		{
			"mesh":0,
			"name":"Cube"
		},
		{
			"mesh":1,
			"name":"Cube.001"
		},
		{
			"mesh":2,
			"name":"Circle"
		}
	],
	"materials":[
		{
			"doubleSided":true,
			"name":"Material",
			"pbrMetallicRoughness":{
				"baseColorFactor":[
					0.07641182839870453,
					0.07641182839870453,
					0.07641182839870453,
					1
				],
				"metallicFactor":0,
				"roughnessFactor":0.8722221851348877
			}
		},
		{
			"doubleSided":true,
			"emissiveFactor":[
				1,
				1,
				1
			],
			"extensions":{
				"KHR_materials_emissive_strength":{
					"emissiveStrength":17.899999618530273
				}
			},
			"name":"Material.001",
			"pbrMetallicRoughness":{
				"baseColorFactor":[
					0.800000011920929,
					0.800000011920929,
					0.800000011920929,
					1
				],
				"metallicFactor":0,
				"roughnessFactor":0.5
			}
		},
		{
			"doubleSided":true,
			"name":"Material.002",
			"pbrMetallicRoughness":{
				"baseColorFactor":[
					0.02109205164015293,
					0.02109205164015293,
					0.02109205164015293,
					1
				],
				"metallicFactor":0,
				"roughnessFactor":0.5
			}
		}
	],
	"meshes":[
		{
			"name":"Cube",
			"primitives":[
				{
					"attributes":{
						"POSITION":0,
						"NORMAL":1,
						"TEXCOORD_0":2
					},
					"indices":3,
					"material":0
				}
			]
		},
		{
			"name":"Cube.001",
			"primitives":[
				{
					"attributes":{
						"POSITION":4,
						"NORMAL":5,
						"TEXCOORD_0":6
					},
					"indices":7
				},
				{
					"attributes":{
						"POSITION":8,
						"NORMAL":9,
						"TEXCOORD_0":10
					},
					"indices":11,
					"material":1
				}
			]
		},
		{
			"name":"Circle",
			"primitives":[
				{
					"attributes":{
						"POSITION":12,
						"NORMAL":13,
						"TEXCOORD_0":14
					},
					"indices":15,
					"material":2
				},
				{
					"attributes":{
						"POSITION":16,
						"NORMAL":17,
						"TEXCOORD_0":18
					},
					"indices":19,
					"material":1
				}
			]
		}
	],
	"accessors":[
		{
			"bufferView":0,
			"componentType":5126,
			"count":28,
			"max":[
				1000,
				1,
				20
			],
			"min":[
				-1000,
				-1,
				-20
			],
			"type":"VEC3"
		},
		{
			"bufferView":1,
			"componentType":5126,
			"count":28,
			"type":"VEC3"
		},
		{
			"bufferView":2,
			"componentType":5126,
			"count":28,
			"type":"VEC2"
		},
		{
			"bufferView":3,
			"componentType":5123,
			"count":60,
			"type":"SCALAR"
		},
		{
			"bufferView":4,
			"componentType":5126,
			"count":99144,
			"max":[
				999.2210693359375,
				1.1887989044189453,
				19.221004486083984
			],
			"min":[
				-999.2210083007812,
				1,
				-19.221004486083984
			],
			"type":"VEC3"
		},
		{
			"bufferView":5,
			"componentType":5126,
			"count":99144,
			"type":"VEC3"
		},
		{
			"bufferView":6,
			"componentType":5126,
			"count":99144,
			"type":"VEC2"
		},
		{
			"bufferView":7,
			"componentType":5125,
			"count":159732,
			"type":"SCALAR"
		},
		{
			"bufferView":8,
			"componentType":5126,
			"count":55080,
			"max":[
				999.06005859375,
				1.2984998226165771,
				19.060009002685547
			],
			"min":[
				-999.0599975585938,
				1.1887989044189453,
				-19.060009002685547
			],
			"type":"VEC3"
		},
		{
			"bufferView":9,
			"componentType":5126,
			"count":55080,
			"type":"VEC3"
		},
		{
			"bufferView":10,
			"componentType":5126,
			"count":55080,
			"type":"VEC2"
		},
		{
			"bufferView":11,
			"componentType":5123,
			"count":93636,
			"type":"SCALAR"
		},
		{
			"bufferView":12,
			"componentType":5126,
			"count":48,
			"max":[
				0.19999998807907104,
				0.18879884481430054,
				0.19999998807907104
			],
			"min":[
				-0.19999998807907104,
				0,
				-0.19999998807907104
			],
			"type":"VEC3"
		},
		{
			"bufferView":13,
			"componentType":5126,
			"count":48,
			"type":"VEC3"
		},
		{
			"bufferView":14,
			"componentType":5126,
			"count":48,
			"type":"VEC2"
		},
		{
			"bufferView":15,
			"componentType":5123,
			"count":144,
			"type":"SCALAR"
		},
		{
			"bufferView":16,
			"componentType":5126,
			"count":36,
			"max":[
				0.039004430174827576,
				0.29849985241889954,
				0.039004430174827576
			],
			"min":[
				-0.039004430174827576,
				0.18879884481430054,
				-0.039004430174827576
			],
			"type":"VEC3"
		},
		{
			"bufferView":17,
			"componentType":5126,
			"count":36,
			"type":"VEC3"
		},
		{
			"bufferView":18,
			"componentType":5126,
			"count":36,
			"type":"VEC2"
		},
		{
			"bufferView":19,
			"componentType":5123,
			"count":102,
			"type":"SCALAR"
		}
	],
	"bufferViews":[
		{
			"buffer":0,
			"byteLength":336,
			"byteOffset":0,
			"target":34962
		},
		{
			"buffer":0,
			"byteLength":336,
			"byteOffset":336,
			"target":34962
		},
		{
			"buffer":0,
			"byteLength":224,
			"byteOffset":672,
			"target":34962
		},
		{
			"buffer":0,
			"byteLength":120,
			"byteOffset":896,
			"target":34963
		},
		{
			"buffer":0,
			"byteLength":1189728,
			"byteOffset":1016,
			"target":34962
		},
		{
			"buffer":0,
			"byteLength":1189728,
			"byteOffset":1190744,
			"target":34962
		},
		{
			"buffer":0,
			"byteLength":793152,
			"byteOffset":2380472,
			"target":34962
		},
		{
			"buffer":0,
			"byteLength":638928,
			"byteOffset":3173624,
			"target":34963
		},
		{
			"buffer":0,
			"byteLength":660960,
			"byteOffset":3812552,
			"target":34962
		},
		{
			"buffer":0,
			"byteLength":660960,
			"byteOffset":4473512,
			"target":34962
		},
		{
			"buffer":0,
			"byteLength":440640,
			"byteOffset":5134472,
			"target":34962
		},
		{
			"buffer":0,
			"byteLength":187272,
			"byteOffset":5575112,
			"target":34963
		},
		{
			"buffer":0,
			"byteLength":576,
			"byteOffset":5762384,
			"target":34962
		},
		{
			"buffer":0,
			"byteLength":576,
			"byteOffset":5762960,
			"target":34962
		},
		{
			"buffer":0,
			"byteLength":384,
			"byteOffset":5763536,
			"target":34962
		},
		{
			"buffer":0,
			"byteLength":288,
			"byteOffset":5763920,
			"target":34963
		},
		{
			"buffer":0,
			"byteLength":432,
			"byteOffset":5764208,
			"target":34962
		},
		{
			"buffer":0,
			"byteLength":432,
			"byteOffset":5764640,
			"target":34962
		},
		{
			"buffer":0,
			"byteLength":288,
			"byteOffset":5765072,
			"target":34962
		},
		{
			"buffer":0,
			"byteLength":204,
			"byteOffset":5765360,
			"target":34963
		}
	],
	"buffers":[
		{
			"byteLength":5765564,
			"uri":"rwy.bin"
		}
	]
}
